<?xml version="1.0" encoding="UTF-8"?>
<svg id="Layer_2" data-name="Layer 2" xmlns="http://www.w3.org/2000/svg" viewBox="0 0 91.98 761.2">
  <defs>
    <style>
      .cls-1 {
        fill: none;
        stroke: #000;
        stroke-miterlimit: 10;
      }
    </style>
  </defs>
  <g id="Layer_1-2" data-name="Layer 1">
    <path class="cls-1" d="m89.94,314.77c1.03-1.96,1.54-4.46,1.54-7.49,0-4.74-1.59-8.57-4.76-11.5-3.17-2.93-7.79-4.39-13.84-4.39-5.3,0-9.56,1.13-12.78,3.41-4.54,3.2-6.81,7.4-6.81,12.6,0,2.66.61,5.14,1.83,7.43.78,1.46,2.04,2.93,3.77,4.39h-5.9c-2.86,0-4.86-.53-6.01-1.59-1.15-1.06-1.72-2.67-1.72-4.82,0-1.66.38-3.04,1.14-4.14.51-.76,1.44-1.32,2.78-1.69l1.65-14.46c-.83-.05-1.49-.07-1.98-.07-3.93,0-7.07,1.46-9.41,4.38-1.36,1.69-2.32,4.21-2.89,7.55v-19.67c1.23-.56,2.28-.94,3.13-1.13,1.04-.23,2.47-.35,4.3-.35h17.18c1.83,0,3.75-.37,5.77-1.1,2.01-.73,3.57-1.73,4.67-3,1.59-1.81,2.63-4.07,3.13-6.78s.75-6.3.75-10.77c0-2.78-.21-5.37-.62-7.76-.42-2.39-1-4.27-1.76-5.64-1.05-1.9-2.29-3.36-3.72-4.38-1.43-1.01-3.39-1.79-5.88-2.33l-1.5,14.25c1.68.59,2.83,1.35,3.44,2.31.78,1.22,1.17,3.05,1.17,5.49,0,1.9-.37,3.24-1.1,3.99s-2.01,1.13-3.85,1.13c-.73-1.86-1.32-3.61-1.78-5.27-.45-1.66-1.24-5.29-2.36-10.88-.93-4.66-2.34-7.86-4.25-9.59s-4.33-2.6-7.29-2.6c-3.15,0-5.8,1.2-7.95,3.61-.58.65-1.08,1.39-1.5,2.21v-23.28h12.2c6.23,0,10.47.77,12.74,2.31,1.61,1.07,2.42,2.59,2.42,4.54,0,1.03-.37,2.42-1.1,4.18l10.62,4.61c1.37-2.61,2.05-5.02,2.05-7.21s-.52-3.86-1.56-5.29c-1.04-1.43-2.94-2.81-5.69-4.16h6.37v-13.95h-38.05v-7.45c1.23-.56,2.28-.94,3.13-1.13,1.04-.23,2.47-.35,4.3-.35h17.18c1.83,0,3.75-.37,5.77-1.1,2.01-.73,3.57-1.73,4.67-3,1.59-1.81,2.63-4.07,3.13-6.78s.75-6.3.75-10.77c0-2.78-.21-5.37-.62-7.76-.42-2.39-1-4.27-1.76-5.64-1.05-1.9-2.29-3.36-3.72-4.38-1.43-1.01-3.39-1.79-5.88-2.33l-1.5,14.25c1.68.59,2.83,1.35,3.44,2.31.78,1.22,1.17,3.05,1.17,5.49,0,1.9-.37,3.24-1.1,3.99s-2.01,1.13-3.85,1.13c-.73-1.86-1.32-3.61-1.78-5.27-.45-1.66-1.24-5.29-2.36-10.88-.93-4.66-2.34-7.86-4.25-9.59s-4.33-2.6-7.29-2.6c-3.15,0-5.8,1.2-7.95,3.61-.58.65-1.08,1.39-1.5,2.21v-39.74h16.93c-1.54,1.49-2.7,3.18-3.48,5.07-.78,1.89-1.17,3.99-1.17,6.28,0,4.74,1.7,8.65,5.11,11.75,3.41,3.1,8.34,4.65,14.81,4.65,5.86,0,10.78-1.42,14.76-4.27,3.98-2.84,5.97-6.87,5.97-12.07,0-2.64-.57-5.04-1.72-7.21-.85-1.61-2.49-3.38-4.91-5.31h5.75v-13.95h-52.05v-14.9c.06.14.11.29.16.43,1.26,2.92,2.94,5.05,5.07,6.41,2.12,1.35,4.3,2.03,6.55,2.03s4.26-.64,6.11-1.92c1.85-1.28,3.28-3.13,4.28-5.55,1-2.42,1.78-6.1,2.34-11.06.39-3.27.83-5.4,1.32-6.37.49-.98,1.21-1.46,2.16-1.46.85,0,1.58.38,2.18,1.15.6.77.9,2,.9,3.68s-.39,3.08-1.17,4.25c-.59.85-1.5,1.46-2.75,1.83l1.39,14.14c2.54-.98,4.55-2.2,6.04-3.68,1.49-1.48,2.59-3.32,3.3-5.53.71-2.21,1.06-5.63,1.06-10.27,0-4.39-.46-7.9-1.37-10.51-.91-2.61-2.3-4.66-4.15-6.15-1.85-1.49-4.06-2.23-6.62-2.23-2.34,0-4.43.69-6.26,2.07-1.83,1.38-3.13,3.08-3.9,5.09-.77,2.01-1.6,5.61-2.51,10.79-.61,3.47-1.12,5.6-1.54,6.41-.59,1.12-1.41,1.68-2.49,1.68-.95,0-1.74-.43-2.38-1.28-.85-1.1-1.28-2.65-1.28-4.65,0-1.83.38-3.3,1.14-4.39.76-1.1,2.01-1.95,3.77-2.56l-1.39-14.79c-3.74.85-6.62,2.79-8.64,5.8-.5.75-.94,1.62-1.32,2.62v-9.24l52.85-19.86v-18.1L36.55,1.03v-.53H.5v720l17.63,39.5,18.42-39.5v-297.7c.06.14.11.29.16.43,1.26,2.92,2.94,5.05,5.07,6.41,2.12,1.36,4.3,2.03,6.55,2.03s4.26-.64,6.11-1.92c1.85-1.28,3.28-3.13,4.28-5.55,1-2.42,1.78-6.1,2.34-11.06.39-3.27.83-5.39,1.32-6.37.49-.98,1.21-1.46,2.16-1.46.85,0,1.58.38,2.18,1.15.6.77.9,2,.9,3.68s-.39,3.08-1.17,4.25c-.59.85-1.5,1.46-2.75,1.83l1.39,14.14c2.54-.98,4.55-2.2,6.04-3.68,1.49-1.48,2.59-3.32,3.3-5.53.71-2.21,1.06-5.63,1.06-10.27,0-4.39-.46-7.9-1.37-10.51-.91-2.61-2.3-4.66-4.15-6.15-1.85-1.49-4.06-2.23-6.62-2.23-2.34,0-4.43.69-6.26,2.07s-3.13,3.08-3.9,5.09c-.77,2.02-1.6,5.61-2.51,10.79-.61,3.47-1.12,5.6-1.54,6.41-.59,1.12-1.41,1.68-2.49,1.68-.95,0-1.74-.43-2.38-1.28-.85-1.1-1.28-2.65-1.28-4.65,0-1.83.38-3.3,1.14-4.39.76-1.1,2.01-1.96,3.77-2.56l-1.39-14.79c-3.74.85-6.62,2.79-8.64,5.8-.5.75-.94,1.62-1.32,2.62v-14.69h38.05v-14.91h-18.71c-3.54,0-5.99-.57-7.36-1.7-1.37-1.14-2.05-2.59-2.05-4.38,0-1.64.51-2.91,1.54-3.81,1.03-.9,2.76-1.36,5.2-1.36h21.39v-14.98h-24.76c-5.1,0-8.88,1.17-11.33,3.5-.78.74-1.43,1.59-1.96,2.52v-28.44c.09.51.18,1.02.29,1.5.61,2.65,1.6,4.83,2.97,6.56,1.37,1.72,3.16,3.1,5.36,4.14,2.21,1.04,4.54,1.56,6.98,1.56l1.72-.04h36.73v-13.95h-5.75c2.37-1.71,4.06-3.55,5.09-5.51Zm-27.74-190.85c1.49-1.29,3.77-1.94,6.85-1.94,3.34,0,5.76.63,7.25,1.9,1.49,1.27,2.23,2.86,2.23,4.76,0,1.76-.74,3.25-2.22,4.47-1.48,1.22-3.79,1.83-6.94,1.83-3.42,0-5.84-.59-7.27-1.76-1.43-1.17-2.14-2.62-2.14-4.36,0-1.98.74-3.61,2.23-4.91Zm-17.97,132.55c.74-.82,1.7-1.23,2.87-1.23,1.03,0,1.94.41,2.75,1.24.78.81,1.57,2.72,2.38,5.75.56,2.22,1.21,4.36,1.94,6.41h-2.38c-1.86,0-3.36-.3-4.52-.9-1.16-.6-2.14-1.61-2.95-3.04-.81-1.43-1.21-2.97-1.21-4.63s.37-2.79,1.12-3.61Zm-3.75,13.02c-1.12.17-1.95.34-2.47.51-.37.12-.85.34-1.45.65v-6.76c.81,1.86,2.11,3.72,3.92,5.6Zm3.75-97.31c.74-.82,1.7-1.23,2.87-1.23,1.03,0,1.94.41,2.75,1.24.78.81,1.57,2.72,2.38,5.75.56,2.22,1.21,4.36,1.94,6.41h-2.38c-1.86,0-3.36-.3-4.52-.9-1.16-.6-2.14-1.61-2.95-3.04-.81-1.43-1.21-2.97-1.21-4.63s.37-2.79,1.12-3.61Zm-3.75,13.02c-1.12.17-1.95.34-2.47.51-.37.12-.85.34-1.45.65v-6.76c.81,1.86,2.11,3.72,3.92,5.6ZM56.18,23.88l19.3,5.86-19.3,5.93v-11.79Zm-11.61-3.6v18.83l-8.02,2.43v-23.63l8.02,2.37Zm-2.56,349.88h-5.46v-6.15c1.11,2.07,2.92,4.12,5.46,6.15Zm36.42-52.8c-1.5,1.32-3.67,1.98-6.5,1.98s-4.95-.63-6.35-1.89c-1.4-1.26-2.11-2.81-2.11-4.67,0-1.95.68-3.53,2.03-4.72,1.35-1.2,3.44-1.79,6.24-1.79,3.2,0,5.49.57,6.87,1.7,1.38,1.14,2.07,2.66,2.07,4.56s-.75,3.52-2.25,4.83Z"/>
  </g>
</svg>