<?xml version="1.0" encoding="UTF-8"?>
<svg id="Layer_2" data-name="Layer 2" xmlns="http://www.w3.org/2000/svg" viewBox="0 0 90.62 761.39">
  <defs>
    <style>
      .cls-1 {
        fill: none;
        stroke: #000;
        stroke-miterlimit: 10;
      }
    </style>
  </defs>
  <g id="Layer_1-2" data-name="Layer 1">
    <path class="cls-1" d="m88.58,127.35c1.03-1.96,1.54-4.46,1.54-7.49,0-4.74-1.59-8.57-4.76-11.5-3.17-2.93-7.79-4.39-13.84-4.39-5.3,0-9.56,1.13-12.78,3.41-4.54,3.2-6.81,7.4-6.81,12.6,0,2.66.61,5.14,1.83,7.43.78,1.46,2.04,2.93,3.77,4.39h-5.9c-2.86,0-4.86-.53-6.01-1.59-1.15-1.06-1.72-2.67-1.72-4.82,0-1.66.38-3.04,1.14-4.14.51-.76,1.44-1.32,2.78-1.69l1.65-14.46c-.83-.05-1.49-.07-1.98-.07-3.93,0-7.07,1.46-9.41,4.38-.58.73-1.09,1.6-1.53,2.63v-24.91c.52,1.22,1.15,2.32,1.9,3.27,1.37,1.72,3.16,3.1,5.36,4.14,2.21,1.04,4.54,1.56,6.98,1.56l1.72-.04h36.73v-13.95h-5.75c2.37-1.71,4.06-3.55,5.09-5.51s1.54-4.46,1.54-7.49c0-4.74-1.59-8.57-4.76-11.5-3.17-2.93-7.79-4.39-13.84-4.39-5.3,0-9.56,1.13-12.78,3.41-4.54,3.2-6.81,7.4-6.81,12.6,0,2.66.61,5.14,1.83,7.43.78,1.46,2.04,2.93,3.77,4.39h-5.9c-2.86,0-4.86-.53-6.01-1.59-1.15-1.06-1.72-2.67-1.72-4.82,0-1.66.38-3.04,1.14-4.14.51-.76,1.44-1.32,2.78-1.69l1.65-14.46c-.83-.05-1.49-.07-1.98-.07-3.93,0-7.07,1.46-9.41,4.38-.58.73-1.09,1.6-1.53,2.63v-15.52h9.96v-28.64h10.58v25.82h10.95v-25.82h8.53v27.83h11.46V.5h-53.69v.18H.5v720l17.63,39.5,18.42-39.5v-364.61l8.42-.9c-.63-1.98-.95-3.52-.95-4.61,0-1.22.41-2.08,1.24-2.56.54-.32,1.63-.48,3.29-.48h13.78v8.2h10.91v-8.2h14.79l-7.65-14.94h-7.14v-5.49h-10.91v5.49h-13.68c-4.34,0-7.48.42-9.42,1.26-1.04.45-1.93,1.05-2.68,1.76v-14.96h22.52c5.13,0,8.92-1.17,11.37-3.5,2.45-2.33,3.68-5.56,3.68-9.69,0-3.05-.56-5.64-1.67-7.76-1.11-2.12-2.96-4.22-5.55-6.3h6.34v-13.88h-36.69v-8.03c.66-.25,1.25-.44,1.77-.55,1.04-.23,2.47-.35,4.3-.35h17.18c1.83,0,3.75-.37,5.77-1.1,2.01-.73,3.57-1.73,4.67-3,1.59-1.81,2.63-4.07,3.13-6.78s.75-6.3.75-10.77c0-2.78-.21-5.37-.62-7.76-.42-2.39-1-4.27-1.76-5.64-1.05-1.9-2.29-3.36-3.72-4.38-1.43-1.01-3.39-1.79-5.88-2.33l-1.5,14.25c1.68.59,2.83,1.35,3.44,2.31.78,1.22,1.17,3.05,1.17,5.49,0,1.9-.37,3.24-1.1,3.99s-2.01,1.13-3.85,1.13c-.73-1.86-1.32-3.61-1.78-5.27-.45-1.66-1.24-5.29-2.36-10.88-.93-4.66-2.34-7.86-4.25-9.59s-4.33-2.6-7.29-2.6c-3.15,0-5.8,1.2-7.95,3.61-.05.06-.09.12-.14.18v-11.48h51.49v-14.94h-51.49v-34.08h17.57c-1.54,1.49-2.7,3.18-3.48,5.07-.78,1.89-1.17,3.99-1.17,6.28,0,4.74,1.7,8.65,5.11,11.75,3.41,3.1,8.34,4.65,14.81,4.65,5.86,0,10.78-1.42,14.76-4.27,3.98-2.84,5.97-6.87,5.97-12.07,0-2.64-.57-5.04-1.72-7.21-.85-1.61-2.49-3.38-4.91-5.31h5.75v-13.95h-52.69v-18.01c.52,1.22,1.15,2.32,1.9,3.27,1.37,1.72,3.16,3.1,5.36,4.14,2.21,1.04,4.54,1.56,6.98,1.56l1.72-.04h36.73v-13.95h-5.75c2.37-1.71,4.06-3.55,5.09-5.51Zm-24.44-57.48c1.35-1.2,3.44-1.79,6.24-1.79,3.2,0,5.49.57,6.87,1.7,1.38,1.14,2.07,2.66,2.07,4.56s-.75,3.52-2.25,4.83c-1.5,1.32-3.67,1.98-6.5,1.98s-4.95-.63-6.35-1.89c-1.4-1.26-2.11-2.81-2.11-4.67,0-1.95.68-3.53,2.03-4.72Zm-1.3,102.91c1.49-1.29,3.77-1.94,6.85-1.94,3.34,0,5.76.63,7.25,1.9,1.49,1.27,2.23,2.86,2.23,4.76,0,1.76-.74,3.25-2.22,4.47-1.48,1.22-3.79,1.83-6.94,1.83-3.42,0-5.84-.59-7.27-1.76-1.43-1.17-2.14-2.62-2.14-4.36,0-1.98.74-3.61,2.23-4.91Zm-9.81,121.64c3.54,0,5.99.56,7.36,1.68,1.37,1.12,2.05,2.59,2.05,4.39,0,1.64-.51,2.91-1.52,3.81s-2.74,1.36-5.18,1.36h-19.19v-11.24h16.48Zm-10.16-50.59c.74-.82,1.7-1.23,2.87-1.23,1.03,0,1.94.41,2.75,1.24.78.81,1.57,2.72,2.38,5.75.56,2.22,1.21,4.36,1.94,6.41h-2.38c-1.86,0-3.36-.3-4.52-.9-1.16-.6-2.14-1.61-2.95-3.04-.81-1.43-1.21-2.97-1.21-4.63s.37-2.79,1.12-3.61Zm-3.75,13.02c-1.12.17-1.95.34-2.47.51-.03,0-.06.02-.09.03v-3.7c.7,1.05,1.55,2.1,2.56,3.15Zm37.95-126.91c-1.5,1.32-3.67,1.98-6.5,1.98s-4.95-.63-6.35-1.89c-1.4-1.26-2.11-2.81-2.11-4.67,0-1.95.68-3.53,2.03-4.72,1.35-1.2,3.44-1.79,6.24-1.79,3.2,0,5.49.57,6.87,1.7,1.38,1.14,2.07,2.66,2.07,4.56s-.75,3.52-2.25,4.83Z"/>
  </g>
</svg>