<?xml version="1.0" encoding="UTF-8"?>
<svg id="Layer_2" data-name="Layer 2" xmlns="http://www.w3.org/2000/svg" viewBox="0 0 90.96 762.86">
  <defs>
    <style>
      .cls-1 {
        fill: none;
        stroke: #000;
        stroke-miterlimit: 10;
      }
    </style>
  </defs>
  <g id="Layer_1-2" data-name="Layer 1">
    <path class="cls-1" d="m90.46,106.98l-38.88,16.32c-2.08-.76-3.52-1.68-4.33-2.76-.81-1.08-1.21-2.51-1.21-4.26,0-2.63.34-5.03,1.03-7.17l-10.4,1.17c-.04.32-.08.62-.12.93v-10.62h23.74c5.1,0,8.89-1.17,11.35-3.5,2.47-2.33,3.7-5.52,3.7-9.58,0-2.74-.45-5.1-1.35-7.11-.9-2-2.4-4.02-4.5-6.04h19.78v-14.91h-52.71v-25.45h39.45v16.92h13.26V.5h-13.26v16.92h-39.45V2.16H.5v720l17.63,39.5,18.42-39.5v-459.16c.21.53.44,1.03.69,1.5,1.7,3.17,4.5,5.88,8.4,8.13l1.35-14.68c-1.17-.93-1.99-1.79-2.45-2.6-.73-1.32-1.1-2.71-1.1-4.17,0-2.32.84-4.2,2.53-5.64,1.17-1.03,2.95-1.67,5.35-1.94v29.88h1.68c5.13,0,9.29-.84,12.49-2.53,3.2-1.69,5.64-4.14,7.32-7.36s2.53-7.62,2.53-13.18c0-6.86-1.88-12.24-5.64-16.13-3.76-3.89-8.68-5.84-14.76-5.84-4.27,0-7.99.97-11.15,2.91-3.16,1.94-5.47,4.39-6.92,7.34-.11.23-.22.48-.32.73v-18.02h23.45c5.27,0,9.15-1.17,11.63-3.51,2.48-2.34,3.72-5.6,3.72-9.76,0-2.83-.46-5.21-1.37-7.13-.92-1.93-2.64-4.06-5.18-6.4,2.17-1.15,3.81-2.63,4.91-4.44s1.65-4.27,1.65-7.37c0-2.88-.5-5.35-1.5-7.39-1-2.04-2.69-4.06-5.05-6.07h5.68v-13.92h-37.91v-28.72c.58,2.18,1.49,3.98,2.76,5.37,1.66,1.83,4.86,3.62,9.6,5.38l41.56,15.43v-14.69l-25.89-7.45,25.89-8.02v-15.73Zm-32,136.65c2.32.24,4.06.82,5.24,1.72,1.88,1.42,2.82,3.31,2.82,5.68,0,2.05-.62,3.7-1.87,4.96-1.25,1.26-3.31,2.03-6.19,2.33v-14.69Zm-4.21-169.26c3.54,0,5.99.56,7.36,1.68,1.37,1.12,2.05,2.59,2.05,4.39,0,1.64-.51,2.91-1.52,3.81s-2.74,1.36-5.18,1.36h-20.41v-11.24h17.7Zm7.4,131.07c-.85.68-2.16,1.02-3.92,1.02h-21.18v-10.58h19.09c2.81,0,4.85.54,6.12,1.61,1.27,1.07,1.9,2.48,1.9,4.23,0,1.48-.67,2.72-2.01,3.72Zm-6.23-35.09c2.95,0,5.08.55,6.37,1.65,1.29,1.1,1.94,2.51,1.94,4.23,0,1.05-.3,1.97-.9,2.76-.6.78-1.39,1.33-2.36,1.65-.61.2-1.77.29-3.48.29h-20.45v-10.58h18.87Z"/>
  </g>
</svg>