<?xml version="1.0" encoding="UTF-8"?>
<svg id="Layer_2" data-name="Layer 2" xmlns="http://www.w3.org/2000/svg" viewBox="0 0 90.88 761.2">
  <defs>
    <style>
      .cls-1 {
        fill: none;
        stroke: #000;
        stroke-miterlimit: 10;
      }
    </style>
  </defs>
  <g id="Layer_1-2" data-name="Layer 1">
    <g>
      <rect class="cls-1" x="79.33" y="185.76" width="10.14" height="14.91"/>
      <path class="cls-1" d="m86.34,214.12c-1.21-.94-2.77-1.58-4.67-1.92s-3.65-.51-5.24-.51h-1.76v-5.57h-10.91v5.57h-27.21v-11.02h38.12v-14.91h-38.12v-9.92h52.92v-14.94h-52.92v-9.41h38.12v-14.91h-18.71c-3.54,0-5.99-.57-7.36-1.7-1.37-1.14-2.05-2.59-2.05-4.38,0-1.64.51-2.91,1.54-3.81,1.03-.9,2.76-1.36,5.2-1.36h21.39v-14.98h-24.76c-5.1,0-8.88,1.17-11.33,3.5-.82.78-1.49,1.66-2.03,2.64v-13.26c1.26-.58,2.34-.97,3.21-1.16,1.04-.23,2.47-.35,4.3-.35h17.18c1.83,0,3.75-.37,5.77-1.1,2.01-.73,3.57-1.73,4.67-3,1.59-1.81,2.63-4.07,3.13-6.78s.75-6.3.75-10.77c0-2.78-.21-5.37-.62-7.76-.42-2.39-1-4.27-1.76-5.64-1.05-1.9-2.29-3.36-3.72-4.38-1.43-1.01-3.39-1.79-5.88-2.33l-1.5,14.25c1.68.59,2.83,1.35,3.44,2.31.78,1.22,1.17,3.05,1.17,5.49,0,1.9-.37,3.24-1.1,3.99s-2.01,1.13-3.85,1.13c-.73-1.86-1.32-3.61-1.78-5.27-.45-1.66-1.24-5.29-2.36-10.88-.93-4.66-2.34-7.86-4.25-9.59s-4.33-2.6-7.29-2.6c-3.15,0-5.8,1.2-7.95,3.61-.62.69-1.14,1.49-1.58,2.36v-24.49c.13.34.26.68.4,1,1.39,3.11,3.45,5.72,6.19,7.82,2.73,2.1,6.14,3.64,10.22,4.61l4.39-14.54c-3.39-.73-5.98-1.91-7.76-3.53-1.78-1.62-2.67-4.02-2.67-7.2s1.1-5.81,3.31-7.62c2.21-1.81,6.29-2.71,12.24-2.71,4.8,0,8.33.76,10.57,2.27,3.02,2,4.54,4.88,4.54,8.64,0,1.66-.34,3.16-1.03,4.5-.68,1.34-1.66,2.48-2.93,3.41-.76.56-1.95,1.1-3.59,1.61l3.26,14.65c5.66-1.88,9.86-4.76,12.6-8.62,2.73-3.87,4.1-9.19,4.1-15.95,0-8.64-2.38-15.33-7.15-20.05-4.77-4.72-11.6-7.09-20.48-7.09-6.66,0-12.13,1.34-16.4,4.03-4.27,2.69-7.25,5.88-8.95,9.58-.32.7-.6,1.45-.86,2.22V.5H.5v720l17.63,39.5,18.42-39.5v-273.29h12.27c6.23,0,10.47.77,12.74,2.31,1.61,1.07,2.42,2.59,2.42,4.54,0,1.03-.37,2.42-1.1,4.18l10.62,4.61c1.37-2.61,2.05-5.02,2.05-7.21s-.52-3.86-1.56-5.29c-1.04-1.43-2.94-2.81-5.69-4.16h6.37v-13.95h-38.12v-17.88c.27.74.56,1.44.9,2.06,1.7,3.17,4.5,5.88,8.4,8.13l1.35-14.68c-1.17-.93-1.99-1.79-2.45-2.6-.73-1.32-1.1-2.71-1.1-4.17,0-2.32.84-4.2,2.53-5.64,1.17-1.03,2.95-1.67,5.35-1.94v29.88h1.68c5.13,0,9.29-.84,12.49-2.53,3.2-1.69,5.64-4.14,7.32-7.36s2.53-7.62,2.53-13.18c0-6.86-1.88-12.24-5.64-16.13-3.76-3.89-8.68-5.84-14.76-5.84-4.27,0-7.99.97-11.15,2.91-3.16,1.94-5.47,4.39-6.92,7.34-.19.39-.37.8-.53,1.22v-26.98l38.12,14.04v-14.32l-24.55-6.27,24.55-8.23v-13.47l-24.49-7.89,24.49-6.23v-14.41l-38.12,14.14v-27.97c.95,2.51,2.3,4.71,4.09,6.56,3.82,3.97,8.72,5.95,14.7,5.95,5.32,0,9.8-1.6,13.44-4.8,4.52-3.98,6.77-9.86,6.77-17.65,0-6.81-1.92-12.22-5.77-16.22-3.85-4-8.73-6.01-14.67-6.01-6.37,0-11.52,2.37-15.45,7.1-1.32,1.6-2.34,3.42-3.11,5.43v-20.07h52.92v-14.94h-52.92v-12.96h27.21v7.1h10.91v-7.1c1.73,0,2.87.06,3.41.18.98.24,1.69.66,2.14,1.24s.68,1.55.68,2.89c0,1.1-.15,2.54-.44,4.32l9.01,1.65c.61-4.98.92-8.78.92-11.39,0-3.27-.37-5.76-1.12-7.45-.75-1.7-1.72-3.02-2.93-3.96Zm-27.67,181.43c2.32.24,4.06.82,5.24,1.72,1.88,1.42,2.82,3.31,2.82,5.68,0,2.05-.62,3.7-1.87,4.96-1.25,1.26-3.31,2.03-6.19,2.33v-14.69Zm-11.21-116.43c1.66-1.4,4.22-2.11,7.69-2.11s5.96.71,7.64,2.12,2.51,3.21,2.51,5.38c0,2.05-.82,3.77-2.47,5.16-1.65,1.39-4.16,2.09-7.53,2.09-3.61,0-6.24-.69-7.87-2.07-1.64-1.38-2.45-3.14-2.45-5.29s.83-3.89,2.49-5.29Zm-10.91-147.82c1.1,2.11,2.94,4.21,5.53,6.28h-5.53v-6.28s0,0,0,0Zm7.75-56.32c.74-.82,1.7-1.23,2.87-1.23,1.03,0,1.94.41,2.75,1.24.78.81,1.57,2.72,2.38,5.75.56,2.22,1.21,4.36,1.94,6.41h-2.38c-1.86,0-3.36-.3-4.52-.9-1.16-.6-2.14-1.61-2.95-3.04-.81-1.43-1.21-2.97-1.21-4.63s.37-2.79,1.12-3.61Zm-3.75,13.02c-1.12.17-1.95.34-2.47.51-.38.12-.89.35-1.52.68v-6.95c.81,1.9,2.14,3.82,3.99,5.75Zm18.64,255.43l-22.63,7.62v-14.98l22.63,7.36Z"/>
    </g>
  </g>
</svg>