<?xml version="1.0" encoding="UTF-8"?>
<svg id="Layer_2" data-name="Layer 2" xmlns="http://www.w3.org/2000/svg" viewBox="0 0 90.45 762.55">
  <defs>
    <style>
      .cls-1 {
        fill: none;
        stroke: #000;
        stroke-miterlimit: 10;
      }
    </style>
  </defs>
  <g id="Layer_1-2" data-name="Layer 1">
    <path class="cls-1" d="m89.63.62l-53.08,11.81V1.84H.5v720l17.63,39.5,18.42-39.5v-234.08h24.11c5.13,0,8.92-1.17,11.37-3.5,2.45-2.33,3.68-5.56,3.68-9.69,0-3.05-.56-5.64-1.67-7.76-1.11-2.12-2.96-4.22-5.55-6.3h6.34v-13.88h-38.29v-19.94c.96,2.69,2.37,5.01,4.25,6.97,3.82,3.97,8.72,5.95,14.7,5.95,5.32,0,9.8-1.6,13.44-4.8,4.52-3.98,6.77-9.86,6.77-17.65,0-6.81-1.92-12.22-5.77-16.22-3.85-4-8.73-6.01-14.67-6.01-6.37,0-11.52,2.37-15.45,7.1-1.41,1.72-2.49,3.69-3.28,5.88v-20.52h53.08v-14.94h-53.08v-18.68c.31.91.66,1.75,1.06,2.5,1.7,3.17,4.5,5.88,8.4,8.13l1.35-14.68c-1.17-.93-1.99-1.79-2.45-2.6-.73-1.32-1.1-2.71-1.1-4.17,0-2.32.84-4.2,2.53-5.64,1.17-1.03,2.95-1.67,5.35-1.94v29.88h1.68c5.13,0,9.29-.84,12.49-2.53,3.2-1.69,5.64-4.14,7.32-7.36s2.53-7.62,2.53-13.18c0-6.86-1.88-12.24-5.64-16.13-3.76-3.89-8.68-5.84-14.76-5.84-4.27,0-7.99.97-11.15,2.91-3.16,1.94-5.47,4.39-6.92,7.34-.26.52-.48,1.09-.7,1.69v-18.82h23.82c5.27,0,9.15-1.17,11.63-3.51,2.48-2.34,3.72-5.6,3.72-9.76,0-2.83-.46-5.21-1.37-7.13-.92-1.93-2.64-4.06-5.18-6.4,2.17-1.15,3.81-2.63,4.91-4.44s1.65-4.27,1.65-7.37c0-2.88-.5-5.35-1.5-7.39-1-2.04-2.69-4.06-5.05-6.07h5.68v-13.92h-38.29v-21.86h12.43c6.23,0,10.47.77,12.74,2.31,1.61,1.07,2.42,2.59,2.42,4.54,0,1.03-.37,2.42-1.1,4.18l10.62,4.61c1.37-2.61,2.05-5.02,2.05-7.21s-.52-3.86-1.56-5.29c-1.04-1.43-2.94-2.81-5.69-4.16h6.37v-13.95h-38.29v-18.32c.31.91.66,1.75,1.06,2.5,1.7,3.17,4.5,5.88,8.4,8.13l1.35-14.68c-1.17-.93-1.99-1.79-2.45-2.6-.73-1.32-1.1-2.71-1.1-4.17,0-2.32.84-4.2,2.53-5.64,1.17-1.03,2.95-1.67,5.35-1.94v29.88h1.68c5.13,0,9.29-.84,12.49-2.53,3.2-1.69,5.64-4.14,7.32-7.36s2.53-7.62,2.53-13.18c0-6.86-1.88-12.24-5.64-16.13-3.76-3.89-8.68-5.84-14.76-5.84-4.27,0-7.99.97-11.15,2.91-3.16,1.94-5.47,4.39-6.92,7.34-.26.52-.48,1.09-.7,1.69v-16.51l10.01-1.07c-.63-1.98-.95-3.52-.95-4.61,0-1.22.41-2.08,1.24-2.56.54-.32,1.63-.48,3.29-.48h13.78v8.2h10.91v-8.2h14.79l-7.65-14.94h-7.14v-5.49h-10.91v5.49h-13.68c-4.34,0-7.48.42-9.42,1.26-1.9.83-3.33,2.1-4.28,3.81v-14.03c1.34-.62,2.47-1.04,3.37-1.24,1.04-.23,2.47-.35,4.3-.35h17.18c1.83,0,3.75-.37,5.77-1.1,2.01-.73,3.57-1.73,4.67-3,1.59-1.81,2.63-4.07,3.13-6.78s.75-6.3.75-10.77c0-2.78-.21-5.37-.62-7.76-.42-2.39-1-4.27-1.76-5.64-1.05-1.9-2.29-3.36-3.72-4.38-1.43-1.01-3.39-1.79-5.88-2.33l-1.5,14.25c1.68.59,2.83,1.35,3.44,2.31.78,1.22,1.17,3.05,1.17,5.49,0,1.9-.37,3.24-1.1,3.99s-2.01,1.13-3.85,1.13c-.73-1.86-1.32-3.61-1.78-5.27-.45-1.66-1.24-5.29-2.36-10.88-.93-4.66-2.34-7.86-4.25-9.59s-4.33-2.6-7.29-2.6c-3.15,0-5.8,1.2-7.95,3.61-.7.78-1.27,1.69-1.74,2.7v-19.18l53.08,11.7v-15.67l-30.02-5.68,30.02-8.32v-15.7l-30.06-8.3,30.06-5.67V.62Zm-42,411.35c1.66-1.4,4.22-2.11,7.69-2.11s5.96.71,7.64,2.12,2.51,3.21,2.51,5.38c0,2.05-.82,3.77-2.47,5.16-1.65,1.39-4.16,2.09-7.53,2.09-3.61,0-6.24-.69-7.87-2.07-1.64-1.38-2.45-3.14-2.45-5.29s.83-3.89,2.49-5.29Zm11.21-76.59c2.32.24,4.06.82,5.24,1.72,1.88,1.42,2.82,3.31,2.82,5.68,0,2.05-.62,3.7-1.87,4.96-1.25,1.26-3.31,2.03-6.19,2.33v-14.69Zm0-161.6c2.32.24,4.06.82,5.24,1.72,1.88,1.42,2.82,3.31,2.82,5.68,0,2.05-.62,3.7-1.87,4.96-1.25,1.26-3.31,2.03-6.19,2.33v-14.69Zm-4.21,287.75c3.54,0,5.99.56,7.36,1.68,1.37,1.12,2.05,2.59,2.05,4.39,0,1.64-.51,2.91-1.52,3.81s-2.74,1.36-5.18,1.36h-20.78v-11.24h18.07Zm7.4-164.19c-.85.68-2.16,1.02-3.92,1.02h-21.55v-10.58h19.46c2.81,0,4.85.54,6.12,1.61,1.27,1.07,1.9,2.48,1.9,4.23,0,1.48-.67,2.72-2.01,3.72Zm-6.23-35.09c2.95,0,5.08.55,6.37,1.65,1.29,1.1,1.94,2.51,1.94,4.23,0,1.05-.3,1.97-.9,2.76-.6.78-1.39,1.33-2.36,1.65-.61.2-1.77.29-3.48.29h-20.82v-10.58h19.24Zm-11.33-169.19c.74-.82,1.7-1.23,2.87-1.23,1.03,0,1.94.41,2.75,1.24.78.81,1.57,2.72,2.38,5.75.56,2.22,1.21,4.36,1.94,6.41h-2.38c-1.86,0-3.36-.3-4.52-.9-1.16-.6-2.14-1.61-2.95-3.04-.81-1.43-1.21-2.97-1.21-4.63s.37-2.79,1.12-3.61Zm-7.78,7.2c.81,1.93,2.15,3.87,4.03,5.82-1.12.17-1.95.34-2.47.51-.41.13-.98.39-1.68.77v-7.48c.05.12.08.25.13.37Zm33.07-62.05l-33.2,9.25v-18.46l33.2,9.21Z"/>
  </g>
</svg>