<?xml version="1.0" encoding="UTF-8"?>
<svg id="Layer_2" data-name="Layer 2" xmlns="http://www.w3.org/2000/svg" viewBox="0 0 90.44 761.67">
  <defs>
    <style>
      .cls-1 {
        fill: none;
        stroke: #000;
        stroke-miterlimit: 10;
      }
    </style>
  </defs>
  <g id="Layer_1-2" data-name="Layer 1">
    <path class="cls-1" d="m36.55,195.08h17.39c-1.54,1.49-2.7,3.18-3.48,5.07-.78,1.89-1.17,3.99-1.17,6.28,0,4.74,1.7,8.65,5.11,11.75,3.41,3.1,8.34,4.65,14.81,4.65,5.86,0,10.78-1.42,14.76-4.27,3.98-2.84,5.97-6.87,5.97-12.07,0-2.64-.57-5.04-1.72-7.21-.85-1.61-2.49-3.38-4.91-5.31h5.75v-13.95h-52.51v-10.16h23.82c5.27,0,9.15-1.17,11.63-3.51,2.48-2.34,3.72-5.6,3.72-9.76,0-2.83-.46-5.21-1.37-7.13-.92-1.93-2.64-4.06-5.18-6.4,2.17-1.15,3.81-2.63,4.91-4.44s1.65-4.27,1.65-7.37c0-2.88-.5-5.35-1.5-7.39-1-2.04-2.69-4.06-5.05-6.07h5.68v-13.92h-38.29v-9.16h38.29v-14.91h-18.71c-3.54,0-5.99-.57-7.36-1.7-1.37-1.14-2.05-2.59-2.05-4.38,0-1.64.51-2.91,1.54-3.81,1.03-.9,2.76-1.36,5.2-1.36h21.39v-14.98h-24.76c-5.1,0-8.88,1.17-11.33,3.5-.9.85-1.63,1.83-2.2,2.92V17.16h19.32v9.08c0,6.69,1.53,11.66,4.58,14.92,3.05,3.26,7.29,4.89,12.71,4.89s9.34-1.5,12.19-4.49,4.28-7.49,4.28-13.49V.5h-53.69v.46H.5v720l17.63,39.5,18.42-39.5v-376.04h24.11c5.13,0,8.92-1.17,11.37-3.5,2.45-2.33,3.68-5.56,3.68-9.69,0-3.05-.56-5.64-1.67-7.76-1.11-2.12-2.96-4.22-5.55-6.3h6.34v-13.88h-38.29v-7.76h38.05v-14.94h-38.05v-7.13l24.66-14.4,13.62,13.95v-18.35l-12.92-11.13h27.71v-15.23h-53.08v-33.71Zm26.1,1.83c1.49-1.29,3.77-1.94,6.85-1.94,3.34,0,5.76.63,7.25,1.9,1.49,1.27,2.23,2.86,2.23,4.76,0,1.76-.74,3.25-2.22,4.47-1.48,1.22-3.79,1.83-6.94,1.83-3.42,0-5.84-.59-7.27-1.76-1.43-1.17-2.14-2.62-2.14-4.36,0-1.98.74-3.61,2.23-4.91Zm4.09-179.75h11.98v4.72c0,3.1-.59,5.21-1.76,6.34-1.17,1.12-2.6,1.68-4.28,1.68s-3.16-.65-4.27-1.94c-1.11-1.29-1.67-3.54-1.67-6.74v-4.07Zm-4.72,136.75c-.85.68-2.16,1.02-3.92,1.02h-21.55v-10.58h19.46c2.81,0,4.85.54,6.12,1.61,1.27,1.07,1.9,2.48,1.9,4.23,0,1.48-.67,2.72-2.01,3.72Zm-6.23-35.09c2.95,0,5.08.55,6.37,1.65,1.29,1.1,1.94,2.51,1.94,4.23,0,1.05-.3,1.97-.9,2.76-.6.78-1.39,1.33-2.36,1.65-.61.2-1.77.29-3.48.29h-20.82v-10.58h19.24Zm-19.08-44.29c1.1,2.11,2.94,4.21,5.53,6.28h-5.69v-6.66c.06.12.1.26.16.38Zm17.91,244.17c3.54,0,5.99.56,7.36,1.68,1.37,1.12,2.05,2.59,2.05,4.39,0,1.64-.51,2.91-1.52,3.81s-2.74,1.36-5.18,1.36h-20.78v-11.24h18.07Zm-8.57-74.67l5.48,5.62-14.98,7.57v-13.19h9.5Z"/>
  </g>
</svg>