<?xml version="1.0" encoding="UTF-8"?>
<svg id="Layer_2" data-name="Layer 2" xmlns="http://www.w3.org/2000/svg" viewBox="0 0 89.64 761.2">
  <defs>
    <style>
      .cls-1 {
        fill: none;
        stroke: #000;
        stroke-miterlimit: 10;
      }
    </style>
  </defs>
  <g id="Layer_1-2" data-name="Layer 1">
    <path class="cls-1" d="m51.01,45.47c.78-.39,1.89-1.17,3.34-2.32,1.44-1.16,2.38-2.04,2.82-2.65.66-.9,1.32-2.34,1.98-4.32.56,2.47,1.27,4.41,2.12,5.83,1.34,2.22,3.09,3.97,5.26,5.24,2.16,1.27,4.73,1.91,7.71,1.91,3.42,0,6.32-.83,8.7-2.49,2.38-1.66,4.01-3.84,4.89-6.55s1.32-6.63,1.32-11.76V.7h-52.59v-.2H.5v720l17.63,39.5,18.42-39.5v-450.71h23.62c5.1,0,8.89-1.17,11.35-3.5,2.47-2.33,3.7-5.52,3.7-9.58,0-2.74-.45-5.1-1.35-7.11-.9-2-2.4-4.02-4.5-6.04h19.78v-14.91h-52.59v-15.34c1.25,2.81,2.9,4.88,4.97,6.2,2.12,1.35,4.3,2.03,6.55,2.03s4.26-.64,6.11-1.92c1.85-1.28,3.28-3.13,4.28-5.55,1-2.42,1.78-6.1,2.34-11.06.39-3.27.83-5.4,1.32-6.37.49-.98,1.21-1.46,2.16-1.46.85,0,1.58.38,2.18,1.15.6.77.9,2,.9,3.68s-.39,3.08-1.17,4.25c-.59.85-1.5,1.46-2.75,1.83l1.39,14.14c2.54-.98,4.55-2.2,6.04-3.68,1.49-1.48,2.59-3.32,3.3-5.53.71-2.21,1.06-5.63,1.06-10.27,0-4.39-.46-7.9-1.37-10.51-.91-2.61-2.3-4.66-4.15-6.15-1.85-1.49-4.06-2.23-6.62-2.23-2.34,0-4.43.69-6.26,2.07-1.83,1.38-3.13,3.08-3.9,5.09-.77,2.01-1.6,5.61-2.51,10.79-.61,3.47-1.12,5.6-1.54,6.41-.59,1.12-1.41,1.68-2.49,1.68-.95,0-1.74-.43-2.38-1.28-.85-1.1-1.28-2.65-1.28-4.65,0-1.83.38-3.3,1.14-4.39.76-1.1,2.01-1.95,3.77-2.56l-1.39-14.79c-3.74.85-6.62,2.79-8.64,5.8-.4.59-.74,1.28-1.06,2.03v-15.73h38.37v-14.94h-38.37v-8.58h52.59v-15.05h-18.6c1.56-1.46,2.73-3.14,3.52-5.04.78-1.89,1.17-4,1.17-6.32,0-4.76-1.71-8.69-5.13-11.77-3.42-3.09-8.35-4.63-14.79-4.63-5.76,0-10.66,1.4-14.69,4.19-1.74,1.21-3.08,2.66-4.06,4.33v-14.23c1.12-.5,2.08-.83,2.87-1.01,1.04-.23,2.47-.35,4.3-.35h17.18c1.83,0,3.75-.37,5.77-1.1,2.01-.73,3.57-1.73,4.67-3,1.59-1.81,2.63-4.07,3.13-6.78s.75-6.3.75-10.77c0-2.78-.21-5.37-.62-7.76-.42-2.39-1-4.27-1.76-5.64-1.05-1.9-2.29-3.36-3.72-4.38-1.43-1.01-3.39-1.79-5.88-2.33l-1.5,14.25c1.68.59,2.83,1.35,3.44,2.31.78,1.22,1.17,3.05,1.17,5.49,0,1.9-.37,3.24-1.1,3.99s-2.01,1.13-3.85,1.13c-.73-1.86-1.32-3.61-1.78-5.27-.45-1.66-1.24-5.29-2.36-10.88-.93-4.66-2.34-7.86-4.25-9.59s-4.33-2.6-7.29-2.6c-3.15,0-5.8,1.2-7.95,3.61-.47.52-.88,1.11-1.24,1.74v-8.41l14.46-7.47Zm16.38-28.11h10.91v7.29c0,3.03-.46,5.09-1.39,6.19-.93,1.1-2.26,1.65-3.99,1.65-1.17,0-2.21-.35-3.11-1.04-.9-.7-1.46-1.59-1.68-2.69-.49-2.17-.73-3.64-.73-4.39v-7Zm-10.14,0v1.46c0,1.51-.42,2.87-1.25,4.07-.64.88-2.01,1.88-4.14,3l-15.31,8.27v-16.81h20.69Zm-3.11,226.21c3.54,0,5.99.56,7.36,1.68,1.37,1.12,2.05,2.59,2.05,4.39,0,1.64-.51,2.91-1.52,3.81s-2.74,1.36-5.18,1.36h-20.29v-11.24h17.58Zm-6.43-120.87c1.48-1.21,3.8-1.81,6.98-1.81,3.39,0,5.81.59,7.25,1.76,1.44,1.17,2.16,2.62,2.16,4.36,0,1.98-.75,3.61-2.25,4.91-1.5,1.29-3.78,1.94-6.83,1.94-3.37,0-5.8-.64-7.29-1.9-1.49-1.27-2.23-2.86-2.23-4.76,0-1.78.74-3.28,2.22-4.49Zm-6.5,12.14h-4.65v-4.84c.91,1.48,2.46,3.09,4.65,4.84Zm2.77-62.68c.74-.82,1.7-1.23,2.87-1.23,1.03,0,1.94.41,2.75,1.24.78.81,1.57,2.72,2.38,5.75.56,2.22,1.21,4.36,1.94,6.41h-2.38c-1.86,0-3.36-.3-4.52-.9-1.16-.6-2.14-1.61-2.95-3.04-.81-1.43-1.21-2.97-1.21-4.63s.37-2.79,1.12-3.61Zm-3.75,13.02c-1.12.17-1.95.34-2.47.51-.31.1-.71.28-1.19.52v-6.1c.82,1.68,2.03,3.37,3.66,5.07Z"/>
  </g>
</svg>