<?xml version="1.0" encoding="UTF-8"?>
<svg id="Layer_2" data-name="Layer 2" xmlns="http://www.w3.org/2000/svg" viewBox="0 0 90.45 761.26">
  <defs>
    <style>
      .cls-1 {
        fill: none;
        stroke: #000;
        stroke-miterlimit: 10;
      }
    </style>
  </defs>
  <g id="Layer_1-2" data-name="Layer 1">
    <path class="cls-1" d="m60.44,41.17c3.05,3.26,7.29,4.89,12.71,4.89s9.34-1.5,12.19-4.49,4.28-7.49,4.28-13.49V.5h-53.69v.05H.5v720l17.63,39.5,18.42-39.5V247.09c.95,2.68,2.37,5.01,4.24,6.96,3.82,3.97,8.72,5.95,14.7,5.95,5.32,0,9.8-1.6,13.44-4.8,4.52-3.98,6.77-9.86,6.77-17.65,0-6.81-1.92-12.22-5.77-16.22-3.85-4-8.73-6.01-14.67-6.01-6.37,0-11.52,2.37-15.45,7.1-1.41,1.71-2.49,3.68-3.27,5.87v-17.72l10.01-1.07c-.63-1.98-.95-3.52-.95-4.61,0-1.22.41-2.08,1.24-2.56.54-.32,1.63-.48,3.29-.48h13.78v8.2h10.91v-8.2h14.79l-7.65-14.94h-7.14v-5.49h-10.91v5.49h-13.68c-4.34,0-7.48.42-9.42,1.26-1.9.83-3.32,2.1-4.27,3.81v-14.18c1.33-.62,2.46-1.04,3.36-1.24,1.04-.23,2.47-.35,4.3-.35h17.18c1.83,0,3.75-.37,5.77-1.1,2.01-.73,3.57-1.73,4.67-3,1.59-1.81,2.63-4.07,3.13-6.78s.75-6.3.75-10.77c0-2.78-.21-5.37-.62-7.76-.42-2.39-1-4.27-1.76-5.64-1.05-1.9-2.29-3.36-3.72-4.38-1.43-1.01-3.39-1.79-5.88-2.33l-1.5,14.25c1.68.59,2.83,1.35,3.44,2.31.78,1.22,1.17,3.05,1.17,5.49,0,1.9-.37,3.24-1.1,3.99s-2.01,1.13-3.85,1.13c-.73-1.86-1.32-3.61-1.78-5.27-.45-1.66-1.24-5.29-2.36-10.88-.93-4.66-2.34-7.86-4.25-9.59s-4.33-2.6-7.29-2.6c-3.15,0-5.8,1.2-7.95,3.61-.69.78-1.26,1.68-1.73,2.7v-11.05l10.01-1.07c-.63-1.98-.95-3.52-.95-4.61,0-1.22.41-2.08,1.24-2.56.54-.32,1.63-.48,3.29-.48h13.78v8.2h10.91v-8.2h14.79l-7.65-14.94h-7.14v-5.49h-10.91v5.49h-13.68c-4.34,0-7.48.42-9.42,1.26-1.9.83-3.32,2.1-4.27,3.81v-28.19c.95,2.68,2.37,5.01,4.24,6.96,3.82,3.97,8.72,5.95,14.7,5.95,5.32,0,9.8-1.6,13.44-4.8,4.52-3.98,6.77-9.86,6.77-17.65,0-6.81-1.92-12.22-5.77-16.22-3.85-4-8.73-6.01-14.67-6.01-6.37,0-11.52,2.37-15.45,7.1-1.41,1.71-2.49,3.68-3.27,5.87V17.16h19.31v9.08c0,6.69,1.53,11.66,4.58,14.92Zm6.3-24.01h11.98v4.72c0,3.1-.59,5.21-1.76,6.34-1.17,1.12-2.6,1.68-4.28,1.68s-3.16-.65-4.27-1.94c-1.11-1.29-1.67-3.54-1.67-6.74v-4.07Zm-19.12,215.2c1.66-1.4,4.22-2.11,7.69-2.11s5.96.71,7.64,2.12,2.51,3.21,2.51,5.38c0,2.05-.82,3.77-2.47,5.16-1.65,1.39-4.16,2.09-7.53,2.09-3.61,0-6.24-.69-7.87-2.07-1.64-1.38-2.45-3.14-2.45-5.29s.83-3.89,2.49-5.29Zm0-165.34c1.66-1.4,4.22-2.11,7.69-2.11s5.96.71,7.64,2.12,2.51,3.21,2.51,5.38c0,2.05-.82,3.77-2.47,5.16-1.65,1.39-4.16,2.09-7.53,2.09-3.61,0-6.24-.69-7.87-2.07-1.64-1.38-2.45-3.14-2.45-5.29s.83-3.89,2.49-5.29Zm-3.17,82.43c.74-.82,1.7-1.23,2.87-1.23,1.03,0,1.94.41,2.75,1.24.78.81,1.57,2.72,2.38,5.75.56,2.22,1.21,4.36,1.94,6.41h-2.38c-1.86,0-3.36-.3-4.52-.9-1.16-.6-2.14-1.61-2.95-3.04-.81-1.43-1.21-2.97-1.21-4.63s.37-2.79,1.12-3.61Zm-7.78,7.2c.81,1.93,2.15,3.87,4.03,5.82-1.12.17-1.95.34-2.47.51-.41.13-.98.39-1.68.77v-7.46c.05.12.08.25.12.36Z"/>
  </g>
</svg>