<?xml version="1.0" encoding="UTF-8"?>
<svg id="Layer_2" data-name="Layer 2" xmlns="http://www.w3.org/2000/svg" viewBox="0 0 90.23 762.1">
  <defs>
    <style>
      .cls-1 {
        fill: none;
        stroke: #000;
        stroke-miterlimit: 10;
      }
    </style>
  </defs>
  <g id="Layer_1-2" data-name="Layer 1">
    <path class="cls-1" d="m89.73,362.6l-38.88,16.32c-2.08-.76-3.52-1.68-4.33-2.76-.81-1.08-1.21-2.51-1.21-4.26,0-2.63.34-5.03,1.03-7.17l-9.78,1.1v-24.13h12.21c6.23,0,10.47.77,12.74,2.31,1.61,1.07,2.42,2.59,2.42,4.54,0,1.03-.37,2.42-1.1,4.18l10.62,4.61c1.37-2.61,2.05-5.02,2.05-7.21s-.52-3.86-1.56-5.29c-1.04-1.43-2.94-2.81-5.69-4.16h6.37v-13.95h-38.07v-7.6c1.24-.56,2.3-.95,3.15-1.14,1.04-.23,2.47-.35,4.3-.35h17.18c1.83,0,3.75-.37,5.77-1.1,2.01-.73,3.57-1.73,4.67-3,1.59-1.81,2.63-4.07,3.13-6.78s.75-6.3.75-10.77c0-2.78-.21-5.37-.62-7.76-.42-2.39-1-4.27-1.76-5.64-1.05-1.9-2.29-3.36-3.72-4.38-1.43-1.01-3.39-1.79-5.88-2.33l-1.5,14.25c1.68.59,2.83,1.35,3.44,2.31.78,1.22,1.17,3.05,1.17,5.49,0,1.9-.37,3.24-1.1,3.99s-2.01,1.13-3.85,1.13c-.73-1.86-1.32-3.61-1.78-5.27-.45-1.66-1.24-5.29-2.36-10.88-.93-4.66-2.34-7.86-4.25-9.59s-4.33-2.6-7.29-2.6c-3.15,0-5.8,1.2-7.95,3.61-.59.66-1.09,1.41-1.52,2.24v-12.91h23.6c5.27,0,9.15-1.17,11.63-3.51,2.48-2.34,3.72-5.6,3.72-9.76,0-2.83-.46-5.21-1.37-7.13-.92-1.93-2.64-4.06-5.18-6.4,2.17-1.15,3.81-2.63,4.91-4.44s1.65-4.27,1.65-7.37c0-2.88-.5-5.35-1.5-7.39-1-2.04-2.69-4.06-5.05-6.07h5.68v-13.92h-38.07v-17.84c.25.68.53,1.32.84,1.91,1.7,3.17,4.5,5.88,8.4,8.13l1.35-14.68c-1.17-.93-1.99-1.79-2.45-2.6-.73-1.32-1.1-2.71-1.1-4.17,0-2.32.84-4.2,2.53-5.64,1.17-1.03,2.95-1.67,5.35-1.94v29.88h1.68c5.13,0,9.29-.84,12.49-2.53,3.2-1.69,5.64-4.14,7.32-7.36s2.53-7.62,2.53-13.18c0-6.86-1.88-12.24-5.64-16.13-3.76-3.89-8.68-5.84-14.76-5.84-4.27,0-7.99.97-11.15,2.91-3.16,1.94-5.47,4.39-6.92,7.34-.17.34-.33.7-.47,1.08v-25.47c.06.15.12.32.18.46,1.26,2.92,2.94,5.05,5.07,6.41,2.12,1.35,4.3,2.03,6.55,2.03s4.26-.64,6.11-1.92c1.85-1.28,3.28-3.13,4.28-5.55,1-2.42,1.78-6.1,2.34-11.06.39-3.27.83-5.4,1.32-6.37.49-.98,1.21-1.46,2.16-1.46.85,0,1.58.38,2.18,1.15.6.77.9,2,.9,3.68s-.39,3.08-1.17,4.25c-.59.85-1.5,1.46-2.75,1.83l1.39,14.14c2.54-.98,4.55-2.2,6.04-3.68,1.49-1.48,2.59-3.32,3.3-5.53.71-2.21,1.06-5.63,1.06-10.27,0-4.39-.46-7.9-1.37-10.51-.91-2.61-2.3-4.66-4.15-6.15-1.85-1.49-4.06-2.23-6.62-2.23-2.34,0-4.43.69-6.26,2.07-1.83,1.38-3.13,3.08-3.9,5.09-.77,2.01-1.6,5.61-2.51,10.79-.61,3.47-1.12,5.6-1.54,6.41-.59,1.12-1.41,1.68-2.49,1.68-.95,0-1.74-.43-2.38-1.28-.85-1.1-1.28-2.65-1.28-4.65,0-1.83.38-3.3,1.14-4.39.76-1.1,2.01-1.95,3.77-2.56l-1.39-14.79c-3.74.85-6.62,2.79-8.64,5.8-.51.76-.95,1.64-1.33,2.66v-25.38c.95,2.45,2.28,4.6,4.03,6.42,3.82,3.97,8.72,5.95,14.7,5.95,5.32,0,9.8-1.6,13.44-4.8,4.52-3.98,6.77-9.86,6.77-17.65,0-6.81-1.92-12.22-5.77-16.22-3.85-4-8.73-6.01-14.67-6.01-6.37,0-11.52,2.37-15.45,7.1-1.28,1.56-2.29,3.32-3.06,5.27v-13.35l14.73-7.61c.78-.39,1.89-1.17,3.34-2.32,1.44-1.16,2.38-2.04,2.82-2.65.66-.9,1.32-2.34,1.98-4.32.56,2.47,1.27,4.41,2.12,5.83,1.34,2.22,3.09,3.97,5.26,5.24,2.16,1.27,4.73,1.91,7.71,1.91,3.42,0,6.32-.83,8.7-2.49,2.38-1.66,4.01-3.84,4.89-6.55s1.32-6.63,1.32-11.76V.5h-53.69v.89H.5v720l17.63,39.5,18.42-39.5v-336.93c.53,1.23,1.2,2.31,2.02,3.22,1.66,1.83,4.86,3.62,9.6,5.38l41.56,15.43v-14.69l-25.89-7.45,25.89-8.02v-15.73Zm-31.11-197.75c2.32.24,4.06.82,5.24,1.72,1.88,1.42,2.82,3.31,2.82,5.68,0,2.05-.62,3.7-1.87,4.96-1.25,1.26-3.31,2.03-6.19,2.33v-14.69Zm-11.21-93.95c1.66-1.4,4.22-2.11,7.69-2.11s5.96.71,7.64,2.12,2.51,3.21,2.51,5.38c0,2.05-.82,3.77-2.47,5.16-1.65,1.39-4.16,2.09-7.53,2.09-3.61,0-6.24-.69-7.87-2.07-1.64-1.38-2.45-3.14-2.45-5.29s.83-3.89,2.49-5.29Zm20.25-53.74h10.91v7.29c0,3.03-.46,5.09-1.39,6.19-.93,1.1-2.26,1.65-3.99,1.65-1.17,0-2.21-.35-3.11-1.04-.9-.7-1.46-1.59-1.68-2.69-.49-2.17-.73-3.64-.73-4.39v-7Zm-23.42,273.73c.74-.82,1.7-1.23,2.87-1.23,1.03,0,1.94.41,2.75,1.24.78.81,1.57,2.72,2.38,5.75.56,2.22,1.21,4.36,1.94,6.41h-2.38c-1.86,0-3.36-.3-4.52-.9-1.16-.6-2.14-1.61-2.95-3.04-.81-1.43-1.21-2.97-1.21-4.63s.37-2.79,1.12-3.61Zm-3.75,13.02c-1.12.17-1.95.34-2.47.51-.37.12-.86.34-1.46.65v-6.8c.81,1.87,2.12,3.74,3.93,5.63Zm21.31-52.22c-.85.68-2.16,1.02-3.92,1.02h-21.33v-10.58h19.24c2.81,0,4.85.54,6.12,1.61,1.27,1.07,1.9,2.48,1.9,4.23,0,1.48-.67,2.72-2.01,3.72Zm-6.23-35.09c2.95,0,5.08.55,6.37,1.65,1.29,1.1,1.94,2.51,1.94,4.23,0,1.05-.3,1.97-.9,2.76-.6.78-1.39,1.33-2.36,1.65-.61.2-1.77.29-3.48.29h-20.6v-10.58h19.02Zm1.94-197.98c0,1.51-.42,2.87-1.25,4.07-.64.88-2.01,1.88-4.14,3l-15.58,8.42v-16.95h20.96v1.46Z"/>
  </g>
</svg>