<?xml version="1.0" encoding="UTF-8"?>
<svg id="Layer_2" data-name="Layer 2" xmlns="http://www.w3.org/2000/svg" viewBox="0 0 89.75 761.2">
  <defs>
    <style>
      .cls-1 {
        fill: none;
        stroke: #000;
        stroke-miterlimit: 10;
      }
    </style>
  </defs>
  <g id="Layer_1-2" data-name="Layer 1">
    <path class="cls-1" d="m37.03,36.24c.71,2.66,2.13,5.15,4.27,7.47,2.14,2.32,4.78,4.13,7.95,5.44,3.16,1.31,7.61,1.96,13.35,1.96,3.66,0,7.13-.44,10.4-1.32,3.27-.88,6.14-2.3,8.61-4.25,2.47-1.95,4.36-4.43,5.68-7.42,1.32-2.99,1.98-6.92,1.98-11.77V1.7h-52.7V.5H.5v720l17.63,39.5,18.42-39.5V124.24h52.7v-14.94h-52.7v-10.03h52.7v-14.94h-52.7v-10.03h37.91v-14.91h-37.91v-25.14c.15.66.3,1.31.48,1.99Zm10.73-17.94h29.33v4.14c0,4.3-1.05,7.37-3.15,9.23-2.1,1.86-5.99,2.78-11.68,2.78-4.3,0-7.4-.42-9.32-1.25-1.92-.83-3.26-1.98-4.03-3.44-.77-1.46-1.15-3.93-1.15-7.4v-4.06Z"/>
  </g>
</svg>