<?xml version="1.0" encoding="UTF-8"?>
<svg id="Layer_2" data-name="Layer 2" xmlns="http://www.w3.org/2000/svg" viewBox="0 0 91.2 761.75">
  <defs>
    <style>
      .cls-1 {
        fill: none;
        stroke: #000;
        stroke-miterlimit: 10;
      }
    </style>
  </defs>
  <g id="Layer_1-2" data-name="Layer 1">
    <path class="cls-1" d="m36.55,75.27h38.61v-14.94h-38.61v-21.94c.22.66.45,1.3.72,1.9,1.39,3.11,3.45,5.72,6.19,7.82,2.73,2.1,6.14,3.64,10.22,4.61l4.39-14.54c-3.39-.73-5.98-1.91-7.76-3.53-1.78-1.62-2.67-4.02-2.67-7.2s1.1-5.81,3.31-7.62c2.21-1.81,6.29-2.71,12.24-2.71,4.8,0,8.33.76,10.57,2.27,3.02,2,4.54,4.88,4.54,8.64,0,1.66-.34,3.16-1.03,4.5-.68,1.34-1.66,2.48-2.93,3.41-.76.56-1.95,1.1-3.59,1.61l3.26,14.65c5.66-1.88,9.86-4.76,12.6-8.62,2.73-3.87,4.1-9.19,4.1-15.95,0-8.64-2.38-15.33-7.15-20.05-4.77-4.72-11.6-7.09-20.48-7.09-6.66,0-12.13,1.34-16.4,4.03-4.27,2.69-7.25,5.88-8.95,9.58-.45.99-.84,2.06-1.17,3.2V1.05H.5v720l17.63,39.5,18.42-39.5v-414c.95,2.88,2.41,5.36,4.4,7.43,3.82,3.97,8.72,5.95,14.7,5.95,5.32,0,9.8-1.6,13.44-4.8,4.52-3.98,6.77-9.86,6.77-17.65,0-6.81-1.92-12.22-5.77-16.22-3.85-4.01-8.73-6.01-14.67-6.01-6.37,0-11.52,2.37-15.45,7.1-1.5,1.83-2.64,3.93-3.43,6.29v-30.94h12.58c6.23,0,10.47.77,12.74,2.31,1.61,1.07,2.42,2.59,2.42,4.54,0,1.03-.37,2.42-1.1,4.18l10.62,4.61c1.37-2.61,2.05-5.02,2.05-7.21s-.52-3.86-1.56-5.29-2.94-2.81-5.69-4.16h6.37v-13.95h-38.44v-6.71l10.16-1.09c-.63-1.98-.95-3.52-.95-4.61,0-1.22.41-2.08,1.24-2.56.54-.32,1.63-.48,3.29-.48h13.78v8.2h10.91v-8.2h14.79l-7.65-14.94h-7.14v-5.49h-10.91v5.49h-13.68c-4.34,0-7.48.42-9.42,1.26-1.94.84-3.38,2.14-4.33,3.9-.03.06-.06.13-.09.2v-17.3h24.26c5.13,0,8.92-1.17,11.37-3.5,2.45-2.33,3.68-5.56,3.68-9.69,0-3.05-.56-5.64-1.67-7.76-1.11-2.12-2.96-4.22-5.55-6.3h6.34v-13.88h-38.44v-7.28c1.4-.66,2.58-1.1,3.52-1.31,1.04-.23,2.47-.35,4.3-.35h17.18c1.83,0,3.75-.37,5.77-1.1,2.01-.73,3.57-1.73,4.67-3,1.59-1.81,2.63-4.07,3.13-6.78.5-2.71.75-6.3.75-10.77,0-2.78-.21-5.37-.62-7.76-.42-2.39-1-4.27-1.76-5.64-1.05-1.9-2.29-3.36-3.72-4.38-1.43-1.01-3.39-1.79-5.88-2.32l-1.5,14.24c1.68.59,2.83,1.36,3.44,2.31.78,1.22,1.17,3.05,1.17,5.49,0,1.9-.37,3.23-1.1,3.99-.73.76-2.01,1.13-3.85,1.13-.73-1.86-1.32-3.61-1.78-5.27-.45-1.66-1.24-5.29-2.36-10.88-.93-4.66-2.34-7.86-4.25-9.59-1.9-1.73-4.33-2.6-7.29-2.6-3.15,0-5.8,1.2-7.95,3.61-.77.86-1.4,1.87-1.89,3.02v-14.32h53.23v-14.94h-53.23v-10.01Zm11.23,217.52c1.66-1.4,4.22-2.11,7.69-2.11s5.96.71,7.64,2.12,2.51,3.21,2.51,5.38c0,2.05-.82,3.77-2.47,5.16-1.65,1.39-4.16,2.09-7.53,2.09-3.61,0-6.24-.69-7.87-2.07-1.64-1.38-2.45-3.14-2.45-5.29s.83-3.89,2.49-5.29Zm6.99-118.12c3.54,0,5.99.56,7.36,1.68,1.37,1.12,2.05,2.59,2.05,4.39,0,1.64-.51,2.91-1.52,3.81-1.01.9-2.74,1.36-5.18,1.36h-20.93v-11.24h18.22Zm-10.16-50.59c.74-.82,1.7-1.23,2.87-1.23,1.03,0,1.94.41,2.75,1.24.78.81,1.57,2.72,2.38,5.75.56,2.22,1.21,4.36,1.94,6.41h-2.38c-1.86,0-3.36-.3-4.52-.9-1.16-.6-2.14-1.61-2.95-3.04-.81-1.43-1.21-2.97-1.21-4.63s.37-2.79,1.12-3.61Zm-7.78,7.2c.81,1.93,2.15,3.87,4.03,5.82-1.12.17-1.95.34-2.47.51-.44.14-1.06.43-1.83.85v-8c.1.27.17.55.28.81Z"/>
  </g>
</svg>