<?xml version="1.0" encoding="UTF-8"?>
<svg id="Layer_2" data-name="Layer 2" xmlns="http://www.w3.org/2000/svg" viewBox="0 0 89.96 761.2">
  <defs>
    <style>
      .cls-1 {
        fill: none;
        stroke: #000;
        stroke-miterlimit: 10;
      }
    </style>
  </defs>
  <g id="Layer_1-2" data-name="Layer 1">
    <path class="cls-1" d="m51.33,47.21c.78-.39,1.89-1.17,3.34-2.32,1.44-1.16,2.38-2.04,2.82-2.65.66-.9,1.32-2.34,1.98-4.32.56,2.47,1.27,4.41,2.12,5.83,1.34,2.22,3.09,3.97,5.26,5.24,2.16,1.27,4.73,1.91,7.71,1.91,3.42,0,6.32-.83,8.7-2.49,2.38-1.66,4.01-3.84,4.89-6.55s1.32-6.63,1.32-11.76V2.44h-52.91V.5H.5v720l17.63,39.5,18.42-39.5v-393.97c.23.44.47.88.74,1.31,1.6,2.5,4.02,4.46,7.25,5.88s6.98,2.12,11.22,2.12c6.37,0,11.26-1.55,14.67-4.65,3.41-3.1,5.11-7.02,5.11-11.75,0-2.29-.39-4.39-1.17-6.28-.78-1.89-1.95-3.58-3.52-5.07h18.6v-15.05h-52.91v-18.24h12.26c6.23,0,10.47.77,12.74,2.31,1.61,1.07,2.42,2.59,2.42,4.54,0,1.03-.37,2.42-1.1,4.18l10.62,4.61c1.37-2.61,2.05-5.02,2.05-7.21s-.52-3.86-1.56-5.29c-1.04-1.43-2.94-2.81-5.69-4.16h6.37v-13.95h-38.11v-7.57c1.26-.57,2.33-.97,3.2-1.16,1.04-.23,2.47-.35,4.3-.35h17.18c1.83,0,3.75-.37,5.77-1.1,2.01-.73,3.57-1.73,4.67-3,1.59-1.81,2.63-4.07,3.13-6.78s.75-6.3.75-10.77c0-2.78-.21-5.37-.62-7.76-.42-2.39-1-4.27-1.76-5.64-1.05-1.9-2.29-3.36-3.72-4.38-1.43-1.01-3.39-1.79-5.88-2.33l-1.5,14.25c1.68.59,2.83,1.35,3.44,2.31.78,1.22,1.17,3.05,1.17,5.49,0,1.9-.37,3.24-1.1,3.99s-2.01,1.13-3.85,1.13c-.73-1.86-1.32-3.61-1.78-5.27-.45-1.66-1.24-5.29-2.36-10.88-.93-4.66-2.34-7.86-4.25-9.59s-4.33-2.6-7.29-2.6c-3.15,0-5.8,1.2-7.95,3.61-.61.69-1.13,1.47-1.57,2.34v-20.57c.23.44.47.88.74,1.31,1.6,2.5,4.02,4.46,7.25,5.88s6.98,2.12,11.22,2.12c6.37,0,11.26-1.55,14.67-4.65,3.41-3.1,5.11-7.02,5.11-11.75,0-2.29-.39-4.39-1.17-6.28-.78-1.89-1.95-3.58-3.52-5.07h18.6v-15.05h-52.91v-9.12h38.11v-14.91h-18.71c-3.54,0-5.99-.57-7.36-1.7-1.37-1.14-2.05-2.59-2.05-4.38,0-1.64.51-2.91,1.54-3.81,1.03-.9,2.76-1.36,5.2-1.36h21.39v-14.98h-24.76c-5.1,0-8.88,1.17-11.33,3.5-.81.77-1.48,1.65-2.02,2.62v-14.87h23.94c5.1,0,8.89-1.17,11.35-3.5,2.47-2.33,3.7-5.52,3.7-9.58,0-2.74-.45-5.1-1.35-7.11-.9-2-2.4-4.02-4.5-6.04h19.78v-14.91h-52.91v-4.72l14.78-7.63Zm16.38-28.11h10.91v7.29c0,3.03-.46,5.09-1.39,6.19-.93,1.1-2.26,1.65-3.99,1.65-1.17,0-2.21-.35-3.11-1.04-.9-.7-1.46-1.59-1.68-2.69-.49-2.17-.73-3.64-.73-4.39v-7Zm-19.65,290.75c1.5-1.26,3.92-1.89,7.27-1.89,3.05,0,5.33.64,6.83,1.92,1.5,1.28,2.25,2.94,2.25,4.96,0,1.68-.72,3.12-2.16,4.3-1.44,1.18-3.7,1.78-6.77,1.78-3.49,0-5.98-.6-7.45-1.81-1.48-1.21-2.22-2.7-2.22-4.49,0-1.93.75-3.52,2.25-4.78Zm0-133.34c1.5-1.26,3.92-1.89,7.27-1.89,3.05,0,5.33.64,6.83,1.92,1.5,1.28,2.25,2.94,2.25,4.96,0,1.68-.72,3.12-2.16,4.3-1.44,1.18-3.7,1.78-6.77,1.78-3.49,0-5.98-.6-7.45-1.81-1.48-1.21-2.22-2.7-2.22-4.49,0-1.93.75-3.52,2.25-4.78ZM57.56,19.1v1.46c0,1.51-.42,2.87-1.25,4.07-.64.88-2.01,1.88-4.14,3l-15.63,8.45v-16.98h21.01Zm-16.04,287.88c-2.42,1.93-4.06,3.71-4.94,5.35-.01.02-.02.04-.03.06v-5.41h4.97Zm2.77-83c.74-.82,1.7-1.23,2.87-1.23,1.03,0,1.94.41,2.75,1.24.78.81,1.57,2.72,2.38,5.75.56,2.22,1.21,4.36,1.94,6.41h-2.38c-1.86,0-3.36-.3-4.52-.9-1.16-.6-2.14-1.61-2.95-3.04-.81-1.43-1.21-2.97-1.21-4.63s.37-2.79,1.12-3.61Zm-3.75,13.02c-1.12.17-1.95.34-2.47.51-.38.12-.89.35-1.51.68v-6.92c.81,1.9,2.13,3.81,3.98,5.73Zm.99-63.35c-2.42,1.93-4.06,3.71-4.94,5.35-.01.02-.02.04-.03.06v-5.41h4.97Zm.55-36.99h-5.52v-6.26c1.1,2.11,2.94,4.19,5.52,6.26Zm12.38-62.18c3.54,0,5.99.56,7.36,1.68,1.37,1.12,2.05,2.59,2.05,4.39,0,1.64-.51,2.91-1.52,3.81s-2.74,1.36-5.18,1.36h-20.61v-11.24h17.9Z"/>
  </g>
</svg>