<?xml version="1.0" encoding="UTF-8"?>
<svg id="Layer_2" data-name="Layer 2" xmlns="http://www.w3.org/2000/svg" viewBox="0 0 91.32 761.5">
  <defs>
    <style>
      .cls-1 {
        fill: none;
        stroke: #000;
        stroke-miterlimit: 10;
      }
    </style>
  </defs>
  <g id="Layer_1-2" data-name="Layer 1">
    <path class="cls-1" d="m36.55,38.02c.24.8.52,1.56.84,2.27,1.39,3.11,3.46,5.72,6.19,7.82,2.73,2.1,6.14,3.64,10.22,4.61l4.39-14.54c-3.39-.73-5.98-1.91-7.76-3.53s-2.67-4.02-2.67-7.2,1.1-5.81,3.31-7.62c2.21-1.81,6.29-2.71,12.24-2.71,4.8,0,8.33.76,10.57,2.27,3.02,2,4.54,4.88,4.54,8.64,0,1.66-.34,3.16-1.03,4.5s-1.66,2.48-2.93,3.41c-.76.56-1.95,1.1-3.59,1.61l3.26,14.65c5.66-1.88,9.86-4.76,12.6-8.62,2.73-3.87,4.1-9.19,4.1-15.95,0-8.64-2.38-15.33-7.16-20.05-4.77-4.72-11.59-7.09-20.48-7.09-6.66,0-12.13,1.34-16.4,4.03-4.27,2.69-7.25,5.88-8.95,9.58-.51,1.12-.94,2.34-1.29,3.66V.8H.5v720l17.63,39.5,18.42-39.5v-463.73c.2.67.42,1.31.67,1.89,1.26,2.92,2.95,5.05,5.07,6.41,2.12,1.35,4.3,2.03,6.55,2.03s4.25-.64,6.11-1.92c1.85-1.28,3.28-3.13,4.28-5.55,1-2.42,1.78-6.1,2.34-11.06.39-3.27.83-5.4,1.32-6.37.49-.98,1.21-1.46,2.16-1.46.85,0,1.58.38,2.18,1.15.6.77.9,2,.9,3.68s-.39,3.08-1.17,4.25c-.59.85-1.5,1.46-2.75,1.83l1.39,14.14c2.54-.98,4.55-2.2,6.04-3.68,1.49-1.48,2.59-3.32,3.3-5.53.71-2.21,1.06-5.63,1.06-10.27,0-4.39-.46-7.9-1.37-10.51-.91-2.61-2.3-4.66-4.15-6.15-1.85-1.49-4.06-2.23-6.62-2.23-2.34,0-4.43.69-6.26,2.07-1.83,1.38-3.13,3.08-3.9,5.09-.77,2.01-1.6,5.61-2.51,10.79-.61,3.47-1.12,5.6-1.54,6.41-.58,1.12-1.41,1.68-2.49,1.68-.95,0-1.74-.43-2.38-1.28-.85-1.1-1.28-2.65-1.28-4.65,0-1.83.38-3.3,1.13-4.39.76-1.1,2.01-1.95,3.77-2.56l-1.39-14.79c-3.74.85-6.62,2.79-8.64,5.8-.75,1.11-1.36,2.51-1.83,4.18v-26.57c.36,1.26.8,2.41,1.33,3.4,1.7,3.17,4.5,5.88,8.41,8.13l1.35-14.68c-1.17-.93-1.99-1.79-2.45-2.6-.73-1.32-1.1-2.71-1.1-4.17,0-2.32.84-4.2,2.53-5.64,1.17-1.03,2.95-1.67,5.35-1.94v29.88h1.68c5.13,0,9.29-.84,12.49-2.53,3.2-1.69,5.64-4.14,7.32-7.36s2.53-7.62,2.53-13.18c0-6.86-1.88-12.24-5.64-16.13s-8.68-5.84-14.76-5.84c-4.27,0-7.99.97-11.15,2.91-3.16,1.94-5.47,4.39-6.92,7.34-.37.75-.69,1.58-.97,2.47v-29.59l38.56,16.39v-15.04l-24.65-7.83,24.65-7.54v-15.51l-38.56,16.04v-20.9h38.44v-14.94h-38.44v-9.68h24.39c5.1,0,8.89-1.17,11.35-3.5,2.47-2.33,3.7-5.52,3.7-9.58,0-2.74-.45-5.1-1.35-7.11-.9-2-2.41-4.02-4.5-6.04h19.78v-14.91h-53.35v-21.77Zm22.56,153.97c2.32.24,4.06.82,5.24,1.72,1.88,1.42,2.82,3.31,2.82,5.68,0,2.05-.62,3.7-1.87,4.96-1.25,1.26-3.31,2.03-6.19,2.33v-14.69Zm-4.21-117.3c3.54,0,5.99.56,7.36,1.68,1.37,1.12,2.05,2.59,2.05,4.39,0,1.64-.51,2.91-1.52,3.81-1.01.9-2.74,1.36-5.18,1.36h-21.05v-11.24h18.34Z"/>
  </g>
</svg>