<?xml version="1.0" encoding="UTF-8"?>
<svg id="Layer_2" data-name="Layer 2" xmlns="http://www.w3.org/2000/svg" viewBox="0 0 89.63 761.46">
  <defs>
    <style>
      .cls-1 {
        fill: none;
        stroke: #000;
        stroke-miterlimit: 10;
      }
    </style>
  </defs>
  <g id="Layer_1-2" data-name="Layer 1">
    <path class="cls-1" d="m36.96,43.8c2.23,3.99,5.36,7.04,9.38,9.16,4.02,2.11,9.16,3.17,15.44,3.17,8.64,0,15.36-2.42,20.16-7.25,4.8-4.83,7.2-11.72,7.2-20.65s-2.44-15.52-7.32-20.4c-4.88-4.88-11.71-7.32-20.47-7.32-6.27,0-11.5,1.23-15.67,3.7-4.14,2.45-7.18,5.63-9.11,9.56V.75H.5v720l17.63,39.5,18.42-39.5V230.22h22.69c5.13,0,8.92-1.17,11.37-3.5,2.45-2.33,3.68-5.56,3.68-9.69,0-3.05-.56-5.64-1.67-7.76-1.11-2.12-2.96-4.22-5.55-6.3h6.34v-13.88h-36.87v-16.99c.79,1.41,1.72,2.71,2.83,3.86,3.82,3.97,8.72,5.95,14.7,5.95,5.32,0,9.8-1.6,13.44-4.8,4.52-3.98,6.77-9.86,6.77-17.65,0-6.81-1.92-12.22-5.77-16.22-3.85-4-8.73-6.01-14.67-6.01-6.37,0-11.52,2.37-15.45,7.1-.7.85-1.31,1.77-1.86,2.74v-15.48h39.71v-14.94h-39.71v-11.46h22.69c5.13,0,8.92-1.17,11.37-3.5,2.45-2.33,3.68-5.56,3.68-9.69,0-3.05-.56-5.64-1.67-7.76-1.11-2.12-2.96-4.22-5.55-6.3h6.34v-13.88h-36.87v-21.08c.14.27.26.55.41.81Zm12.62-23.69c2.37-2.01,6.26-3.02,11.68-3.02s9.39,1.01,11.76,3.04c2.37,2.03,3.55,4.71,3.55,8.06s-1.17,6.26-3.5,8.29c-2.33,2.04-6.02,3.06-11.08,3.06-6.01,0-10.17-.98-12.49-2.93-2.32-1.95-3.48-4.71-3.48-8.28s1.18-6.21,3.55-8.22Zm-3.37,134.18c1.66-1.4,4.22-2.11,7.69-2.11s5.96.71,7.64,2.12,2.51,3.21,2.51,5.38c0,2.05-.82,3.77-2.47,5.16-1.65,1.39-4.16,2.09-7.53,2.09-3.61,0-6.24-.69-7.87-2.07-1.64-1.38-2.45-3.14-2.45-5.29s.83-3.89,2.49-5.29Zm6.99,49.71c3.54,0,5.99.56,7.36,1.68,1.37,1.12,2.05,2.59,2.05,4.39,0,1.64-.51,2.91-1.52,3.81s-2.74,1.36-5.18,1.36h-19.36v-11.24h16.65Zm0-125.02c3.54,0,5.99.56,7.36,1.68,1.37,1.12,2.05,2.59,2.05,4.39,0,1.64-.51,2.91-1.52,3.81s-2.74,1.36-5.18,1.36h-19.36v-11.24h16.65Z"/>
  </g>
</svg>