<?xml version="1.0" encoding="UTF-8"?>
<svg id="Layer_2" data-name="Layer 2" xmlns="http://www.w3.org/2000/svg" viewBox="0 0 89.83 761.49">
  <defs>
    <style>
      .cls-1 {
        fill: none;
        stroke: #000;
        stroke-miterlimit: 10;
      }
    </style>
  </defs>
  <g id="Layer_1-2" data-name="Layer 1">
    <path class="cls-1" d="m89.33.5h-53.69v.28H.5v720l17.63,39.5,18.42-39.5V236.63h23.81c5.13,0,8.92-1.17,11.37-3.5,2.45-2.33,3.68-5.56,3.68-9.69,0-3.05-.56-5.64-1.67-7.76-1.11-2.12-2.96-4.22-5.55-6.3h6.34v-13.88h-37.98v-19.35c.94,2.37,2.24,4.45,3.94,6.22,3.82,3.97,8.72,5.95,14.7,5.95,5.32,0,9.8-1.6,13.44-4.8,4.52-3.98,6.77-9.86,6.77-17.65,0-6.81-1.92-12.22-5.77-16.22-3.85-4-8.73-6.01-14.67-6.01-6.37,0-11.52,2.37-15.45,7.1-1.23,1.5-2.22,3.18-2.97,5.04v-19.84h52.78v-14.94h-52.78v-18.02c.23.59.48,1.17.76,1.69,1.7,3.17,4.5,5.88,8.4,8.13l1.35-14.68c-1.17-.93-1.99-1.79-2.45-2.6-.73-1.32-1.1-2.71-1.1-4.17,0-2.32.84-4.2,2.53-5.64,1.17-1.03,2.95-1.67,5.35-1.94v29.88h1.68c5.13,0,9.29-.84,12.49-2.53,3.2-1.69,5.64-4.14,7.32-7.36s2.53-7.62,2.53-13.18c0-6.86-1.88-12.24-5.64-16.13-3.76-3.89-8.68-5.84-14.76-5.84-4.27,0-7.99.97-11.15,2.91-3.16,1.94-5.47,4.39-6.92,7.34-.14.28-.27.59-.39.89v-18.87h52.78v-21.8l-32.67-8.35,32.67-8.41V.5Zm-42,160.2c1.66-1.4,4.22-2.11,7.69-2.11s5.96.71,7.64,2.12,2.51,3.21,2.51,5.38c0,2.05-.82,3.77-2.47,5.16-1.65,1.39-4.16,2.09-7.53,2.09-3.61,0-6.24-.69-7.87-2.07-1.64-1.38-2.45-3.14-2.45-5.29s.83-3.89,2.49-5.29Zm11.21-76.89c2.32.24,4.06.82,5.24,1.72,1.88,1.42,2.82,3.31,2.82,5.68,0,2.05-.62,3.7-1.87,4.96-1.25,1.26-3.31,2.03-6.19,2.33v-14.69Zm-4.21,126.6c3.54,0,5.99.56,7.36,1.68,1.37,1.12,2.05,2.59,2.05,4.39,0,1.64-.51,2.91-1.52,3.81s-2.74,1.36-5.18,1.36h-20.48v-11.24h17.77Zm22.27-163.11h-40.03v-10.24l40.03,10.24Zm-40.03-23v-10.22h40.03l-40.03,10.22Z"/>
  </g>
</svg>