<?xml version="1.0" encoding="UTF-8"?>
<svg id="Layer_2" data-name="Layer 2" xmlns="http://www.w3.org/2000/svg" viewBox="0 0 90.61 761.2">
  <defs>
    <style>
      .cls-1 {
        fill: none;
        stroke: #000;
        stroke-miterlimit: 10;
      }
    </style>
  </defs>
  <g id="Layer_1-2" data-name="Layer 1">
    <path class="cls-1" d="m36.55,93.02c.19.47.4.91.62,1.33,1.7,3.17,4.5,5.88,8.4,8.13l1.35-14.68c-1.17-.93-1.99-1.79-2.45-2.6-.73-1.32-1.1-2.71-1.1-4.17,0-2.32.84-4.2,2.53-5.64,1.17-1.03,2.95-1.67,5.35-1.94v29.88h1.68c5.13,0,9.29-.84,12.49-2.53,3.2-1.69,5.64-4.14,7.32-7.36s2.53-7.62,2.53-13.18c0-6.86-1.88-12.24-5.64-16.13-3.76-3.89-8.68-5.84-14.76-5.84-4.27,0-7.99.97-11.15,2.91-3.16,1.94-5.47,4.39-6.92,7.34-.09.19-.17.39-.26.58v-28.79c.04.1.08.22.13.32,1.39,3.11,3.45,5.72,6.19,7.82,2.73,2.1,6.14,3.64,10.22,4.61l4.39-14.54c-3.39-.73-5.98-1.91-7.76-3.53-1.78-1.62-2.67-4.02-2.67-7.2s1.1-5.81,3.31-7.62c2.21-1.81,6.29-2.71,12.24-2.71,4.8,0,8.33.76,10.57,2.27,3.02,2,4.54,4.88,4.54,8.64,0,1.66-.34,3.16-1.03,4.5-.68,1.34-1.66,2.48-2.93,3.41-.76.56-1.95,1.1-3.59,1.61l3.26,14.65c5.66-1.88,9.86-4.76,12.6-8.62,2.73-3.87,4.1-9.19,4.1-15.95,0-8.64-2.38-15.33-7.15-20.05-4.77-4.72-11.6-7.09-20.48-7.09-6.66,0-12.13,1.34-16.4,4.03-4.27,2.69-7.25,5.88-8.95,9.58-.21.45-.4.93-.59,1.41V.5H.5v720l17.63,39.5,18.42-39.5V241.7c.4.69.85,1.34,1.36,1.9,1.66,1.83,4.86,3.62,9.6,5.38l41.56,15.43v-14.69l-25.89-7.45,25.89-8.02v-15.73l-38.88,16.32c-2.08-.76-3.52-1.68-4.33-2.76-.81-1.08-1.21-2.51-1.21-4.26,0-2.63.34-5.03,1.03-7.17l-9.12,1.03v-21.39h11.99c6.23,0,10.47.77,12.74,2.31,1.61,1.07,2.42,2.59,2.42,4.54,0,1.03-.37,2.42-1.1,4.18l10.62,4.61c1.37-2.61,2.05-5.02,2.05-7.21s-.52-3.86-1.56-5.29c-1.04-1.43-2.94-2.81-5.69-4.16h6.37v-13.95h-37.85v-17.29c.19.47.4.91.62,1.33,1.7,3.17,4.5,5.88,8.4,8.13l1.35-14.68c-1.17-.93-1.99-1.79-2.45-2.6-.73-1.32-1.1-2.71-1.1-4.17,0-2.32.84-4.2,2.53-5.64,1.17-1.03,2.95-1.67,5.35-1.94v29.88h1.68c5.13,0,9.29-.84,12.49-2.53,3.2-1.69,5.64-4.14,7.32-7.36s2.53-7.62,2.53-13.18c0-6.86-1.88-12.24-5.64-16.13-3.76-3.89-8.68-5.84-14.76-5.84-4.27,0-7.99.97-11.15,2.91-3.16,1.94-5.47,4.39-6.92,7.34-.09.19-.17.39-.26.58v-18.49h52.64v-14.94h-52.64v-17.66Zm21.85-19.55c2.32.24,4.06.82,5.24,1.72,1.88,1.42,2.82,3.31,2.82,5.68,0,2.05-.62,3.7-1.87,4.96-1.25,1.26-3.31,2.03-6.19,2.33v-14.69Zm0,75c2.32.24,4.06.82,5.24,1.72,1.88,1.42,2.82,3.31,2.82,5.68,0,2.05-.62,3.7-1.87,4.96-1.25,1.26-3.31,2.03-6.19,2.33v-14.69Z"/>
  </g>
</svg>