<?xml version="1.0" encoding="UTF-8"?>
<svg id="Layer_2" data-name="Layer 2" xmlns="http://www.w3.org/2000/svg" viewBox="0 0 91.48 761.41">
  <defs>
    <style>
      .cls-1 {
        fill: none;
        stroke: #000;
        stroke-miterlimit: 10;
      }
    </style>
  </defs>
  <g id="Layer_1-2" data-name="Layer 1">
    <path class="cls-1" d="m89.44,311.73c1.03-1.96,1.54-4.46,1.54-7.49,0-4.74-1.59-8.57-4.76-11.5-3.17-2.93-7.79-4.39-13.84-4.39-5.3,0-9.56,1.13-12.78,3.41-4.54,3.2-6.81,7.4-6.81,12.6,0,2.66.61,5.14,1.83,7.43.78,1.46,2.04,2.93,3.77,4.39h-5.9c-2.86,0-4.86-.53-6.01-1.59-1.15-1.06-1.72-2.67-1.72-4.82,0-1.66.38-3.04,1.14-4.14.51-.76,1.44-1.32,2.78-1.69l1.65-14.46c-.83-.05-1.49-.07-1.98-.07-3.93,0-7.07,1.46-9.41,4.38-1.02,1.27-1.81,2.99-2.39,5.18v-16.39c1.54-.74,2.81-1.22,3.81-1.45,1.04-.23,2.47-.35,4.3-.35h17.18c1.83,0,3.75-.37,5.77-1.1,2.01-.73,3.57-1.73,4.67-3,1.59-1.81,2.63-4.07,3.13-6.78s.75-6.3.75-10.77c0-2.78-.21-5.37-.62-7.76-.42-2.39-1-4.27-1.76-5.64-1.05-1.9-2.29-3.36-3.72-4.38-1.43-1.01-3.39-1.79-5.88-2.33l-1.5,14.25c1.68.59,2.83,1.35,3.44,2.31.78,1.22,1.17,3.05,1.17,5.49,0,1.9-.37,3.24-1.1,3.99s-2.01,1.13-3.85,1.13c-.73-1.86-1.32-3.61-1.78-5.27-.45-1.66-1.24-5.29-2.36-10.88-.93-4.66-2.34-7.86-4.25-9.59s-4.33-2.6-7.29-2.6c-3.15,0-5.8,1.2-7.95,3.61-.94,1.05-1.66,2.32-2.18,3.79v-23.25c.36.93.81,1.82,1.36,2.69,1.6,2.5,4.02,4.46,7.25,5.88s6.98,2.12,11.22,2.12c6.37,0,11.26-1.55,14.67-4.65,3.41-3.1,5.11-7.02,5.11-11.75,0-2.29-.39-4.39-1.17-6.28-.78-1.89-1.95-3.58-3.52-5.07h18.6v-15.05h-53.53v-7.8c1.54-.74,2.81-1.22,3.81-1.45,1.04-.23,2.47-.35,4.3-.35h17.18c1.83,0,3.75-.37,5.77-1.1,2.01-.73,3.57-1.73,4.67-3,1.59-1.81,2.63-4.07,3.13-6.78s.75-6.3.75-10.77c0-2.78-.21-5.37-.62-7.76-.42-2.39-1-4.27-1.76-5.64-1.05-1.9-2.29-3.36-3.72-4.38-1.43-1.01-3.39-1.79-5.88-2.33l-1.5,14.25c1.68.59,2.83,1.35,3.44,2.31.78,1.22,1.17,3.05,1.17,5.49,0,1.9-.37,3.24-1.1,3.99s-2.01,1.13-3.85,1.13c-.73-1.86-1.32-3.61-1.78-5.27-.45-1.66-1.24-5.29-2.36-10.88-.93-4.66-2.34-7.86-4.25-9.59s-4.33-2.6-7.29-2.6c-3.15,0-5.8,1.2-7.95,3.61-.94,1.05-1.66,2.32-2.18,3.79v-12.85c.06.29.11.58.17.88l10.29-1.1c-.63-1.98-.95-3.52-.95-4.61,0-1.22.41-2.08,1.24-2.56.54-.32,1.63-.48,3.29-.48h13.78v8.2h10.91v-8.2h14.79l-7.65-14.94h-7.14v-5.49h-10.91v5.49h-13.68c-4.34,0-7.48.42-9.42,1.26-1.94.84-3.38,2.14-4.33,3.9-.14.26-.27.55-.39.85v-17.95h38.73v-14.91h-18.71c-3.54,0-5.99-.57-7.36-1.7-1.37-1.14-2.05-2.59-2.05-4.38,0-1.64.51-2.91,1.54-3.81,1.03-.9,2.76-1.36,5.2-1.36h21.39v-14.98h-24.76c-5.1,0-8.88,1.17-11.33,3.5-1.16,1.1-2.03,2.4-2.64,3.89v-10.22l15.4-7.95c.78-.39,1.89-1.17,3.34-2.32,1.44-1.16,2.38-2.04,2.82-2.65.66-.9,1.32-2.34,1.98-4.32.56,2.47,1.27,4.41,2.12,5.83,1.34,2.22,3.09,3.97,5.26,5.24,2.16,1.27,4.73,1.91,7.71,1.91,3.42,0,6.32-.83,8.7-2.49,2.38-1.66,4.01-3.84,4.89-6.55s1.32-6.63,1.32-11.76V.5h-53.69v.2H.5v720l17.63,39.5,18.42-39.5v-337.17c1.54-.74,2.81-1.22,3.81-1.45,1.04-.23,2.47-.35,4.3-.35h17.18c1.83,0,3.75-.37,5.77-1.1,2.01-.73,3.57-1.73,4.67-3,1.59-1.81,2.63-4.07,3.13-6.78s.75-6.3.75-10.77c0-2.78-.21-5.37-.62-7.76-.42-2.39-1-4.27-1.76-5.64-1.05-1.9-2.29-3.36-3.72-4.38-1.43-1.01-3.39-1.79-5.88-2.33l-1.5,14.25c1.68.59,2.83,1.35,3.44,2.31.78,1.22,1.17,3.05,1.17,5.49,0,1.9-.37,3.24-1.1,3.99s-2.01,1.13-3.85,1.13c-.73-1.86-1.32-3.61-1.78-5.27-.45-1.66-1.24-5.29-2.36-10.88-.93-4.66-2.34-7.86-4.25-9.59s-4.33-2.6-7.29-2.6c-3.15,0-5.8,1.2-7.95,3.61-.94,1.05-1.66,2.32-2.18,3.79v-26.47c.62,2.3,1.52,4.24,2.75,5.79,1.37,1.72,3.16,3.1,5.36,4.14,2.21,1.04,4.54,1.56,6.98,1.56l1.72-.04h36.73v-13.95h-5.75c2.37-1.71,4.06-3.55,5.09-5.51Zm-40.76-105.01c1.5-1.26,3.92-1.89,7.27-1.89,3.05,0,5.33.64,6.83,1.92,1.5,1.28,2.25,2.94,2.25,4.96,0,1.68-.72,3.12-2.16,4.3-1.44,1.18-3.7,1.78-6.77,1.78-3.49,0-5.98-.6-7.45-1.81-1.48-1.21-2.22-2.7-2.22-4.49,0-1.93.75-3.52,2.25-4.78ZM68.32,17.16h10.91v7.29c0,3.03-.46,5.09-1.39,6.19-.93,1.1-2.26,1.65-3.99,1.65-1.17,0-2.21-.35-3.11-1.04-.9-.7-1.46-1.59-1.68-2.69-.49-2.17-.73-3.64-.73-4.39v-7Zm-23.42,236.87c.74-.82,1.7-1.23,2.87-1.23,1.03,0,1.94.41,2.75,1.24.78.81,1.57,2.72,2.38,5.75.56,2.22,1.21,4.36,1.94,6.41h-2.38c-1.86,0-3.36-.3-4.52-.9-1.16-.6-2.14-1.61-2.95-3.04-.81-1.43-1.21-2.97-1.21-4.63s.37-2.79,1.12-3.61Zm-7.78,7.2c.81,1.93,2.15,3.87,4.03,5.82-1.12.17-1.95.34-2.47.51-.5.16-1.21.5-2.13,1.01v-9.02c.17.57.35,1.14.57,1.67Zm5.02-57.38c-2.42,1.93-4.06,3.71-4.94,5.35-.25.48-.45.97-.65,1.47v-6.81h5.59Zm2.77-50.29c.74-.82,1.7-1.23,2.87-1.23,1.03,0,1.94.41,2.75,1.24.78.81,1.57,2.72,2.38,5.75.56,2.22,1.21,4.36,1.94,6.41h-2.38c-1.86,0-3.36-.3-4.52-.9-1.16-.6-2.14-1.61-2.95-3.04-.81-1.43-1.21-2.97-1.21-4.63s.37-2.79,1.12-3.61Zm-7.78,7.2c.81,1.93,2.15,3.87,4.03,5.82-1.12.17-1.95.34-2.47.51-.5.16-1.21.5-2.13,1.01v-9.02c.17.57.35,1.14.57,1.67Zm.04-83.76c1.1,2.11,2.94,4.21,5.53,6.28h-6.14v-7.7c.18.49.38.97.61,1.42Zm21.02-58.35c0,1.51-.42,2.87-1.25,4.07-.64.88-2.01,1.88-4.14,3l-16.25,8.78v-17.31h21.63v1.46Zm-13.27,336.36c.74-.82,1.7-1.23,2.87-1.23,1.03,0,1.94.41,2.75,1.24.78.81,1.57,2.72,2.38,5.75.56,2.22,1.21,4.36,1.94,6.41h-2.38c-1.86,0-3.36-.3-4.52-.9-1.16-.6-2.14-1.61-2.95-3.04-.81-1.43-1.21-2.97-1.21-4.63s.37-2.79,1.12-3.61Zm-7.78,7.2c.81,1.93,2.15,3.87,4.03,5.82-1.12.17-1.95.34-2.47.51-.5.16-1.21.5-2.13,1.01v-9.02c.17.57.35,1.14.57,1.67Zm40.8-47.87c-1.5,1.32-3.67,1.98-6.5,1.98s-4.95-.63-6.35-1.89c-1.4-1.26-2.11-2.81-2.11-4.67,0-1.95.68-3.53,2.03-4.72,1.35-1.2,3.44-1.79,6.24-1.79,3.2,0,5.49.57,6.87,1.7,1.38,1.14,2.07,2.66,2.07,4.56s-.75,3.52-2.25,4.83Z"/>
  </g>
</svg>