<?xml version="1.0" encoding="UTF-8"?>
<svg id="Layer_2" data-name="Layer 2" xmlns="http://www.w3.org/2000/svg" viewBox="0 0 90.42 761.2">
  <defs>
    <style>
      .cls-1 {
        fill: none;
        stroke: #000;
        stroke-miterlimit: 10;
      }
    </style>
  </defs>
  <g id="Layer_1-2" data-name="Layer 1">
    <path class="cls-1" d="m89.61,1.51h-53.06V.5H.5v720l17.63,39.5,18.42-39.5V173.19l9.99-1.07c-.63-1.98-.95-3.52-.95-4.61,0-1.22.41-2.08,1.24-2.56.54-.32,1.63-.48,3.29-.48h13.78v8.2h10.91v-8.2h14.79l-7.65-14.94h-7.14v-5.49h-10.91v5.49h-13.68c-4.34,0-7.48.42-9.42,1.26-1.89.82-3.3,2.08-4.25,3.77v-16.97h24.09c5.13,0,8.92-1.17,11.37-3.5,2.45-2.33,3.68-5.56,3.68-9.69,0-3.05-.56-5.64-1.67-7.76-1.11-2.12-2.96-4.22-5.55-6.3h6.34v-13.88h-38.26v-9.52h38.26v-14.91h-38.26v-10.14h53.06v-21.8l-32.67-8.35,32.67-8.41V1.51Zm-35.01,109.86c3.54,0,5.99.56,7.36,1.68,1.37,1.12,2.05,2.59,2.05,4.39,0,1.64-.51,2.91-1.52,3.81-1.01.9-2.74,1.36-5.18,1.36h-20.76v-11.24h18.05Zm22.27-63.06h-40.31v-10.31l40.31,10.31Zm-40.31-22.93v-10.29h40.31l-40.31,10.29Z"/>
  </g>
</svg>