<?xml version="1.0" encoding="UTF-8"?>
<svg id="Layer_2" data-name="Layer 2" xmlns="http://www.w3.org/2000/svg" viewBox="0 0 90.85 761.2">
  <defs>
    <style>
      .cls-1 {
        fill: none;
        stroke: #000;
        stroke-miterlimit: 10;
      }
    </style>
  </defs>
  <g id="Layer_1-2" data-name="Layer 1">
    <path class="cls-1" d="m74.34,223.13c.78-1.89,1.17-4,1.17-6.32,0-4.76-1.71-8.69-5.13-11.77-3.42-3.09-8.35-4.63-14.79-4.63-5.76,0-10.66,1.4-14.69,4.19-1.91,1.33-3.35,2.94-4.36,4.83v-27.19h12.23c6.23,0,10.47.77,12.74,2.31,1.61,1.07,2.42,2.59,2.42,4.54,0,1.03-.37,2.42-1.1,4.18l10.62,4.61c1.37-2.61,2.05-5.02,2.05-7.21s-.52-3.86-1.56-5.29c-1.04-1.43-2.94-2.81-5.69-4.16h6.37v-13.95h-38.08v-9.19h38.08v-14.91h-18.71c-3.54,0-5.99-.57-7.36-1.7-1.37-1.14-2.05-2.59-2.05-4.38,0-1.64.51-2.91,1.54-3.81,1.03-.9,2.76-1.36,5.2-1.36h21.39v-14.98h-24.76c-5.1,0-8.88,1.17-11.33,3.5-.8.76-1.46,1.62-1.99,2.57v-25.52c.95,2.47,2.29,4.64,4.05,6.47,3.82,3.97,8.72,5.95,14.7,5.95,5.32,0,9.8-1.6,13.44-4.8,4.52-3.98,6.77-9.86,6.77-17.65,0-6.81-1.92-12.22-5.77-16.22-3.85-4-8.73-6.01-14.67-6.01-6.37,0-11.52,2.37-15.45,7.1-1.29,1.57-2.31,3.35-3.07,5.32v-32.79c.03.1.06.21.09.31,1.21,3.77,3.48,8.11,6.83,13.02h22.89v-25.63h-11.17v11.1h-5.05c-1.29-2.17-2.21-4.1-2.75-5.79-.54-1.68-.81-3.46-.81-5.31,0-3.91,1.25-6.95,3.74-9.14s6.64-3.28,12.45-3.28c5.47,0,9.47,1.08,11.99,3.24,2.53,2.16,3.79,5.06,3.79,8.7,0,2.44-.54,4.45-1.61,6.02-1.07,1.57-2.62,2.69-4.65,3.35l2.86,16c3.47-.98,6.33-2.43,8.59-4.38,2.26-1.94,3.92-4.38,5-7.32,1.07-2.94,1.61-7.38,1.61-13.31s-.87-11.05-2.6-14.69c-2.25-4.66-5.54-8.2-9.87-10.62-4.33-2.42-9.43-3.63-15.29-3.63s-10.5,1.1-14.79,3.31c-4.3,2.21-7.53,5.32-9.7,9.34-.6,1.1-1.1,2.3-1.54,3.59V.5H.5v720l17.63,39.5,18.42-39.5V243.22h52.88v-15.05h-18.6c1.56-1.46,2.73-3.14,3.52-5.04Zm-26.92-140.84c1.66-1.4,4.22-2.11,7.69-2.11s5.96.71,7.64,2.12,2.51,3.21,2.51,5.38c0,2.05-.82,3.77-2.47,5.16-1.65,1.39-4.16,2.09-7.53,2.09-3.61,0-6.24-.69-7.87-2.07-1.64-1.38-2.45-3.14-2.45-5.29s.83-3.89,2.49-5.29Zm-5.38,61.87h-5.49v-6.21c1.1,2.09,2.93,4.16,5.49,6.21Zm-5.49,85.11v-5.34c.85,1.61,2.5,3.39,4.94,5.34h-4.94Zm25.58-2.93c-1.5,1.29-3.78,1.94-6.83,1.94-3.37,0-5.8-.64-7.29-1.9-1.49-1.27-2.23-2.86-2.23-4.76,0-1.78.74-3.28,2.22-4.49,1.48-1.21,3.8-1.81,6.98-1.81,3.39,0,5.81.59,7.25,1.76,1.44,1.17,2.16,2.62,2.16,4.36,0,1.98-.75,3.61-2.25,4.91Z"/>
  </g>
</svg>