<?xml version="1.0" encoding="UTF-8"?>
<svg id="Layer_2" data-name="Layer 2" xmlns="http://www.w3.org/2000/svg" viewBox="0 0 91.06 761.87">
  <defs>
    <style>
      .cls-1 {
        fill: none;
        stroke: #000;
        stroke-miterlimit: 10;
      }
    </style>
  </defs>
  <g id="Layer_1-2" data-name="Layer 1">
    <path class="cls-1" d="m88.23,78.29c1.15-2.2,1.72-4.6,1.72-7.21,0-3.03-.8-5.8-2.4-8.31-1.6-2.51-4.02-4.48-7.27-5.9s-6.99-2.12-11.24-2.12c-6.35,0-11.22,1.55-14.63,4.65-3.41,3.1-5.11,7.02-5.11,11.76,0,2.32.39,4.42,1.17,6.32.78,1.89,1.94,3.57,3.48,5.04h-17.4v-46.08c.23.69.47,1.36.74,1.99,1.5,3.42,3.7,6.08,6.61,7.98,2.91,1.9,6.08,2.86,9.52,2.86,2.93,0,5.58-.71,7.95-2.14,2.37-1.43,4.35-3.71,5.95-6.85,1.6-3.14,3.18-8.33,4.74-15.58.61-2.93,1.27-4.79,1.98-5.57.68-.81,1.45-1.21,2.31-1.21,1.17,0,2.17.49,2.98,1.46.82.98,1.23,2.43,1.23,4.36,0,2.34-.55,4.18-1.65,5.51-1.1,1.33-2.86,2.2-5.27,2.62l.92,15.64c5.57-.68,9.62-2.83,12.18-6.43,2.55-3.6,3.83-8.83,3.83-15.69,0-5.59-.7-9.99-2.11-13.2-1.4-3.21-3.33-5.62-5.79-7.21-2.45-1.6-5.06-2.4-7.82-2.4-4.2,0-7.65,1.56-10.36,4.69-2.71,3.1-4.88,8.29-6.52,15.56-.98,4.44-2.01,7.28-3.11,8.5s-2.34,1.83-3.74,1.83c-1.46,0-2.75-.64-3.86-1.92-1.11-1.28-1.67-3.11-1.67-5.48,0-3.17,1.09-5.62,3.26-7.32,1.34-1.05,3.3-1.75,5.86-2.09l-.99-15.78c-5.42.46-9.89,2.45-13.4,5.97-1.64,1.64-2.89,3.9-3.77,6.75V1.16H.5v720l17.63,39.5,18.42-39.5v-427.54h24.13c5.1,0,8.89-1.17,11.35-3.5,2.47-2.33,3.7-5.52,3.7-9.58,0-2.74-.45-5.1-1.35-7.11-.9-2-2.41-4.02-4.5-6.04h19.78v-14.91h-53.09v-16.61c.13.37.27.73.41,1.07,1.26,2.92,2.95,5.05,5.07,6.41,2.12,1.35,4.3,2.03,6.55,2.03s4.25-.64,6.11-1.92c1.85-1.28,3.28-3.13,4.28-5.55,1-2.42,1.78-6.1,2.34-11.06.39-3.27.83-5.4,1.32-6.37.49-.98,1.21-1.46,2.16-1.46.85,0,1.58.38,2.18,1.15.6.77.9,2,.9,3.68s-.39,3.08-1.17,4.25c-.59.85-1.5,1.46-2.75,1.83l1.39,14.14c2.54-.98,4.55-2.2,6.04-3.68,1.49-1.48,2.59-3.32,3.3-5.53.71-2.21,1.06-5.63,1.06-10.27,0-4.39-.46-7.9-1.37-10.51-.91-2.61-2.3-4.66-4.15-6.15-1.85-1.49-4.06-2.23-6.62-2.23-2.34,0-4.43.69-6.26,2.07-1.83,1.38-3.13,3.08-3.9,5.09-.77,2.01-1.6,5.61-2.51,10.79-.61,3.47-1.12,5.6-1.54,6.41-.58,1.12-1.41,1.68-2.49,1.68-.95,0-1.74-.43-2.38-1.28-.85-1.1-1.28-2.65-1.28-4.65,0-1.83.38-3.3,1.13-4.39.76-1.1,2.01-1.95,3.77-2.56l-1.39-14.79c-3.74.85-6.62,2.79-8.64,5.8-.62.93-1.14,2.07-1.57,3.38v-13.89c1.34-.62,2.48-1.04,3.38-1.24,1.04-.23,2.47-.35,4.3-.35h17.18c1.83,0,3.75-.37,5.77-1.1,2.01-.73,3.57-1.73,4.67-3,1.59-1.81,2.63-4.07,3.13-6.78.5-2.71.75-6.3.75-10.77,0-2.78-.21-5.37-.62-7.76-.42-2.39-1-4.27-1.76-5.64-1.05-1.9-2.29-3.36-3.72-4.38-1.43-1.01-3.39-1.79-5.88-2.33l-1.5,14.25c1.68.59,2.83,1.35,3.44,2.31.78,1.22,1.17,3.05,1.17,5.49,0,1.9-.37,3.24-1.1,3.99s-2.01,1.13-3.84,1.13c-.73-1.86-1.33-3.61-1.78-5.27-.45-1.66-1.24-5.29-2.36-10.88-.93-4.66-2.34-7.86-4.25-9.59s-4.33-2.6-7.29-2.6c-3.15,0-5.8,1.2-7.95,3.61-.7.79-1.28,1.7-1.75,2.73v-13.55h38.3v-14.91h-18.71c-3.54,0-5.99-.57-7.36-1.7-1.37-1.14-2.05-2.59-2.05-4.38,0-1.64.51-2.91,1.54-3.81,1.03-.9,2.76-1.36,5.2-1.36h21.39v-14.98h-24.76c-5.1,0-8.88,1.17-11.33,3.5-.9.86-1.64,1.84-2.21,2.94v-15.37h52.52v-13.95h-5.75c2.42-1.93,4.05-3.7,4.91-5.31Zm-33.6,189.11c3.54,0,5.99.56,7.36,1.68,1.37,1.12,2.05,2.59,2.05,4.39,0,1.64-.51,2.91-1.52,3.81-1.01.9-2.74,1.36-5.18,1.36h-20.79v-11.24h18.08Zm-10.16-96.41c.74-.82,1.7-1.23,2.88-1.23,1.03,0,1.94.41,2.75,1.24.78.81,1.58,2.72,2.38,5.75.56,2.22,1.21,4.36,1.94,6.41h-2.38c-1.86,0-3.36-.3-4.52-.9-1.16-.6-2.14-1.61-2.95-3.04-.81-1.43-1.21-2.97-1.21-4.63s.37-2.79,1.12-3.61Zm-7.78,7.2c.81,1.93,2.15,3.87,4.03,5.82-1.12.17-1.95.34-2.47.51-.42.14-.98.4-1.7.78v-7.52c.05.13.09.28.14.41Zm.04-50.77c1.1,2.11,2.94,4.21,5.53,6.28h-5.71v-6.69c.06.13.11.28.18.41Zm40.04-46.69c-1.49,1.26-3.91,1.89-7.25,1.89-3.08,0-5.36-.64-6.85-1.92-1.49-1.28-2.23-2.92-2.23-4.93,0-1.71.71-3.16,2.14-4.34,1.43-1.18,3.69-1.78,6.79-1.78,3.47,0,5.94.6,7.42,1.81,1.48,1.21,2.22,2.7,2.22,4.49,0,1.93-.75,3.52-2.23,4.78Z"/>
  </g>
</svg>