<?xml version="1.0" encoding="UTF-8"?>
<svg id="Layer_2" data-name="Layer 2" xmlns="http://www.w3.org/2000/svg" viewBox="0 0 90.6 762.06">
  <defs>
    <style>
      .cls-1 {
        fill: none;
        stroke: #000;
        stroke-miterlimit: 10;
      }
    </style>
  </defs>
  <g id="Layer_1-2" data-name="Layer 1">
    <path class="cls-1" d="m36.55,275.96h23.38c5.27,0,9.15-1.17,11.63-3.51,2.48-2.34,3.72-5.6,3.72-9.76,0-2.83-.46-5.21-1.37-7.13-.92-1.93-2.64-4.06-5.18-6.4,2.17-1.15,3.81-2.63,4.91-4.44s1.65-4.27,1.65-7.37c0-2.88-.5-5.35-1.5-7.39s-2.69-4.06-5.05-6.07h5.68v-13.92h-37.84v-9.16h37.84v-14.91h-18.71c-3.54,0-5.99-.57-7.36-1.7-1.37-1.14-2.05-2.59-2.05-4.38,0-1.64.51-2.91,1.54-3.81,1.03-.9,2.76-1.36,5.2-1.36h21.39v-14.98h-24.76c-5.1,0-8.88,1.17-11.33,3.5-.68.65-1.26,1.37-1.75,2.16v-22.76c1.19,2.64,2.81,4.84,4.9,6.56,2.16,1.78,4.72,3.06,7.67,3.84l1.61-14.17c-2.08-.66-3.61-1.65-4.61-2.98-1-1.33-1.5-2.97-1.5-4.93,0-2.34.83-4.27,2.49-5.79,1.66-1.51,4.08-2.27,7.27-2.27,3.58,0,6.26.76,8.02,2.29,1.77,1.53,2.65,3.52,2.65,5.99,0,1.95-.42,3.51-1.26,4.67-.84,1.16-2.09,1.96-3.75,2.4l1.87,14.03c4.37-1.34,7.69-3.68,9.96-7.01,2.27-3.33,3.41-8.17,3.41-14.52,0-4.54-.6-8.26-1.79-11.17-.76-1.83-1.91-3.61-3.46-5.35s-3.3-3.1-5.25-4.1c-2.66-1.37-5.99-2.05-9.99-2.05s-6.9.56-9.22,1.68-4.34,2.67-6.06,4.65c-1.23,1.42-2.21,3.04-2.96,4.86v-18.44h37.84v-14.91h-18.71c-3.54,0-5.99-.57-7.36-1.7-1.37-1.14-2.05-2.59-2.05-4.38,0-1.64.51-2.91,1.54-3.81,1.03-.9,2.76-1.36,5.2-1.36h21.39v-14.98h-24.76c-5.1,0-8.88,1.17-11.33,3.5-.68.65-1.26,1.37-1.75,2.16v-25.32c.04.1.08.21.12.3,1.39,3.11,3.45,5.72,6.19,7.82,2.73,2.1,6.14,3.64,10.22,4.61l4.39-14.54c-3.39-.73-5.98-1.91-7.76-3.53-1.78-1.62-2.67-4.02-2.67-7.2s1.1-5.81,3.31-7.62c2.21-1.81,6.29-2.71,12.24-2.71,4.8,0,8.33.76,10.57,2.27,3.02,2,4.54,4.88,4.54,8.64,0,1.66-.34,3.16-1.03,4.5-.68,1.34-1.66,2.48-2.93,3.41-.76.56-1.95,1.1-3.59,1.61l3.26,14.65c5.66-1.88,9.86-4.76,12.6-8.62s4.1-9.19,4.1-15.95c0-8.64-2.38-15.33-7.15-20.05-4.77-4.72-11.6-7.09-20.48-7.09-6.66,0-12.13,1.34-16.4,4.03s-7.25,5.88-8.95,9.58c-.21.45-.4.92-.58,1.4V1.36H.5v720l17.63,39.5,18.42-39.5v-321.32h11.99c6.23,0,10.47.77,12.74,2.31,1.61,1.07,2.42,2.59,2.42,4.54,0,1.03-.37,2.42-1.1,4.18l10.62,4.61c1.37-2.61,2.05-5.02,2.05-7.21s-.52-3.86-1.56-5.29c-1.04-1.43-2.94-2.81-5.69-4.16h6.37v-13.95h-37.84v-17.28c.19.46.4.9.62,1.31,1.7,3.17,4.5,5.88,8.4,8.13l1.36-14.68c-1.17-.93-1.99-1.79-2.45-2.6-.73-1.32-1.1-2.71-1.1-4.17,0-2.32.84-4.2,2.53-5.64,1.17-1.03,2.95-1.67,5.35-1.94v29.88h1.68c5.13,0,9.29-.84,12.49-2.53,3.2-1.69,5.64-4.14,7.32-7.36s2.53-7.62,2.53-13.18c0-6.86-1.88-12.24-5.64-16.13-3.76-3.89-8.68-5.84-14.76-5.84-4.27,0-7.99.97-11.15,2.91-3.16,1.94-5.47,4.39-6.92,7.34-.09.18-.17.38-.25.57v-24.9c.15.27.3.54.47.8,1.6,2.5,4.02,4.46,7.25,5.88,3.23,1.42,6.98,2.12,11.22,2.12,6.37,0,11.26-1.55,14.67-4.65,3.41-3.1,5.11-7.02,5.11-11.75,0-2.29-.39-4.39-1.17-6.28-.78-1.89-1.95-3.58-3.52-5.07h18.6v-15.05h-52.64v-8.97Zm21.84,72.25c2.32.24,4.07.82,5.24,1.72,1.88,1.42,2.82,3.31,2.82,5.68,0,2.05-.62,3.7-1.87,4.96-1.25,1.26-3.31,2.03-6.19,2.33v-14.69Zm-10.6-46.45c1.5-1.26,3.92-1.89,7.27-1.89,3.05,0,5.33.64,6.83,1.92,1.5,1.28,2.25,2.94,2.25,4.96,0,1.68-.72,3.12-2.16,4.3-1.44,1.18-3.7,1.78-6.77,1.78-3.49,0-5.98-.6-7.45-1.81-1.48-1.21-2.22-2.7-2.22-4.49,0-1.93.75-3.52,2.25-4.78Zm13.79-41.76c-.86.68-2.16,1.02-3.92,1.02h-21.11v-10.58h19.02c2.81,0,4.85.54,6.12,1.61,1.27,1.07,1.9,2.48,1.9,4.23,0,1.48-.67,2.72-2.01,3.72Zm-6.23-35.09c2.95,0,5.08.55,6.37,1.65,1.29,1.1,1.94,2.51,1.94,4.23,0,1.05-.3,1.97-.9,2.76-.6.78-1.39,1.33-2.36,1.65-.61.2-1.77.29-3.48.29h-20.37v-10.58h18.8Zm-13.55-38.01h-5.25v-5.78c1.12,1.94,2.87,3.87,5.25,5.78Zm0-100.05h-5.25v-5.78c1.12,1.94,2.87,3.87,5.25,5.78Zm-.55,212.04c-2.22,1.77-3.78,3.41-4.7,4.93v-4.93h4.7Z"/>
  </g>
</svg>