<?xml version="1.0" encoding="UTF-8"?>
<svg id="Layer_2" data-name="Layer 2" xmlns="http://www.w3.org/2000/svg" viewBox="0 0 90.95 761.2">
  <defs>
    <style>
      .cls-1 {
        fill: none;
        stroke: #000;
        stroke-miterlimit: 10;
      }
    </style>
  </defs>
  <g id="Layer_1-2" data-name="Layer 1">
    <g>
      <path class="cls-1" d="m36.55,129.4h12.33c6.23,0,10.47.77,12.74,2.31,1.61,1.07,2.42,2.59,2.42,4.54,0,1.03-.37,2.42-1.1,4.18l10.62,4.61c1.37-2.61,2.05-5.02,2.05-7.21s-.52-3.86-1.56-5.29c-1.04-1.43-2.94-2.81-5.69-4.16h6.37v-13.95h-38.19v-7.54c1.29-.59,2.39-1,3.27-1.19,1.04-.23,2.47-.35,4.3-.35h17.18c1.83,0,3.75-.37,5.77-1.1,2.01-.73,3.57-1.73,4.67-3,1.59-1.81,2.63-4.07,3.13-6.78s.75-6.3.75-10.77c0-2.78-.21-5.37-.62-7.76-.42-2.39-1-4.27-1.76-5.64-1.05-1.9-2.29-3.36-3.72-4.38-1.43-1.01-3.39-1.79-5.88-2.33l-1.5,14.25c1.68.59,2.83,1.35,3.44,2.31.78,1.22,1.17,3.05,1.17,5.49,0,1.9-.37,3.24-1.1,3.99s-2.01,1.13-3.85,1.13c-.73-1.86-1.32-3.61-1.78-5.27-.45-1.66-1.24-5.29-2.36-10.88-.93-4.66-2.34-7.86-4.25-9.59s-4.33-2.6-7.29-2.6c-3.15,0-5.8,1.2-7.95,3.61-.65.72-1.18,1.56-1.64,2.49v-26.8c.06.22.12.44.19.65,1.21,3.77,3.48,8.11,6.83,13.02h22.89v-25.63h-11.17v11.1h-5.05c-1.29-2.17-2.21-4.1-2.75-5.79-.54-1.68-.81-3.46-.81-5.31,0-3.91,1.25-6.95,3.74-9.14s6.64-3.28,12.45-3.28c5.47,0,9.47,1.08,11.99,3.24,2.53,2.16,3.79,5.06,3.79,8.7,0,2.44-.54,4.45-1.61,6.02-1.07,1.57-2.62,2.69-4.65,3.35l2.86,16c3.47-.98,6.33-2.43,8.59-4.38,2.26-1.94,3.92-4.38,5-7.32,1.07-2.94,1.61-7.38,1.61-13.31s-.87-11.05-2.6-14.69c-2.25-4.66-5.54-8.2-9.87-10.62-4.33-2.42-9.43-3.63-15.29-3.63s-10.5,1.1-14.79,3.31c-4.3,2.21-7.53,5.32-9.7,9.34-.65,1.19-1.18,2.5-1.64,3.9V.5H.5v720l17.63,39.5,18.42-39.5V231.98c.07.18.13.36.21.53,1.2,2.77,2.87,5.05,5.04,6.83,2.16,1.78,4.72,3.06,7.67,3.84l1.61-14.17c-2.08-.66-3.61-1.65-4.61-2.98-1-1.33-1.5-2.97-1.5-4.93,0-2.34.83-4.27,2.49-5.79,1.66-1.51,4.08-2.27,7.27-2.27,3.58,0,6.26.76,8.02,2.29s2.65,3.52,2.65,5.99c0,1.95-.42,3.51-1.26,4.67-.84,1.16-2.09,1.96-3.75,2.4l1.87,14.03c4.37-1.34,7.69-3.68,9.96-7.01,2.27-3.33,3.41-8.17,3.41-14.52,0-4.54-.6-8.26-1.79-11.17-.76-1.83-1.91-3.61-3.46-5.35s-3.3-3.1-5.25-4.1c-2.66-1.37-5.99-2.05-9.99-2.05s-6.9.56-9.22,1.68-4.34,2.67-6.06,4.65c-1.44,1.66-2.53,3.6-3.3,5.79v-19.85h38.19v-14.91h-38.19v-10.07h52.98v-14.94h-52.98v-21.17Zm7.81-50.81c.74-.82,1.7-1.23,2.87-1.23,1.03,0,1.94.41,2.75,1.24.78.81,1.57,2.72,2.38,5.75.56,2.22,1.21,4.36,1.94,6.41h-2.38c-1.86,0-3.36-.3-4.52-.9-1.16-.6-2.14-1.61-2.95-3.04-.81-1.43-1.21-2.97-1.21-4.63s.37-2.79,1.12-3.61Zm-7.78,7.2c.81,1.93,2.15,3.87,4.03,5.82-1.12.17-1.95.34-2.47.51-.39.13-.92.37-1.58.71v-7.13s.02.05.03.08Z"/>
      <rect class="cls-1" x="79.39" y="175.58" width="10.14" height="14.91"/>
    </g>
  </g>
</svg>