<?xml version="1.0" encoding="UTF-8"?>
<svg id="Layer_2" data-name="Layer 2" xmlns="http://www.w3.org/2000/svg" viewBox="0 0 90.37 761.73">
  <defs>
    <style>
      .cls-1 {
        fill: none;
        stroke: #000;
        stroke-miterlimit: 10;
      }
    </style>
  </defs>
  <g id="Layer_1-2" data-name="Layer 1">
    <g>
      <path class="cls-1" d="m89.55,39v-18.1L35.86.72v.3H.5v720l17.63,39.5,18.42-39.5v-334.1c.29.82.61,1.59.98,2.28,1.7,3.17,4.5,5.88,8.41,8.13l1.35-14.68c-1.17-.93-1.99-1.79-2.45-2.6-.73-1.32-1.1-2.71-1.1-4.17,0-2.32.84-4.2,2.53-5.64,1.17-1.03,2.95-1.67,5.35-1.94v29.88h1.68c5.13,0,9.29-.84,12.49-2.53,3.2-1.69,5.64-4.14,7.32-7.36,1.68-3.22,2.53-7.62,2.53-13.18,0-6.86-1.88-12.24-5.64-16.13s-8.68-5.84-14.76-5.84c-4.27,0-7.99.97-11.15,2.91-3.16,1.94-5.47,4.39-6.92,7.34-.22.46-.42.95-.61,1.45v-12.18l24.58-14.36,13.62,13.95v-18.35l-12.92-11.13h27.71v-15.23h-53v-19.89c.95,2.6,2.33,4.86,4.17,6.77,3.82,3.97,8.72,5.95,14.7,5.95,5.32,0,9.8-1.6,13.44-4.8,4.52-3.98,6.77-9.86,6.77-17.65,0-6.81-1.92-12.22-5.77-16.22-3.85-4-8.73-6.01-14.67-6.01-6.37,0-11.52,2.37-15.45,7.1-1.36,1.66-2.42,3.55-3.2,5.65v-19.83h24.03c5.1,0,8.89-1.17,11.35-3.5,2.47-2.33,3.7-5.52,3.7-9.58,0-2.74-.45-5.1-1.35-7.11-.9-2-2.41-4.02-4.5-6.04h19.78v-14.91h-53v-16.83c.08.2.15.4.23.59,1.2,2.77,2.87,5.05,5.04,6.83,2.16,1.78,4.72,3.06,7.67,3.84l1.61-14.17c-2.08-.66-3.61-1.65-4.61-2.98s-1.5-2.97-1.5-4.93c0-2.34.83-4.27,2.49-5.79,1.66-1.51,4.08-2.27,7.27-2.27,3.58,0,6.26.76,8.02,2.29,1.77,1.53,2.65,3.52,2.65,5.99,0,1.95-.42,3.51-1.26,4.67-.84,1.16-2.09,1.96-3.75,2.4l1.87,14.03c4.37-1.34,7.69-3.68,9.96-7.01,2.27-3.33,3.41-8.17,3.41-14.52,0-4.54-.6-8.26-1.79-11.17-.76-1.83-1.91-3.61-3.46-5.35s-3.3-3.1-5.25-4.1c-2.66-1.37-5.99-2.05-9.99-2.05s-6.9.56-9.22,1.68-4.33,2.67-6.05,4.65c-1.45,1.67-2.55,3.63-3.32,5.85v-19.92h38.21v-14.91h-38.21v-7.14l9.93-1.06c-.63-1.98-.95-3.52-.95-4.61,0-1.22.41-2.08,1.24-2.56.54-.32,1.63-.48,3.29-.48h13.78v8.2h10.91v-8.2h14.79l-7.65-14.94h-7.14v-5.49h-10.91v5.49h-13.68c-4.34,0-7.48.42-9.42,1.26-1.86.81-3.24,2.04-4.2,3.69v-29.89h12.35c6.23,0,10.47.77,12.74,2.31,1.61,1.07,2.42,2.59,2.42,4.54,0,1.03-.37,2.42-1.1,4.18l10.62,4.61c1.37-2.61,2.05-5.02,2.05-7.21s-.52-3.86-1.56-5.29c-1.04-1.43-2.94-2.81-5.69-4.16h6.37v-13.95h-38.21v-4.69l53-19.92Zm-30.8,329.33c2.32.24,4.06.82,5.24,1.72,1.88,1.42,2.82,3.31,2.82,5.68,0,2.05-.62,3.7-1.87,4.96-1.25,1.26-3.31,2.03-6.19,2.33v-14.69Zm-11.21-95.6c1.66-1.4,4.22-2.11,7.69-2.11s5.96.71,7.63,2.12c1.67,1.42,2.51,3.21,2.51,5.38,0,2.05-.82,3.77-2.47,5.16-1.65,1.39-4.16,2.09-7.53,2.09-3.61,0-6.24-.69-7.87-2.07s-2.45-3.14-2.45-5.29.83-3.89,2.49-5.29ZM56.34,23.88l19.3,5.86-19.3,5.93v-11.79Zm-11.61,15.23l-8.18,2.48v-23.73l8.18,2.41v18.83Zm1.25,283.66l5.48,5.62-14.9,7.53v-13.15h9.42Zm8.57-100.38c3.54,0,5.99.56,7.36,1.68,1.37,1.12,2.05,2.59,2.05,4.39,0,1.64-.51,2.91-1.52,3.81-1.01.9-2.74,1.36-5.18,1.36h-20.7v-11.24h17.99Z"/>
      <rect class="cls-1" x="79.41" y="134.32" width="10.14" height="14.91"/>
    </g>
  </g>
</svg>