<?xml version="1.0" encoding="UTF-8"?>
<svg id="Layer_2" data-name="Layer 2" xmlns="http://www.w3.org/2000/svg" viewBox="0 0 89.71 763.43">
  <defs>
    <style>
      .cls-1 {
        fill: none;
        stroke: #000;
        stroke-miterlimit: 10;
      }
    </style>
  </defs>
  <g id="Layer_1-2" data-name="Layer 1">
    <path class="cls-1" d="m87.51,284.11c1.03-1.96,1.54-4.46,1.54-7.49,0-4.74-1.59-8.57-4.76-11.5-3.17-2.93-7.79-4.39-13.84-4.39-5.3,0-9.56,1.13-12.78,3.41-4.54,3.2-6.81,7.4-6.81,12.6,0,2.66.61,5.14,1.83,7.43.78,1.46,2.04,2.93,3.77,4.39h-5.9c-2.86,0-4.86-.53-6.01-1.59-1.15-1.06-1.72-2.67-1.72-4.82,0-1.66.38-3.04,1.14-4.14.51-.76,1.44-1.32,2.78-1.69l1.65-14.46c-.83-.05-1.49-.07-1.98-.07-3.93,0-7.07,1.46-9.41,4.38-.16.2-.31.41-.46.62v-13.37c.76-.3,1.45-.53,2.03-.66,1.04-.23,2.47-.35,4.3-.35h17.18c1.83,0,3.75-.37,5.77-1.1,2.01-.73,3.57-1.73,4.67-3,1.59-1.81,2.63-4.07,3.13-6.78s.75-6.3.75-10.77c0-2.78-.21-5.37-.62-7.76-.42-2.39-1-4.27-1.76-5.64-1.05-1.9-2.29-3.36-3.72-4.38-1.43-1.01-3.39-1.79-5.88-2.33l-1.5,14.25c1.68.59,2.83,1.35,3.44,2.31.78,1.22,1.17,3.05,1.17,5.49,0,1.9-.37,3.24-1.1,3.99s-2.01,1.13-3.85,1.13c-.73-1.86-1.32-3.61-1.78-5.27-.45-1.66-1.24-5.29-2.36-10.88-.93-4.66-2.34-7.86-4.25-9.59s-4.33-2.6-7.29-2.6c-3.15,0-5.8,1.2-7.95,3.61-.14.16-.27.34-.4.51v-16.82c1.59,2.21,3.86,3.97,6.83,5.27,3.23,1.42,6.98,2.12,11.22,2.12,6.37,0,11.26-1.55,14.67-4.65,3.41-3.1,5.11-7.02,5.11-11.75,0-2.29-.39-4.39-1.17-6.28-.78-1.89-1.95-3.58-3.52-5.07h18.6v-15.05h-51.74v-15.34c1.59,2.21,3.86,3.97,6.83,5.27,3.23,1.42,6.98,2.12,11.22,2.12,6.37,0,11.26-1.55,14.67-4.65,3.41-3.1,5.11-7.02,5.11-11.75,0-2.29-.39-4.39-1.17-6.28-.78-1.89-1.95-3.58-3.52-5.07h18.6v-15.05h-51.74v-8.73c.76-.3,1.45-.53,2.03-.66,1.04-.23,2.47-.35,4.3-.35h17.18c1.83,0,3.75-.37,5.77-1.1,2.01-.73,3.57-1.73,4.67-3,1.59-1.81,2.63-4.07,3.13-6.78s.75-6.3.75-10.77c0-2.78-.21-5.37-.62-7.76-.42-2.39-1-4.27-1.76-5.64-1.05-1.9-2.29-3.36-3.72-4.38-1.43-1.01-3.39-1.79-5.88-2.33l-1.5,14.25c1.68.59,2.83,1.35,3.44,2.31.78,1.22,1.17,3.05,1.17,5.49,0,1.9-.37,3.24-1.1,3.99s-2.01,1.13-3.85,1.13c-.73-1.86-1.32-3.61-1.78-5.27-.45-1.66-1.24-5.29-2.36-10.88-.93-4.66-2.34-7.86-4.25-9.59s-4.33-2.6-7.29-2.6c-3.15,0-5.8,1.2-7.95,3.61-.14.16-.27.34-.4.51v-20.26c1.34,2.44,3.15,4.54,5.42,6.29,2.73,2.1,6.14,3.64,10.22,4.61l4.39-14.54c-3.39-.73-5.98-1.91-7.76-3.53-1.78-1.62-2.67-4.02-2.67-7.2s1.1-5.81,3.31-7.62c2.21-1.81,6.29-2.71,12.24-2.71,4.8,0,8.33.76,10.57,2.27,3.02,2,4.54,4.88,4.54,8.64,0,1.66-.34,3.16-1.03,4.5-.68,1.34-1.66,2.48-2.93,3.41-.76.56-1.95,1.1-3.59,1.61l3.26,14.65c5.66-1.88,9.86-4.76,12.6-8.62,2.73-3.87,4.1-9.19,4.1-15.95,0-8.64-2.38-15.33-7.15-20.05-4.77-4.72-11.6-7.09-20.48-7.09-6.66,0-12.13,1.34-16.4,4.03-4.03,2.53-6.9,5.53-8.63,8.96V2.73H.5v720l17.63,39.5,18.42-39.5v-375.47c1.72,2.97,4.42,5.53,8.13,7.66l1.35-14.68c-1.17-.93-1.99-1.79-2.45-2.6-.73-1.32-1.1-2.71-1.1-4.17,0-2.32.84-4.2,2.53-5.64,1.17-1.03,2.95-1.67,5.35-1.94v29.88h1.68c5.13,0,9.29-.84,12.49-2.53,3.2-1.69,5.64-4.14,7.32-7.36s2.53-7.62,2.53-13.18c0-6.86-1.88-12.24-5.64-16.13-3.76-3.89-8.68-5.84-14.76-5.84-4.27,0-7.99.97-11.15,2.91-2.73,1.68-4.82,3.74-6.28,6.17v-23.07c.26.41.53.82.82,1.19,1.37,1.72,3.16,3.1,5.36,4.14,2.21,1.04,4.54,1.56,6.98,1.56l1.72-.04h36.73v-13.95h-5.75c2.37-1.71,4.06-3.55,5.09-5.51Zm-40.61-105.91c1.5-1.26,3.92-1.89,7.27-1.89,3.05,0,5.33.64,6.83,1.92,1.5,1.28,2.25,2.94,2.25,4.96,0,1.68-.72,3.12-2.16,4.3-1.44,1.18-3.7,1.78-6.77,1.78-3.49,0-5.98-.6-7.45-1.81-1.48-1.21-2.22-2.7-2.22-4.49,0-1.93.75-3.52,2.25-4.78Zm0-50.76c1.5-1.26,3.92-1.89,7.27-1.89,3.05,0,5.33.64,6.83,1.92,1.5,1.28,2.25,2.94,2.25,4.96,0,1.68-.72,3.12-2.16,4.3-1.44,1.18-3.7,1.78-6.77,1.78-3.49,0-5.98-.6-7.45-1.81-1.48-1.21-2.22-2.7-2.22-4.49,0-1.93.75-3.52,2.25-4.78Zm10.6,198.47c2.32.24,4.06.82,5.24,1.72,1.88,1.42,2.82,3.31,2.82,5.68,0,2.05-.62,3.7-1.87,4.96-1.25,1.26-3.31,2.03-6.19,2.33v-14.69Zm-14.37-100.25c.74-.82,1.7-1.23,2.87-1.23,1.03,0,1.94.41,2.75,1.24.78.81,1.57,2.72,2.38,5.75.56,2.22,1.21,4.36,1.94,6.41h-2.38c-1.86,0-3.36-.3-4.52-.9-1.16-.6-2.14-1.61-2.95-3.04-.81-1.43-1.21-2.97-1.21-4.63s.37-2.79,1.12-3.61Zm-3.75,13.02c-1.12.17-1.95.34-2.47.51-.1.03-.22.08-.35.13v-4.21c.75,1.18,1.67,2.37,2.82,3.57Zm.99-63.35c-1.62,1.29-2.88,2.51-3.81,3.67v-3.67h3.81Zm0-50.76c-1.62,1.29-2.88,2.51-3.81,3.67v-3.67h3.81Zm2.77-50.45c.74-.82,1.7-1.23,2.87-1.23,1.03,0,1.94.41,2.75,1.24.78.81,1.57,2.72,2.38,5.75.56,2.22,1.21,4.36,1.94,6.41h-2.38c-1.86,0-3.36-.3-4.52-.9-1.16-.6-2.14-1.61-2.95-3.04-.81-1.43-1.21-2.97-1.21-4.63s.37-2.79,1.12-3.61Zm-3.75,13.02c-1.12.17-1.95.34-2.47.51-.1.03-.22.08-.35.13v-4.21c.75,1.18,1.67,2.37,2.82,3.57Zm36.62,199.55c-1.5,1.32-3.67,1.98-6.5,1.98s-4.95-.63-6.35-1.89c-1.4-1.26-2.11-2.81-2.11-4.67,0-1.95.68-3.53,2.03-4.72,1.35-1.2,3.44-1.79,6.24-1.79,3.2,0,5.49.57,6.87,1.7,1.38,1.14,2.07,2.66,2.07,4.56s-.75,3.52-2.25,4.83Z"/>
  </g>
</svg>