<?xml version="1.0" encoding="UTF-8"?>
<svg id="Layer_2" data-name="Layer 2" xmlns="http://www.w3.org/2000/svg" viewBox="0 0 89.41 761.2">
  <defs>
    <style>
      .cls-1 {
        fill: none;
        stroke: #000;
        stroke-miterlimit: 10;
      }
    </style>
  </defs>
  <g id="Layer_1-2" data-name="Layer 1">
    <path class="cls-1" d="m48.13,43.43v-25.89h40.47V.95h-52.04v-.45H.5v720l17.63,39.5,18.42-39.5v-419.7s.01.03.02.05c1.7,3.17,4.5,5.88,8.4,8.13l1.35-14.68c-1.17-.93-1.99-1.79-2.45-2.6-.73-1.32-1.1-2.71-1.1-4.17,0-2.32.84-4.2,2.53-5.64,1.17-1.03,2.95-1.67,5.35-1.94v29.88h1.68c5.13,0,9.29-.84,12.49-2.53,3.2-1.69,5.64-4.14,7.32-7.36s2.53-7.62,2.53-13.18c0-6.86-1.88-12.24-5.64-16.13-3.76-3.89-8.68-5.84-14.76-5.84-4.27,0-7.99.97-11.15,2.91-2.93,1.8-5.12,4.04-6.58,6.7v-23.81c1.12,2.11,2.54,3.91,4.31,5.37,2.16,1.78,4.72,3.06,7.67,3.84l1.61-14.17c-2.08-.66-3.61-1.65-4.61-2.98-1-1.33-1.5-2.97-1.5-4.93,0-2.34.83-4.27,2.49-5.79,1.66-1.52,4.08-2.27,7.27-2.27,3.58,0,6.26.76,8.02,2.29s2.65,3.52,2.65,5.99c0,1.95-.42,3.51-1.26,4.67-.84,1.16-2.09,1.96-3.75,2.4l1.87,14.03c4.37-1.34,7.69-3.68,9.96-7.01s3.41-8.17,3.41-14.52c0-4.54-.6-8.27-1.79-11.17-.76-1.83-1.91-3.61-3.46-5.35-1.55-1.73-3.3-3.1-5.25-4.1-2.66-1.37-5.99-2.05-9.99-2.05s-6.9.56-9.22,1.69-4.34,2.67-6.06,4.65c-.93,1.07-1.71,2.26-2.36,3.56v-17.14h37.25v-14.91h-18.71c-3.54,0-5.99-.57-7.36-1.7-1.37-1.14-2.05-2.6-2.05-4.38,0-1.64.51-2.91,1.54-3.81,1.03-.9,2.76-1.36,5.2-1.36h21.39v-14.98h-24.76c-5.1,0-8.88,1.17-11.33,3.5-.43.41-.8.85-1.16,1.31v-11.36l8.97-.96c-.63-1.98-.95-3.52-.95-4.61,0-1.22.41-2.08,1.24-2.56.54-.32,1.63-.47,3.29-.47h13.78v8.2h10.91v-8.2h14.79l-7.65-14.94h-7.14v-5.49h-10.91v5.49h-13.68c-4.34,0-7.48.42-9.42,1.26-1.31.57-2.38,1.37-3.24,2.36v-13.35l8.97-.96c-.63-1.98-.95-3.52-.95-4.61,0-1.22.41-2.08,1.24-2.56.54-.32,1.63-.47,3.29-.47h13.78v8.2h10.91v-8.2h14.79l-7.65-14.94h-7.14v-5.49h-10.91v5.49h-13.68c-4.34,0-7.48.42-9.42,1.26-1.31.57-2.38,1.37-3.24,2.36v-22.52s.01.03.02.05c1.7,3.17,4.5,5.88,8.4,8.13l1.35-14.69c-1.17-.93-1.99-1.79-2.45-2.6-.73-1.32-1.1-2.71-1.1-4.17,0-2.32.84-4.2,2.53-5.64,1.17-1.03,2.95-1.67,5.35-1.94v29.88h1.68c5.13,0,9.29-.84,12.49-2.53,3.2-1.69,5.64-4.14,7.32-7.36s2.53-7.62,2.53-13.18c0-6.86-1.88-12.24-5.64-16.13-3.76-3.89-8.68-5.84-14.76-5.84-4.27,0-7.99.97-11.15,2.91-2.93,1.8-5.12,4.04-6.58,6.71v-14.3h11.58Zm9.67,236.54c2.32.24,4.06.82,5.24,1.72,1.88,1.42,2.82,3.31,2.82,5.68,0,2.05-.62,3.71-1.87,4.96-1.25,1.26-3.31,2.03-6.19,2.32v-14.69Zm0-216.65c2.32.24,4.06.82,5.24,1.72,1.88,1.42,2.82,3.31,2.82,5.68,0,2.05-.62,3.7-1.87,4.96s-3.31,2.03-6.19,2.33v-14.69Zm-16.59,130.34h-4.66v-4.84c1.11,1.62,2.66,3.23,4.66,4.84Z"/>
  </g>
</svg>