<?xml version="1.0" encoding="UTF-8"?>
<svg id="Layer_2" data-name="Layer 2" xmlns="http://www.w3.org/2000/svg" viewBox="0 0 89.9 761.2">
  <defs>
    <style>
      .cls-1 {
        fill: none;
        stroke: #000;
        stroke-miterlimit: 10;
      }
    </style>
  </defs>
  <g id="Layer_1-2" data-name="Layer 1">
    <path class="cls-1" d="m38.2,44.08c1.29,2.25,3.05,4.02,5.27,5.31,2.22,1.29,4.72,1.94,7.51,1.94,3.42,0,6.26-.91,8.51-2.73,2.26-1.82,3.85-4.66,4.78-8.51.88,2.54,2.07,4.47,3.59,5.79,2.27,1.98,4.99,2.97,8.17,2.97,3.78,0,6.96-1.39,9.52-4.16,2.56-2.77,3.85-6.75,3.85-11.92V1.7h-52.85V.5H.5v720l17.63,39.5,18.42-39.5V195.29h52.85v-14.94h-52.85v-8.29h38.71v-14.94h-38.71v-18.24c.06.14.11.29.17.43,1.26,2.92,2.94,5.05,5.07,6.41,2.12,1.35,4.3,2.03,6.55,2.03s4.26-.64,6.11-1.92c1.85-1.28,3.28-3.13,4.28-5.55s1.78-6.1,2.34-11.06c.39-3.27.83-5.4,1.32-6.37s1.21-1.46,2.16-1.46c.85,0,1.58.38,2.18,1.15.6.77.9,2,.9,3.68s-.39,3.08-1.17,4.25c-.59.85-1.5,1.46-2.75,1.83l1.39,14.14c2.54-.98,4.55-2.2,6.04-3.68s2.59-3.32,3.3-5.53c.71-2.21,1.06-5.63,1.06-10.27,0-4.39-.46-7.9-1.37-10.51-.92-2.61-2.3-4.66-4.15-6.15-1.85-1.49-4.06-2.23-6.62-2.23-2.34,0-4.43.69-6.26,2.07-1.83,1.38-3.13,3.08-3.9,5.09-.77,2.01-1.6,5.61-2.5,10.79-.61,3.47-1.12,5.6-1.54,6.41-.59,1.12-1.42,1.68-2.49,1.68-.95,0-1.74-.43-2.38-1.28-.85-1.1-1.28-2.65-1.28-4.65,0-1.83.38-3.3,1.14-4.39.76-1.1,2.01-1.95,3.77-2.56l-1.39-14.79c-3.74.85-6.62,2.79-8.64,5.8-.5.75-.94,1.63-1.32,2.63v-13.25c1.23-.56,2.29-.94,3.14-1.13,1.04-.23,2.47-.35,4.3-.35h17.17c1.83,0,3.75-.37,5.77-1.1,2.01-.73,3.57-1.73,4.67-3,1.59-1.81,2.63-4.07,3.13-6.78.5-2.71.75-6.3.75-10.77,0-2.78-.21-5.37-.62-7.76s-1-4.27-1.76-5.64c-1.05-1.9-2.29-3.36-3.72-4.38-1.43-1.01-3.39-1.79-5.88-2.33l-1.5,14.25c1.68.59,2.83,1.35,3.44,2.31.78,1.22,1.17,3.05,1.17,5.49,0,1.9-.37,3.24-1.1,3.99s-2.01,1.13-3.85,1.13c-.73-1.86-1.32-3.61-1.78-5.27-.45-1.66-1.24-5.29-2.36-10.88-.93-4.66-2.34-7.86-4.25-9.59s-4.33-2.6-7.29-2.6c-3.15,0-5.8,1.2-7.95,3.61-.58.65-1.08,1.4-1.51,2.21v-24.5c.37,2.44.92,4.3,1.65,5.57Zm30.14-25.63h10.18v7.32c0,2.51-.44,4.28-1.32,5.29-.88,1.01-2.1,1.52-3.66,1.52-1.68,0-2.97-.51-3.86-1.52-.89-1.01-1.34-2.81-1.34-5.4v-7.21Zm-21.09,0h10.88v8.42c0,2.91-.48,4.94-1.45,6.1-.96,1.16-2.24,1.74-3.83,1.74-1.71,0-3.07-.59-4.08-1.76-1.01-1.17-1.52-3.19-1.52-6.04v-8.46Zm-3.02,54.91c.74-.82,1.7-1.23,2.87-1.23,1.03,0,1.94.41,2.75,1.24.78.81,1.57,2.72,2.38,5.75.56,2.22,1.21,4.36,1.94,6.41h-2.38c-1.86,0-3.36-.3-4.52-.9-1.16-.6-2.14-1.61-2.95-3.04-.81-1.43-1.21-2.97-1.21-4.63s.37-2.79,1.12-3.61Zm-3.75,13.02c-1.12.17-1.95.34-2.47.51-.37.12-.85.34-1.45.65v-6.77c.81,1.86,2.11,3.73,3.92,5.61Z"/>
  </g>
</svg>