<?xml version="1.0" encoding="UTF-8"?>
<svg id="Layer_2" data-name="Layer 2" xmlns="http://www.w3.org/2000/svg" viewBox="0 0 89.63 761.2">
  <defs>
    <style>
      .cls-1 {
        fill: none;
        stroke: #000;
        stroke-miterlimit: 10;
      }
    </style>
  </defs>
  <g id="Layer_1-2" data-name="Layer 1">
    <path class="cls-1" d="m36.55,1.03v-.53H.5v720l17.63,39.5,18.42-39.5V199.51h23.61c5.13,0,8.92-1.17,11.37-3.5,2.45-2.33,3.68-5.56,3.68-9.69,0-3.05-.56-5.64-1.67-7.76-1.11-2.12-2.96-4.22-5.55-6.3h6.34v-13.88h-37.79v-7.58c1.12-.49,2.08-.83,2.87-1.01,1.04-.23,2.47-.35,4.3-.35h17.18c1.83,0,3.75-.37,5.77-1.1,2.01-.73,3.57-1.73,4.67-3,1.59-1.81,2.63-4.07,3.13-6.78s.75-6.3.75-10.77c0-2.78-.21-5.37-.62-7.76-.42-2.39-1-4.27-1.76-5.64-1.05-1.9-2.29-3.36-3.72-4.38-1.43-1.01-3.39-1.79-5.88-2.33l-1.5,14.25c1.68.59,2.83,1.35,3.44,2.31.78,1.22,1.17,3.05,1.17,5.49,0,1.9-.37,3.24-1.1,3.99s-2.01,1.13-3.85,1.13c-.73-1.86-1.32-3.61-1.78-5.27-.45-1.66-1.24-5.29-2.36-10.88-.93-4.66-2.34-7.86-4.25-9.59s-4.33-2.6-7.29-2.6c-3.15,0-5.8,1.2-7.95,3.61-.47.52-.87,1.11-1.24,1.74v-20.51c.18.41.36.81.56,1.18,1.7,3.17,4.5,5.88,8.4,8.13l1.35-14.68c-1.17-.93-1.99-1.79-2.45-2.6-.73-1.32-1.1-2.71-1.1-4.17,0-2.32.84-4.2,2.53-5.64,1.17-1.03,2.95-1.67,5.35-1.94v29.88h1.68c5.13,0,9.29-.84,12.49-2.53,3.2-1.69,5.64-4.14,7.32-7.36s2.53-7.62,2.53-13.18c0-6.86-1.88-12.24-5.64-16.13-3.76-3.89-8.68-5.84-14.76-5.84-4.27,0-7.99.97-11.15,2.91-3.16,1.94-5.47,4.39-6.92,7.34-.07.14-.13.3-.2.44v-27.83c.35,1.71.81,3.07,1.39,4.06,1.29,2.25,3.05,4.02,5.27,5.31,2.22,1.29,4.72,1.94,7.51,1.94,3.42,0,6.26-.91,8.51-2.73s3.85-4.66,4.78-8.51c.88,2.54,2.07,4.47,3.59,5.79,2.27,1.98,4.99,2.97,8.17,2.97,3.78,0,6.96-1.39,9.52-4.16,2.56-2.77,3.85-6.75,3.85-11.92V1.03h-52.58Zm21.78,70.64c2.32.24,4.06.82,5.24,1.72,1.88,1.42,2.82,3.31,2.82,5.68,0,2.05-.62,3.7-1.87,4.96-1.25,1.26-3.31,2.03-6.19,2.33v-14.69Zm-4.21,101.62c3.54,0,5.99.56,7.36,1.68,1.37,1.12,2.05,2.59,2.05,4.39,0,1.64-.51,2.91-1.52,3.81s-2.74,1.36-5.18,1.36h-20.28v-11.24h17.57Zm-10.16-50.59c.74-.82,1.7-1.23,2.87-1.23,1.03,0,1.94.41,2.75,1.24.78.81,1.57,2.72,2.38,5.75.56,2.22,1.21,4.36,1.94,6.41h-2.38c-1.86,0-3.36-.3-4.52-.9-1.16-.6-2.14-1.61-2.95-3.04-.81-1.43-1.21-2.97-1.21-4.63s.37-2.79,1.12-3.61Zm-3.75,13.02c-1.12.17-1.95.34-2.47.51-.31.1-.71.28-1.18.51v-6.08c.82,1.68,2.02,3.36,3.66,5.06ZM57.86,26.19c0,2.91-.48,4.94-1.45,6.1-.96,1.16-2.24,1.74-3.83,1.74-1.71,0-3.07-.59-4.08-1.76-1.01-1.17-1.52-3.19-1.52-6.04v-8.46h10.88v8.42Zm20.4-1.1c0,2.51-.44,4.28-1.32,5.29-.88,1.01-2.1,1.52-3.66,1.52-1.68,0-2.97-.51-3.86-1.52-.89-1.01-1.34-2.81-1.34-5.4v-7.21h10.18v7.32Z"/>
  </g>
</svg>