<?xml version="1.0" encoding="UTF-8"?>
<svg id="Layer_2" data-name="Layer 2" xmlns="http://www.w3.org/2000/svg" viewBox="0 0 90.43 761.38">
  <defs>
    <style>
      .cls-1 {
        fill: none;
        stroke: #000;
        stroke-miterlimit: 10;
      }
    </style>
  </defs>
  <g id="Layer_1-2" data-name="Layer 1">
    <path class="cls-1" d="m36.65,36.57c.37,2.81.95,4.91,1.76,6.3,1.29,2.25,3.05,4.02,5.27,5.31,2.22,1.29,4.72,1.94,7.51,1.94,3.42,0,6.26-.91,8.51-2.73s3.85-4.66,4.78-8.51c.88,2.54,2.07,4.47,3.59,5.79,2.27,1.98,4.99,2.97,8.17,2.97,3.78,0,6.96-1.39,9.52-4.16,2.56-2.77,3.85-6.75,3.85-11.92V.5h-53.69v.18H.5v720l17.63,39.5,18.42-39.5V184.56l9.99-1.07c-.63-1.98-.95-3.52-.95-4.61,0-1.22.41-2.08,1.24-2.56.54-.32,1.63-.48,3.29-.48h13.78v8.2h10.91v-8.2h14.79l-7.65-14.94h-7.14v-5.49h-10.91v5.49h-13.68c-4.34,0-7.48.42-9.42,1.26-1.89.82-3.3,2.08-4.25,3.77v-26.33c.3.88.64,1.7,1.04,2.44,1.7,3.17,4.5,5.88,8.4,8.13l1.35-14.68c-1.17-.93-1.99-1.79-2.45-2.6-.73-1.32-1.1-2.71-1.1-4.17,0-2.32.84-4.2,2.53-5.64,1.17-1.03,2.95-1.67,5.35-1.94v29.88h1.68c5.13,0,9.29-.84,12.49-2.53,3.2-1.69,5.64-4.14,7.32-7.36s2.53-7.62,2.53-13.18c0-6.86-1.88-12.24-5.64-16.13-3.76-3.89-8.68-5.84-14.76-5.84-4.27,0-7.99.97-11.15,2.91-3.16,1.94-5.47,4.39-6.92,7.34-.25.5-.47,1.05-.67,1.62v-28.26c.3.88.64,1.7,1.04,2.44,1.7,3.17,4.5,5.88,8.4,8.13l1.35-14.68c-1.17-.93-1.99-1.79-2.45-2.6-.73-1.32-1.1-2.71-1.1-4.17,0-2.32.84-4.2,2.53-5.64,1.17-1.03,2.95-1.67,5.35-1.94v29.88h1.68c5.13,0,9.29-.84,12.49-2.53,3.2-1.69,5.64-4.14,7.32-7.36s2.53-7.62,2.53-13.18c0-6.86-1.88-12.24-5.64-16.13-3.76-3.89-8.68-5.84-14.76-5.84-4.27,0-7.99.97-11.15,2.91-3.16,1.94-5.47,4.39-6.92,7.34-.25.5-.47,1.05-.67,1.62v-32.05c.03.27.07.53.1.81Zm31.9-19.34h10.18v7.32c0,2.51-.44,4.28-1.32,5.29-.88,1.01-2.1,1.52-3.66,1.52-1.68,0-2.97-.51-3.86-1.52-.89-1.01-1.34-2.81-1.34-5.4v-7.21Zm-21.09,0h10.88v8.42c0,2.91-.48,4.94-1.45,6.1-.96,1.16-2.24,1.74-3.83,1.74-1.71,0-3.07-.59-4.08-1.76-1.01-1.17-1.52-3.19-1.52-6.04v-8.46Zm11.35,103.93c2.32.24,4.06.82,5.24,1.72,1.88,1.42,2.82,3.31,2.82,5.68,0,2.05-.62,3.7-1.87,4.96-1.25,1.26-3.31,2.03-6.19,2.33v-14.69Zm0-50.02c2.32.24,4.06.82,5.24,1.72,1.88,1.42,2.82,3.31,2.82,5.68,0,2.05-.62,3.7-1.87,4.96-1.25,1.26-3.31,2.03-6.19,2.33v-14.69Z"/>
  </g>
</svg>