<?xml version="1.0" encoding="UTF-8"?>
<svg id="Layer_2" data-name="Layer 2" xmlns="http://www.w3.org/2000/svg" viewBox="0 0 90.1 761.2">
  <defs>
    <style>
      .cls-1 {
        fill: none;
        stroke: #000;
        stroke-miterlimit: 10;
      }
    </style>
  </defs>
  <g id="Layer_1-2" data-name="Layer 1">
    <path class="cls-1" d="m36.65,37.09c.37,2.81.95,4.91,1.76,6.3,1.29,2.25,3.05,4.02,5.27,5.31,2.22,1.29,4.72,1.94,7.51,1.94,3.42,0,6.26-.91,8.51-2.73s3.85-4.66,4.78-8.51c.88,2.54,2.07,4.47,3.59,5.79,2.27,1.98,4.99,2.97,8.17,2.97,3.78,0,6.96-1.39,9.52-4.16,2.56-2.77,3.85-6.75,3.85-11.92V1.02h-53.05v-.52H.5v720l17.63,39.5,18.42-39.5v-387.98h37.65v-14.94h-37.65v-9.2h53.05v-14.94h-53.05v-20.53c.95,2.66,2.35,4.96,4.22,6.89,3.82,3.97,8.72,5.95,14.7,5.95,5.32,0,9.8-1.6,13.44-4.8,4.52-3.98,6.77-9.86,6.77-17.65,0-6.81-1.92-12.22-5.77-16.22-3.85-4-8.73-6.01-14.67-6.01-6.37,0-11.52,2.37-15.45,7.1-1.39,1.7-2.46,3.64-3.25,5.79v-29.3c.09.24.18.48.28.72,1.2,2.77,2.87,5.05,5.04,6.83,2.16,1.78,4.72,3.06,7.67,3.84l1.61-14.17c-2.08-.66-3.61-1.65-4.61-2.98-1-1.33-1.5-2.97-1.5-4.93,0-2.34.83-4.27,2.49-5.79,1.66-1.51,4.08-2.27,7.27-2.27,3.58,0,6.26.76,8.02,2.29s2.65,3.52,2.65,5.99c0,1.95-.42,3.51-1.26,4.67-.84,1.16-2.09,1.96-3.75,2.4l1.87,14.03c4.37-1.34,7.69-3.68,9.96-7.01,2.27-3.33,3.41-8.17,3.41-14.52,0-4.54-.6-8.26-1.79-11.17-.76-1.83-1.91-3.61-3.46-5.35s-3.3-3.1-5.25-4.1c-2.66-1.37-5.99-2.05-9.99-2.05s-6.9.56-9.22,1.68-4.34,2.67-6.06,4.65c-1.49,1.71-2.59,3.72-3.37,6v-28.78c.09.24.18.48.28.72,1.2,2.77,2.87,5.05,5.04,6.83,2.16,1.78,4.72,3.06,7.67,3.84l1.61-14.17c-2.08-.66-3.61-1.65-4.61-2.98-1-1.33-1.5-2.97-1.5-4.93,0-2.34.83-4.27,2.49-5.79,1.66-1.51,4.08-2.27,7.27-2.27,3.58,0,6.26.76,8.02,2.29s2.65,3.52,2.65,5.99c0,1.95-.42,3.51-1.26,4.67-.84,1.16-2.09,1.96-3.75,2.4l1.87,14.03c4.37-1.34,7.69-3.68,9.96-7.01,2.27-3.33,3.41-8.17,3.41-14.52,0-4.54-.6-8.26-1.79-11.17-.76-1.83-1.91-3.61-3.46-5.35s-3.3-3.1-5.25-4.1c-2.66-1.37-5.99-2.05-9.99-2.05s-6.9.56-9.22,1.68-4.34,2.67-6.06,4.65c-1.49,1.71-2.59,3.72-3.37,6v-30.56c.95,2.66,2.35,4.96,4.22,6.89,3.82,3.97,8.72,5.95,14.7,5.95,5.32,0,9.8-1.6,13.44-4.8,4.52-3.98,6.77-9.86,6.77-17.65,0-6.81-1.92-12.22-5.77-16.22-3.85-4-8.73-6.01-14.67-6.01-6.37,0-11.52,2.37-15.45,7.1-1.39,1.7-2.46,3.64-3.25,5.79v-30.44h12.4c6.23,0,10.47.77,12.74,2.31,1.61,1.07,2.42,2.59,2.42,4.54,0,1.03-.37,2.42-1.1,4.18l10.62,4.61c1.37-2.61,2.05-5.02,2.05-7.21s-.52-3.86-1.56-5.29c-1.04-1.43-2.94-2.81-5.69-4.16h6.37v-13.95h-38.26v-22.14c.03.25.06.49.1.76Zm31.9-19.34h10.18v7.32c0,2.51-.44,4.28-1.32,5.29-.88,1.01-2.1,1.52-3.66,1.52-1.68,0-2.97-.51-3.86-1.52-.89-1.01-1.34-2.81-1.34-5.4v-7.21Zm-21.09,0h10.88v8.42c0,2.91-.48,4.94-1.45,6.1-.96,1.16-2.24,1.74-3.83,1.74-1.71,0-3.07-.59-4.08-1.76-1.01-1.17-1.52-3.19-1.52-6.04v-8.46Zm.15,240.36c1.66-1.4,4.22-2.11,7.69-2.11s5.96.71,7.64,2.12,2.51,3.21,2.51,5.38c0,2.05-.82,3.77-2.47,5.16-1.65,1.39-4.16,2.09-7.53,2.09-3.61,0-6.24-.69-7.87-2.07-1.64-1.38-2.45-3.14-2.45-5.29s.83-3.89,2.49-5.29Zm0-150.07c1.66-1.4,4.22-2.11,7.69-2.11s5.96.71,7.64,2.12,2.51,3.21,2.51,5.38c0,2.05-.82,3.77-2.47,5.16-1.65,1.39-4.16,2.09-7.53,2.09-3.61,0-6.24-.69-7.87-2.07-1.64-1.38-2.45-3.14-2.45-5.29s.83-3.89,2.49-5.29Z"/>
  </g>
</svg>