<?xml version="1.0" encoding="UTF-8"?>
<svg id="Layer_2" data-name="Layer 2" xmlns="http://www.w3.org/2000/svg" viewBox="0 0 89.9 763.17">
  <defs>
    <style>
      .cls-1 {
        fill: none;
        stroke: #000;
        stroke-miterlimit: 10;
      }
    </style>
  </defs>
  <g id="Layer_1-2" data-name="Layer 1">
    <path class="cls-1" d="m82.25,7.59c-4.77-4.72-11.59-7.09-20.48-7.09-6.66,0-12.13,1.34-16.4,4.03-4.18,2.63-7.12,5.74-8.83,9.34V2.47H.5v720l17.63,39.5,18.42-39.5V187.96h22.97c5.13,0,8.92-1.17,11.37-3.5,2.45-2.33,3.68-5.56,3.68-9.69,0-3.05-.56-5.64-1.67-7.76-1.11-2.12-2.96-4.22-5.55-6.3h6.33v-13.88h-37.14v-21.9h11.29c6.23,0,10.47.77,12.74,2.31,1.61,1.07,2.42,2.59,2.42,4.54,0,1.03-.37,2.42-1.1,4.18l10.62,4.61c1.37-2.61,2.05-5.02,2.05-7.21s-.52-3.86-1.56-5.29c-1.04-1.43-2.94-2.81-5.69-4.16h6.37v-13.95h-37.14v-17.65c.84,1.62,1.86,3.09,3.1,4.38,3.82,3.97,8.72,5.95,14.7,5.95,5.32,0,9.8-1.6,13.44-4.8,4.52-3.98,6.77-9.86,6.77-17.65,0-6.81-1.92-12.22-5.77-16.22-3.85-4-8.73-6.01-14.67-6.01-6.37,0-11.52,2.37-15.45,7.1-.82.99-1.53,2.07-2.13,3.23v-26.82c1.36,2.6,3.23,4.81,5.61,6.64,2.73,2.1,6.14,3.64,10.22,4.61l4.39-14.54c-3.39-.73-5.98-1.91-7.76-3.53s-2.67-4.02-2.67-7.2,1.1-5.81,3.31-7.62c2.21-1.81,6.29-2.71,12.24-2.71,4.8,0,8.33.76,10.57,2.27,3.02,2,4.54,4.88,4.54,8.64,0,1.66-.34,3.16-1.03,4.5s-1.66,2.48-2.93,3.41c-.76.56-1.95,1.1-3.59,1.61l3.26,14.65c5.66-1.88,9.86-4.76,12.6-8.62,2.73-3.87,4.1-9.19,4.1-15.95,0-8.64-2.38-15.33-7.16-20.05Zm-35.76,67.42c1.66-1.4,4.22-2.11,7.69-2.11s5.96.71,7.63,2.12c1.67,1.42,2.51,3.21,2.51,5.38,0,2.05-.82,3.77-2.47,5.16-1.65,1.39-4.16,2.09-7.53,2.09-3.61,0-6.24-.69-7.87-2.07s-2.45-3.14-2.45-5.29.83-3.89,2.49-5.29Zm6.99,86.74c3.54,0,5.99.56,7.36,1.68,1.37,1.12,2.05,2.59,2.05,4.39,0,1.64-.51,2.91-1.52,3.81-1.01.9-2.74,1.36-5.18,1.36h-19.64v-11.24h16.93Z"/>
  </g>
</svg>