<?xml version="1.0" encoding="UTF-8"?>
<svg id="Layer_2" data-name="Layer 2" xmlns="http://www.w3.org/2000/svg" viewBox="0 0 91.25 763.79">
  <defs>
    <style>
      .cls-1 {
        fill: none;
        stroke: #000;
        stroke-miterlimit: 10;
      }
    </style>
  </defs>
  <g id="Layer_1-2" data-name="Layer 1">
    <path class="cls-1" d="m36.55,38.92c.52,1.76,1.2,3.39,2.03,4.88,2.23,3.99,5.36,7.04,9.38,9.16,4.02,2.11,9.16,3.17,15.44,3.17,8.64,0,15.36-2.42,20.16-7.25,4.8-4.83,7.2-11.72,7.2-20.65s-2.44-15.52-7.32-20.4c-4.88-4.88-11.71-7.32-20.47-7.32-6.27,0-11.5,1.23-15.67,3.7s-7.23,5.68-9.16,9.65c-.63,1.3-1.15,2.73-1.58,4.25V3.09H.5v720l17.63,39.5,18.42-39.5V191.44c1.43-.67,2.62-1.12,3.57-1.33,1.04-.23,2.47-.35,4.3-.35h17.18c1.83,0,3.75-.37,5.77-1.1,2.01-.73,3.57-1.73,4.67-3,1.59-1.81,2.63-4.07,3.13-6.78s.75-6.3.75-10.77c0-2.78-.21-5.37-.62-7.76-.42-2.39-1-4.27-1.76-5.64-1.05-1.9-2.29-3.36-3.72-4.38-1.43-1.01-3.39-1.79-5.88-2.33l-1.5,14.25c1.68.59,2.83,1.35,3.44,2.31.78,1.22,1.17,3.05,1.17,5.49,0,1.9-.37,3.24-1.1,3.99s-2.01,1.13-3.85,1.13c-.73-1.86-1.32-3.61-1.78-5.27-.45-1.66-1.24-5.29-2.36-10.88-.93-4.66-2.34-7.86-4.25-9.59s-4.33-2.6-7.29-2.6c-3.15,0-5.8,1.2-7.95,3.61-.8.89-1.44,1.94-1.94,3.13v-24.35h12.64c6.23,0,10.47.77,12.74,2.31,1.61,1.07,2.42,2.59,2.42,4.54,0,1.03-.37,2.42-1.1,4.18l10.62,4.61c1.37-2.61,2.05-5.02,2.05-7.21s-.52-3.86-1.56-5.29c-1.04-1.43-2.94-2.81-5.69-4.16h6.37v-13.95h-38.49v-4.88l24.87-14.52,13.62,13.95v-18.35l-12.92-11.13h27.71v-15.23h-53.29v-25.15Zm14.65-18.81c2.37-2.01,6.26-3.02,11.68-3.02s9.39,1.01,11.76,3.04c2.37,2.03,3.55,4.71,3.55,8.06s-1.17,6.26-3.5,8.29c-2.33,2.04-6.02,3.06-11.08,3.06-6.01,0-10.17-.98-12.49-2.93-2.32-1.95-3.48-4.71-3.48-8.28s1.18-6.21,3.55-8.22Zm-6.54,142.9c.74-.82,1.7-1.23,2.87-1.23,1.03,0,1.94.41,2.75,1.24.78.81,1.57,2.72,2.38,5.75.56,2.22,1.21,4.36,1.94,6.41h-2.38c-1.86,0-3.36-.3-4.52-.9-1.16-.6-2.14-1.61-2.95-3.04-.81-1.43-1.21-2.97-1.21-4.63s.37-2.79,1.12-3.61Zm-7.78,7.2c.81,1.93,2.15,3.87,4.03,5.82-1.12.17-1.95.34-2.47.51-.45.15-1.09.45-1.89.88v-8.18c.11.32.21.66.33.97Zm9.38-90.89l5.48,5.62-15.19,7.67v-13.29h9.71Z"/>
  </g>
</svg>