<?xml version="1.0" encoding="UTF-8"?>
<svg id="Layer_2" data-name="Layer 2" xmlns="http://www.w3.org/2000/svg" viewBox="0 0 91.18 761.88">
  <defs>
    <style>
      .cls-1 {
        fill: none;
        stroke: #000;
        stroke-miterlimit: 10;
      }
    </style>
  </defs>
  <g id="Layer_1-2" data-name="Layer 1">
    <path class="cls-1" d="m89.14,171.57c1.03-1.96,1.54-4.46,1.54-7.49,0-4.74-1.59-8.57-4.76-11.5-3.17-2.93-7.79-4.39-13.84-4.39-5.3,0-9.56,1.13-12.78,3.41-4.54,3.2-6.81,7.4-6.81,12.6,0,2.66.61,5.14,1.83,7.43.78,1.46,2.04,2.93,3.77,4.39h-5.9c-2.86,0-4.86-.53-6.01-1.59-1.15-1.06-1.72-2.67-1.72-4.82,0-1.66.38-3.04,1.14-4.14.51-.76,1.44-1.32,2.78-1.69l1.65-14.46c-.83-.05-1.49-.07-1.98-.07-3.93,0-7.07,1.46-9.41,4.38-.85,1.06-1.55,2.44-2.09,4.15v-27.09c.27.75.57,1.46.91,2.1,1.7,3.17,4.5,5.88,8.4,8.13l1.35-14.68c-1.17-.93-1.99-1.79-2.45-2.6-.73-1.32-1.1-2.71-1.1-4.17,0-2.32.84-4.2,2.53-5.64,1.17-1.03,2.95-1.67,5.35-1.94v29.88h1.68c5.13,0,9.29-.84,12.49-2.53,3.2-1.69,5.64-4.14,7.32-7.36s2.53-7.62,2.53-13.18c0-6.86-1.88-12.24-5.64-16.13-3.76-3.89-8.68-5.84-14.76-5.84-4.27,0-7.99.97-11.15,2.91-3.16,1.94-5.47,4.39-6.92,7.34-.2.4-.37.82-.54,1.25v-29.01h12.28c6.23,0,10.47.77,12.74,2.31,1.61,1.07,2.42,2.59,2.42,4.54,0,1.03-.37,2.42-1.1,4.18l10.62,4.61c1.37-2.61,2.05-5.02,2.05-7.21s-.52-3.86-1.56-5.29c-1.04-1.43-2.94-2.81-5.69-4.16h6.37v-13.95h-38.14v-24.23c.47,1.36,1.02,2.63,1.68,3.82,2.23,3.99,5.36,7.04,9.38,9.16,4.02,2.11,9.16,3.17,15.44,3.17,8.64,0,15.36-2.42,20.16-7.25,4.8-4.83,7.2-11.72,7.2-20.65s-2.44-15.52-7.32-20.4c-4.88-4.88-11.71-7.32-20.47-7.32-6.27,0-11.5,1.23-15.67,3.7s-7.23,5.68-9.16,9.65c-.46.95-.87,1.97-1.22,3.05V1.18H.5v720l17.63,39.5,18.42-39.5v-390.34c.95,2.53,2.31,4.73,4.1,6.59,3.82,3.97,8.72,5.95,14.7,5.95,5.32,0,9.8-1.6,13.44-4.8,4.52-3.98,6.77-9.86,6.77-17.65,0-6.81-1.92-12.22-5.77-16.22-3.85-4-8.73-6.01-14.67-6.01-6.37,0-11.52,2.37-15.45,7.1-1.32,1.61-2.35,3.44-3.13,5.46v-19.63h23.96c5.13,0,8.92-1.17,11.37-3.5,2.45-2.33,3.68-5.56,3.68-9.69,0-3.05-.56-5.64-1.67-7.76-1.11-2.12-2.96-4.22-5.55-6.3h6.34v-13.88h-38.14v-7.42c1.27-.58,2.35-.98,3.22-1.17,1.04-.23,2.47-.35,4.3-.35h17.18c1.83,0,3.75-.37,5.77-1.1,2.01-.73,3.57-1.73,4.67-3,1.59-1.81,2.63-4.07,3.13-6.78s.75-6.3.75-10.77c0-2.78-.21-5.37-.62-7.76-.42-2.39-1-4.27-1.76-5.64-1.05-1.9-2.29-3.36-3.72-4.38-1.43-1.01-3.39-1.79-5.88-2.33l-1.5,14.25c1.68.59,2.83,1.35,3.44,2.31.78,1.22,1.17,3.05,1.17,5.49,0,1.9-.37,3.24-1.1,3.99s-2.01,1.13-3.85,1.13c-.73-1.86-1.32-3.61-1.78-5.27-.45-1.66-1.24-5.29-2.36-10.88-.93-4.66-2.34-7.86-4.25-9.59s-4.33-2.6-7.29-2.6c-3.15,0-5.8,1.2-7.95,3.61-.62.7-1.15,1.5-1.59,2.39v-23.99c.6,1.84,1.42,3.41,2.45,4.71,1.37,1.72,3.16,3.1,5.36,4.14,2.21,1.04,4.54,1.56,6.98,1.56l1.72-.04h36.73v-13.95h-5.75c2.37-1.71,4.06-3.55,5.09-5.51Zm-30.46-59.67c2.32.24,4.06.82,5.24,1.72,1.88,1.42,2.82,3.31,2.82,5.68,0,2.05-.62,3.7-1.87,4.96-1.25,1.26-3.31,2.03-6.19,2.33v-14.69Zm-7.84-91.79c2.37-2.01,6.26-3.02,11.68-3.02s9.39,1.01,11.76,3.04c2.37,2.03,3.55,4.71,3.55,8.06s-1.17,6.26-3.5,8.29c-2.33,2.04-6.02,3.06-11.08,3.06-6.01,0-10.17-.98-12.49-2.93-2.32-1.95-3.48-4.71-3.48-8.28s1.18-6.21,3.55-8.22Zm-3.37,295.64c1.66-1.4,4.22-2.11,7.69-2.11s5.96.71,7.64,2.12,2.51,3.21,2.51,5.38c0,2.05-.82,3.77-2.47,5.16-1.65,1.39-4.16,2.09-7.53,2.09-3.61,0-6.24-.69-7.87-2.07-1.64-1.38-2.45-3.14-2.45-5.29s.83-3.89,2.49-5.29Zm6.99-50.34c3.54,0,5.99.56,7.36,1.68,1.37,1.12,2.05,2.59,2.05,4.39,0,1.64-.51,2.91-1.52,3.81s-2.74,1.36-5.18,1.36h-20.63v-11.24h17.92Zm-10.16-50.59c.74-.82,1.7-1.23,2.87-1.23,1.03,0,1.94.41,2.75,1.24.78.81,1.57,2.72,2.38,5.75.56,2.22,1.21,4.36,1.94,6.41h-2.38c-1.86,0-3.36-.3-4.52-.9-1.16-.6-2.14-1.61-2.95-3.04-.81-1.43-1.21-2.97-1.21-4.63s.37-2.79,1.12-3.61Zm-3.75,13.02c-1.12.17-1.95.34-2.47.51-.38.12-.9.36-1.53.69v-6.98c.81,1.91,2.14,3.84,4,5.77Zm37.07-53.69c-1.5,1.32-3.67,1.98-6.5,1.98s-4.95-.63-6.35-1.89c-1.4-1.26-2.11-2.81-2.11-4.67,0-1.95.68-3.53,2.03-4.72,1.35-1.2,3.44-1.79,6.24-1.79,3.2,0,5.49.57,6.87,1.7,1.38,1.14,2.07,2.66,2.07,4.56s-.75,3.52-2.25,4.83Z"/>
  </g>
</svg>