<?xml version="1.0" encoding="UTF-8"?>
<svg id="Layer_2" data-name="Layer 2" xmlns="http://www.w3.org/2000/svg" viewBox="0 0 90.06 761.2">
  <defs>
    <style>
      .cls-1 {
        fill: none;
        stroke: #000;
        stroke-miterlimit: 10;
      }
    </style>
  </defs>
  <g id="Layer_1-2" data-name="Layer 1">
    <path class="cls-1" d="m89.56,257.29l-38.88,16.32c-2.08-.76-3.52-1.68-4.33-2.76-.81-1.08-1.21-2.51-1.21-4.26,0-2.63.34-5.03,1.03-7.17l-9.62,1.08v-18.88c.21.52.43,1.01.68,1.47,1.7,3.17,4.5,5.88,8.4,8.13l1.36-14.69c-1.17-.93-1.99-1.79-2.45-2.6-.73-1.32-1.1-2.71-1.1-4.17,0-2.32.84-4.2,2.53-5.64,1.17-1.03,2.95-1.67,5.35-1.94v29.88h1.68c5.13,0,9.29-.84,12.49-2.53,3.2-1.69,5.64-4.14,7.32-7.36s2.53-7.62,2.53-13.18c0-6.86-1.88-12.24-5.64-16.13-3.76-3.89-8.68-5.84-14.76-5.84-4.27,0-7.99.97-11.15,2.91-3.16,1.94-5.47,4.39-6.92,7.34-.11.22-.21.47-.31.7v-18.61h52.7v-14.94h-52.7v-16.1s0,.03.01.04c1.26,2.92,2.94,5.05,5.07,6.41,2.12,1.35,4.3,2.03,6.55,2.03s4.26-.64,6.11-1.92,3.28-3.13,4.28-5.55c1-2.42,1.78-6.1,2.34-11.06.39-3.27.83-5.4,1.32-6.37s1.21-1.46,2.16-1.46c.85,0,1.58.38,2.18,1.15.6.77.9,2,.9,3.68s-.39,3.08-1.17,4.25c-.59.86-1.5,1.46-2.75,1.83l1.39,14.13c2.54-.98,4.55-2.2,6.04-3.68,1.49-1.48,2.59-3.32,3.3-5.53.71-2.21,1.06-5.63,1.06-10.27,0-4.39-.46-7.9-1.37-10.51-.92-2.61-2.3-4.66-4.15-6.15-1.85-1.49-4.06-2.23-6.62-2.23-2.34,0-4.43.69-6.26,2.07-1.83,1.38-3.13,3.08-3.9,5.09s-1.6,5.61-2.5,10.79c-.61,3.47-1.12,5.6-1.54,6.41-.59,1.12-1.42,1.68-2.49,1.68-.95,0-1.74-.43-2.38-1.28-.85-1.1-1.28-2.65-1.28-4.65,0-1.83.38-3.3,1.14-4.39.76-1.1,2.01-1.95,3.77-2.56l-1.39-14.79c-3.74.86-6.62,2.79-8.64,5.8-.44.66-.82,1.43-1.17,2.28v-25.48h12.05c6.23,0,10.47.77,12.74,2.31,1.61,1.07,2.42,2.59,2.42,4.54,0,1.03-.37,2.42-1.1,4.18l10.62,4.61c1.37-2.61,2.05-5.02,2.05-7.21s-.52-3.86-1.56-5.29c-1.04-1.43-2.94-2.81-5.69-4.16h6.37v-13.95h-37.9v-7.67c1.17-.52,2.17-.88,2.98-1.06,1.04-.23,2.47-.35,4.3-.35h17.17c1.83,0,3.75-.37,5.77-1.1,2.01-.73,3.57-1.73,4.67-3,1.59-1.81,2.63-4.06,3.13-6.78.5-2.71.75-6.3.75-10.77,0-2.78-.21-5.37-.62-7.76s-1-4.27-1.76-5.64c-1.05-1.9-2.29-3.36-3.72-4.38-1.43-1.01-3.39-1.79-5.88-2.33l-1.5,14.25c1.68.59,2.83,1.35,3.44,2.31.78,1.22,1.17,3.05,1.17,5.49,0,1.9-.37,3.24-1.1,3.99-.73.76-2.01,1.13-3.85,1.13-.73-1.86-1.32-3.61-1.78-5.27-.45-1.66-1.24-5.29-2.36-10.88-.93-4.66-2.34-7.86-4.25-9.6-1.9-1.73-4.33-2.6-7.29-2.6-3.15,0-5.8,1.2-7.95,3.61-.51.58-.96,1.22-1.35,1.92V17.61h18.93v9.08c0,6.69,1.53,11.66,4.58,14.92s7.29,4.89,12.71,4.89,9.34-1.5,12.19-4.49,4.29-7.49,4.29-13.49V.95h-52.7v-.45H.5v720l17.63,39.5,18.42-39.5v-441c.51,1.08,1.12,2.05,1.86,2.87,1.66,1.83,4.86,3.62,9.6,5.38l41.56,15.43v-14.69l-25.89-7.45,25.89-8.02v-15.73Zm-31.12-35.08c2.32.24,4.07.82,5.24,1.72,1.88,1.42,2.82,3.31,2.82,5.68,0,2.05-.62,3.7-1.87,4.96s-3.31,2.03-6.19,2.33v-14.69Zm7.91-204.6h11.98v4.72c0,3.1-.59,5.21-1.76,6.34s-2.6,1.68-4.29,1.68-3.16-.65-4.27-1.94c-1.11-1.29-1.67-3.54-1.67-6.74v-4.07Zm-22.28,49.64c.74-.82,1.7-1.23,2.87-1.23,1.03,0,1.94.41,2.75,1.24.78.81,1.57,2.72,2.38,5.75.56,2.22,1.21,4.36,1.94,6.41h-2.38c-1.86,0-3.36-.3-4.52-.9-1.16-.6-2.14-1.61-2.95-3.04s-1.21-2.97-1.21-4.63.37-2.79,1.12-3.61Zm-3.75,13.02c-1.12.17-1.95.34-2.47.51-.33.11-.77.31-1.3.57v-6.38c.82,1.76,2.06,3.52,3.77,5.29Z"/>
  </g>
</svg>