<?xml version="1.0" encoding="UTF-8"?>
<svg id="Layer_2" data-name="Layer 2" xmlns="http://www.w3.org/2000/svg" viewBox="0 0 90.23 761.89">
  <defs>
    <style>
      .cls-1 {
        fill: none;
        stroke: #000;
        stroke-miterlimit: 10;
      }
    </style>
  </defs>
  <g id="Layer_1-2" data-name="Layer 1">
    <path class="cls-1" d="m88.01,277.79c-.85-1.61-2.49-3.38-4.91-5.31h5.75v-13.95h-52.3v-9.09h39.14v-14.94h-39.14v-9.92h23.9c5.13,0,8.92-1.17,11.37-3.5,2.45-2.33,3.68-5.56,3.68-9.69,0-3.05-.56-5.64-1.67-7.76-1.11-2.12-2.96-4.22-5.55-6.3h6.34v-13.88h-38.08v-16.04c.06.16.12.34.19.49,1.26,2.92,2.94,5.05,5.07,6.41,2.12,1.35,4.3,2.03,6.55,2.03s4.26-.64,6.11-1.92c1.85-1.28,3.28-3.13,4.28-5.55,1-2.42,1.78-6.1,2.34-11.06.39-3.27.83-5.4,1.32-6.37.49-.98,1.21-1.46,2.16-1.46.85,0,1.58.38,2.18,1.15.6.77.9,2,.9,3.68s-.39,3.08-1.17,4.25c-.59.85-1.5,1.46-2.75,1.83l1.39,14.14c2.54-.98,4.55-2.2,6.04-3.68,1.49-1.48,2.59-3.32,3.3-5.53.71-2.21,1.06-5.63,1.06-10.27,0-4.39-.46-7.9-1.37-10.51-.91-2.61-2.3-4.66-4.15-6.15-1.85-1.49-4.06-2.23-6.62-2.23-2.34,0-4.43.69-6.26,2.07-1.83,1.38-3.13,3.08-3.9,5.09-.77,2.01-1.6,5.61-2.51,10.79-.61,3.47-1.12,5.6-1.54,6.41-.59,1.12-1.41,1.68-2.49,1.68-.95,0-1.74-.43-2.38-1.28-.85-1.1-1.28-2.65-1.28-4.65,0-1.83.38-3.3,1.14-4.39.76-1.1,2.01-1.95,3.77-2.56l-1.39-14.79c-3.74.85-6.62,2.79-8.64,5.8-.51.77-.96,1.67-1.35,2.69v-25.89h12.22c6.23,0,10.47.77,12.74,2.31,1.61,1.07,2.42,2.59,2.42,4.54,0,1.03-.37,2.42-1.1,4.18l10.62,4.61c1.37-2.61,2.05-5.02,2.05-7.21s-.52-3.86-1.56-5.29c-1.04-1.43-2.94-2.81-5.69-4.16h6.37v-13.95h-38.08v-7.59c1.24-.56,2.3-.95,3.16-1.14,1.04-.23,2.47-.35,4.3-.35h17.18c1.83,0,3.75-.37,5.77-1.1,2.01-.73,3.57-1.73,4.67-3,1.59-1.81,2.63-4.07,3.13-6.78s.75-6.3.75-10.77c0-2.78-.21-5.37-.62-7.76-.42-2.39-1-4.27-1.76-5.64-1.05-1.9-2.29-3.36-3.72-4.38-1.43-1.01-3.39-1.79-5.88-2.33l-1.5,14.25c1.68.59,2.83,1.35,3.44,2.31.78,1.22,1.17,3.05,1.17,5.49,0,1.9-.37,3.24-1.1,3.99s-2.01,1.13-3.85,1.13c-.73-1.86-1.32-3.61-1.78-5.27-.45-1.66-1.24-5.29-2.36-10.88-.93-4.66-2.34-7.86-4.25-9.59s-4.33-2.6-7.29-2.6c-3.15,0-5.8,1.2-7.95,3.61-.59.67-1.1,1.43-1.53,2.26V17.16h19.11v9.08c0,6.69,1.53,11.66,4.58,14.92,3.05,3.26,7.29,4.89,12.71,4.89s9.34-1.5,12.19-4.49,4.28-7.49,4.28-13.49V.5h-53.69v.68H.5v720l17.63,39.5,18.42-39.5v-447.6h17.18c-1.54,1.49-2.7,3.18-3.48,5.07-.78,1.89-1.17,3.99-1.17,6.28,0,4.74,1.7,8.65,5.11,11.75,3.41,3.1,8.34,4.65,14.81,4.65,5.86,0,10.78-1.42,14.76-4.27,3.98-2.84,5.97-6.87,5.97-12.07,0-2.64-.57-5.04-1.72-7.21ZM66.53,17.16h11.98v4.72c0,3.1-.59,5.21-1.76,6.34-1.17,1.12-2.6,1.68-4.28,1.68s-3.16-.65-4.27-1.94c-1.11-1.29-1.67-3.54-1.67-6.74v-4.07Zm-12.12,181.2c3.54,0,5.99.56,7.36,1.68,1.37,1.12,2.05,2.59,2.05,4.39,0,1.64-.51,2.91-1.52,3.81-1.01.9-2.74,1.36-5.18,1.36h-20.57v-11.24h17.86Zm-10.16-131.56c.74-.82,1.7-1.23,2.87-1.23,1.03,0,1.94.41,2.75,1.24.78.81,1.57,2.72,2.38,5.75.56,2.22,1.21,4.36,1.94,6.41h-2.38c-1.86,0-3.36-.3-4.52-.9-1.16-.6-2.14-1.61-2.95-3.04-.81-1.43-1.21-2.97-1.21-4.63s.37-2.79,1.12-3.61Zm-3.75,13.02c-1.12.17-1.95.34-2.47.51-.37.12-.87.34-1.47.66v-6.83c.81,1.87,2.12,3.76,3.95,5.65Zm36.07,204.78c-1.48,1.22-3.79,1.83-6.94,1.83-3.42,0-5.84-.59-7.27-1.76-1.43-1.17-2.14-2.62-2.14-4.36,0-1.98.74-3.61,2.23-4.91,1.49-1.29,3.77-1.94,6.85-1.94,3.34,0,5.76.63,7.25,1.9,1.49,1.27,2.23,2.86,2.23,4.76,0,1.76-.74,3.25-2.22,4.47Z"/>
  </g>
</svg>