<svg xmlns="http://www.w3.org/2000/svg" viewBox="0 0 89.94275 761.20443"><defs><style>.cls-1{fill:none;stroke:#000;stroke-miterlimit:10;}</style></defs><g id="Layer_2" data-name="Layer 2"><g id="Layer_1-2" data-name="Layer 1"><path class="cls-1" d="M82.22174,167.89618h5.74951V153.944H36.55005V119.564H53.44421a14.95437,14.95437,0,0,0-3.479,5.07227,16.30234,16.30234,0,0,0-1.17188,6.28027,15.212,15.212,0,0,0,5.1084,11.75489q5.10938,4.65087,14.81348,4.65136,8.78906,0,14.7583-4.2666a13.96067,13.96067,0,0,0,5.96924-12.0664,15.20979,15.20979,0,0,0-1.72119-7.21485,18.546,18.546,0,0,0-4.90723-5.30957h5.74951V104.51318H36.55005V82.36011a19.40647,19.40647,0,0,0,1.75116,5.07336A21.0344,21.0344,0,0,0,46.706,95.56238l1.355-14.68457a9.79887,9.79887,0,0,1-2.45361-2.60059,8.4674,8.4674,0,0,1-1.09863-4.17383,7.0669,7.0669,0,0,1,2.52685-5.64062,9.6457,9.6457,0,0,1,5.34668-1.94043V96.40515h1.68457q7.69044,0,12.4878-2.52637a17.06718,17.06718,0,0,0,7.32422-7.36132q2.52685-4.834,2.52685-13.1836,0-10.29052-5.63965-16.13183-5.63964-5.8418-14.7583-5.84082a20.88937,20.88937,0,0,0-11.15088,2.91113A17.85518,17.85518,0,0,0,37.935,61.61511a18.59325,18.59325,0,0,0-1.385,4.06208V18.58582H54.7793v9.082q0,10.03418,4.57763,14.92382,4.57764,4.88819,12.70752,4.88868,7.91016,0,12.19483-4.48633,4.28466-4.48536,4.28467-13.49414V1.92371H36.55005V.5H.5v720L18.13342,760l18.41663-39.5V268.41675H48.59442q9.33839,0,12.74414,2.30664a5.1502,5.1502,0,0,1,2.417,4.541,11.7217,11.7217,0,0,1-1.09863,4.17579L73.277,284.05347a15.73782,15.73782,0,0,0,2.05078-7.21387,8.76472,8.76472,0,0,0-1.55664-5.292,15.1924,15.1924,0,0,0-5.69434-4.15625h6.37207V253.43823H36.55005v-21.0039a19.40724,19.40724,0,0,0,1.75116,5.07336A21.0344,21.0344,0,0,0,46.706,245.6366L48.061,230.952a9.79887,9.79887,0,0,1-2.45361-2.60059,8.4674,8.4674,0,0,1-1.09863-4.17383,7.0669,7.0669,0,0,1,2.52685-5.64062,9.6457,9.6457,0,0,1,5.34668-1.94043v29.88281h1.68457q7.69044,0,12.4878-2.52637a17.06715,17.06715,0,0,0,7.32422-7.36133q2.52685-4.834,2.52685-13.18359,0-10.29053-5.63965-16.13183-5.63964-5.84181-14.7583-5.84083a20.88937,20.88937,0,0,0-11.15088,2.91114,17.85512,17.85512,0,0,0-6.92187,7.34277,18.5928,18.5928,0,0,0-1.385,4.06213V168.99481H52.85162a14.95437,14.95437,0,0,0-3.479,5.07227,16.30234,16.30234,0,0,0-1.17188,6.28027,15.212,15.212,0,0,0,5.1084,11.75488q5.10938,4.65089,14.81348,4.65137,8.78906,0,14.7583-4.2666a13.96067,13.96067,0,0,0,5.96924-12.06641,15.20975,15.20975,0,0,0-1.72119-7.21484A18.546,18.546,0,0,0,82.22174,167.89618ZM62.16,121.395q2.23316-1.94092,6.84815-1.94043,5.01709,0,7.251,1.9043a5.99907,5.99907,0,0,1,2.23388,4.75976,5.6015,5.6015,0,0,1-2.21533,4.46875q-2.21631,1.82959-6.93994,1.83008-5.12769,0-7.269-1.75781a5.42228,5.42228,0,0,1-2.14258-4.35742A6.2209,6.2209,0,0,1,62.16,121.395ZM59.52338,66.55847a10.32915,10.32915,0,0,1,5.23681,1.72168,7.29741,7.29741,0,0,1,.95215,10.63867q-1.86768,1.88526-6.189,2.3252Zm6.13238-47.97265h11.9751v4.7246q0,4.65089-1.75781,6.33594A5.9651,5.9651,0,0,1,71.58838,31.33a5.36781,5.36781,0,0,1-4.26611-1.94043q-1.667-1.94092-1.66651-6.73828ZM59.52338,216.63269a10.32915,10.32915,0,0,1,5.23681,1.72168,7.29741,7.29741,0,0,1,.95215,10.63867q-1.86768,1.88526-6.189,2.3252Zm16.16174-36.61444q-2.21631,1.8296-6.93994,1.83008-5.12769,0-7.269-1.75781a5.42228,5.42228,0,0,1-2.14258-4.35743,6.22088,6.22088,0,0,1,2.23388-4.90722q2.23316-1.94092,6.84815-1.94043,5.01708,0,7.251,1.90429a5.99907,5.99907,0,0,1,2.23389,4.75977A5.6015,5.6015,0,0,1,75.68512,180.01825Z"/></g></g></svg>