<?xml version="1.0" encoding="UTF-8"?>
<svg id="Layer_2" data-name="Layer 2" xmlns="http://www.w3.org/2000/svg" viewBox="0 0 90.81 761.83">
  <defs>
    <style>
      .cls-1 {
        fill: none;
        stroke: #000;
        stroke-miterlimit: 10;
      }
    </style>
  </defs>
  <g id="Layer_1-2" data-name="Layer 1">
    <path class="cls-1" d="m49.65,84.86c0,4.74,1.7,8.65,5.11,11.75,3.41,3.1,8.34,4.65,14.81,4.65,5.86,0,10.78-1.42,14.76-4.27,3.98-2.84,5.97-6.87,5.97-12.07,0-2.64-.57-5.04-1.72-7.21-.85-1.61-2.49-3.38-4.91-5.31h5.75v-13.95h-52.87v-21.3c.16.43.32.84.5,1.25,1.5,3.42,3.7,6.08,6.61,7.98,2.91,1.9,6.08,2.86,9.52,2.86,2.93,0,5.58-.71,7.95-2.14,2.37-1.43,4.35-3.71,5.95-6.85,1.6-3.14,3.18-8.33,4.74-15.58.61-2.93,1.27-4.79,1.98-5.57.68-.81,1.45-1.21,2.31-1.21,1.17,0,2.17.49,2.98,1.46.82.98,1.23,2.43,1.23,4.36,0,2.34-.55,4.18-1.65,5.51s-2.86,2.2-5.27,2.62l.92,15.64c5.57-.68,9.62-2.83,12.18-6.43,2.55-3.6,3.83-8.83,3.83-15.69,0-5.59-.7-9.99-2.11-13.2-1.4-3.21-3.33-5.62-5.79-7.21-2.45-1.6-5.06-2.4-7.82-2.4-4.2,0-7.65,1.56-10.36,4.69-2.71,3.1-4.88,8.29-6.52,15.56-.98,4.44-2.01,7.28-3.11,8.5s-2.34,1.83-3.74,1.83c-1.46,0-2.75-.64-3.86-1.92-1.11-1.28-1.67-3.11-1.67-5.48,0-3.17,1.09-5.62,3.26-7.32,1.34-1.05,3.3-1.74,5.86-2.09l-.99-15.79c-5.42.46-9.89,2.46-13.4,5.97-1.49,1.49-2.66,3.49-3.52,5.98V1.12H.5v720l17.63,39.5,18.42-39.5v-399.6h23.88c5.1,0,8.89-1.17,11.35-3.5,2.47-2.33,3.7-5.52,3.7-9.58,0-2.73-.45-5.1-1.35-7.11-.9-2-2.4-4.02-4.5-6.04h19.78v-14.91h-52.85v-16.43c.03.06.05.13.08.19,1.2,2.77,2.87,5.05,5.04,6.83,2.16,1.78,4.72,3.06,7.67,3.85l1.61-14.17c-2.08-.66-3.61-1.65-4.61-2.98-1-1.33-1.5-2.97-1.5-4.93,0-2.34.83-4.27,2.49-5.79,1.66-1.51,4.08-2.27,7.27-2.27,3.58,0,6.26.76,8.02,2.29s2.65,3.52,2.65,5.99c0,1.95-.42,3.51-1.26,4.67-.84,1.16-2.09,1.96-3.75,2.4l1.87,14.03c4.37-1.34,7.69-3.68,9.96-7.01,2.27-3.33,3.41-8.17,3.41-14.52,0-4.54-.6-8.26-1.79-11.17-.76-1.83-1.91-3.61-3.46-5.35-1.55-1.73-3.3-3.1-5.25-4.1-2.66-1.37-5.99-2.05-9.99-2.05s-6.9.56-9.22,1.68-4.34,2.67-6.06,4.65c-1.35,1.56-2.4,3.36-3.17,5.39v-17.39c1.23-.56,2.28-.94,3.13-1.13,1.04-.23,2.47-.35,4.3-.35h17.18c1.83,0,3.75-.37,5.77-1.1,2.01-.73,3.57-1.73,4.67-3,1.59-1.81,2.63-4.07,3.13-6.78.5-2.71.75-6.3.75-10.77,0-2.78-.21-5.37-.62-7.76-.42-2.39-1-4.27-1.76-5.64-1.05-1.9-2.29-3.36-3.72-4.38-1.43-1.01-3.39-1.79-5.88-2.32l-1.5,14.24c1.68.59,2.83,1.36,3.44,2.31.78,1.22,1.17,3.05,1.17,5.49,0,1.9-.37,3.23-1.1,3.99-.73.76-2.01,1.13-3.85,1.13-.73-1.86-1.32-3.61-1.78-5.27-.45-1.66-1.24-5.29-2.36-10.88-.93-4.66-2.34-7.86-4.25-9.59-1.9-1.73-4.33-2.6-7.29-2.6-3.15,0-5.8,1.2-7.95,3.61-.58.65-1.08,1.39-1.5,2.21v-12.88h23.88c5.13,0,8.92-1.17,11.37-3.5,2.45-2.33,3.68-5.56,3.68-9.69,0-3.05-.56-5.64-1.67-7.76-1.11-2.12-2.96-4.22-5.55-6.3h6.34v-13.88h-38.05v-9.63h38.15v-14.94h-38.15v-33.52h17.75c-1.54,1.49-2.7,3.18-3.48,5.07s-1.17,3.99-1.17,6.28Zm13.37-9.52c1.49-1.29,3.77-1.94,6.85-1.94,3.34,0,5.76.63,7.25,1.9,1.49,1.27,2.23,2.86,2.23,4.76,0,1.76-.74,3.25-2.22,4.47-1.48,1.22-3.79,1.83-6.94,1.83-3.42,0-5.84-.59-7.27-1.76-1.43-1.17-2.14-2.62-2.14-4.36,0-1.98.74-3.61,2.23-4.91Zm-8.63,219.96c3.54,0,5.99.56,7.36,1.68,1.37,1.12,2.05,2.59,2.05,4.39,0,1.64-.51,2.91-1.52,3.81-1.01.9-2.74,1.36-5.18,1.36h-20.55v-11.24h17.84Zm-10.16-99.33c.74-.82,1.7-1.23,2.87-1.23,1.03,0,1.94.41,2.75,1.24.78.81,1.57,2.72,2.38,5.75.56,2.22,1.21,4.36,1.94,6.41h-2.38c-1.86,0-3.36-.3-4.52-.9-1.16-.6-2.14-1.61-2.95-3.04-.81-1.43-1.21-2.97-1.21-4.63s.37-2.79,1.12-3.61Zm-3.75,13.02c-1.12.17-1.95.34-2.47.51-.37.12-.85.34-1.45.65v-6.76c.81,1.86,2.11,3.72,3.92,5.6Zm13.92-62.47c3.54,0,5.99.56,7.36,1.68,1.37,1.12,2.05,2.59,2.05,4.39,0,1.64-.51,2.91-1.52,3.81-1.01.9-2.74,1.36-5.18,1.36h-20.55v-11.24h17.84Z"/>
  </g>
</svg>