<?xml version="1.0" encoding="UTF-8"?>
<svg id="Layer_2" data-name="Layer 2" xmlns="http://www.w3.org/2000/svg" viewBox="0 0 90.94 762.51">
  <defs>
    <style>
      .cls-1 {
        fill: none;
        stroke: #000;
        stroke-miterlimit: 10;
      }
    </style>
  </defs>
  <g id="Layer_1-2" data-name="Layer 1">
    <path class="cls-1" d="m49.18,83.68c0,4.74,1.7,8.65,5.11,11.75,3.41,3.1,8.34,4.65,14.81,4.65,5.86,0,10.78-1.42,14.76-4.27,3.98-2.84,5.97-6.87,5.97-12.07,0-2.64-.57-5.04-1.72-7.21-.86-1.61-2.49-3.38-4.91-5.31h5.75v-13.95h-52.4v-20.49c.19.56.4,1.1.63,1.62,1.5,3.42,3.7,6.08,6.61,7.98,2.91,1.9,6.08,2.86,9.52,2.86,2.93,0,5.58-.71,7.95-2.14,2.37-1.43,4.35-3.71,5.95-6.85,1.6-3.14,3.18-8.33,4.74-15.58.61-2.93,1.27-4.79,1.98-5.57.68-.81,1.45-1.21,2.31-1.21,1.17,0,2.17.49,2.98,1.46.82.98,1.23,2.43,1.23,4.36,0,2.34-.55,4.18-1.65,5.51-1.1,1.33-2.86,2.2-5.27,2.62l.92,15.64c5.57-.68,9.62-2.83,12.18-6.43,2.55-3.6,3.83-8.83,3.83-15.69,0-5.59-.7-9.99-2.11-13.2-1.4-3.21-3.33-5.62-5.79-7.21-2.45-1.6-5.06-2.4-7.82-2.4-4.2,0-7.65,1.56-10.36,4.69-2.71,3.1-4.88,8.29-6.52,15.56-.98,4.44-2.01,7.28-3.11,8.5s-2.34,1.83-3.74,1.83c-1.46,0-2.75-.64-3.86-1.92-1.11-1.28-1.67-3.11-1.67-5.48,0-3.17,1.09-5.62,3.26-7.32,1.34-1.05,3.3-1.75,5.86-2.09l-.99-15.78c-5.42.46-9.89,2.45-13.4,5.97-1.56,1.56-2.78,3.69-3.65,6.36V1.8H.5v720l17.63,39.5,18.42-39.5v-417.83c.1.26.19.52.29.76,1.26,2.92,2.95,5.05,5.07,6.41,2.12,1.35,4.3,2.03,6.55,2.03s4.26-.64,6.11-1.92c1.85-1.28,3.28-3.13,4.28-5.55,1-2.42,1.78-6.1,2.34-11.06.39-3.27.83-5.4,1.32-6.37s1.21-1.46,2.16-1.46c.85,0,1.58.38,2.18,1.15.6.77.9,2,.9,3.68s-.39,3.08-1.17,4.25c-.59.85-1.5,1.46-2.75,1.83l1.39,14.14c2.54-.98,4.55-2.2,6.04-3.68,1.49-1.48,2.59-3.32,3.29-5.53.71-2.21,1.06-5.63,1.06-10.27,0-4.39-.46-7.9-1.37-10.51-.92-2.61-2.3-4.66-4.15-6.15-1.85-1.49-4.06-2.23-6.62-2.23-2.34,0-4.43.69-6.26,2.07-1.83,1.38-3.13,3.08-3.9,5.09-.77,2.01-1.6,5.61-2.5,10.79-.61,3.47-1.12,5.6-1.54,6.41-.59,1.12-1.41,1.68-2.49,1.68-.95,0-1.74-.43-2.38-1.28-.85-1.1-1.28-2.65-1.28-4.65,0-1.83.38-3.3,1.13-4.39.76-1.1,2.01-1.95,3.77-2.56l-1.39-14.79c-3.74.85-6.62,2.79-8.64,5.8-.56.84-1.04,1.85-1.45,3.01v-12.78l9.91-1.06c-.63-1.98-.95-3.52-.95-4.61,0-1.22.41-2.08,1.24-2.56.54-.32,1.63-.48,3.29-.48h13.78v8.2h10.91v-8.2h14.79l-7.65-14.94h-7.14v-5.49h-10.91v5.49h-13.68c-4.34,0-7.48.42-9.42,1.26-1.84.8-3.22,2.02-4.17,3.65v-17h38.18v-14.91h-18.71c-3.54,0-5.99-.57-7.36-1.7-1.37-1.14-2.05-2.59-2.05-4.38,0-1.64.51-2.91,1.54-3.81,1.03-.9,2.76-1.36,5.2-1.36h21.39v-14.98h-24.76c-5.1,0-8.88,1.17-11.33,3.5-.85.8-1.54,1.72-2.09,2.73v-25.91c.95,2.57,2.32,4.82,4.14,6.7,3.82,3.97,8.72,5.95,14.7,5.95,5.32,0,9.8-1.6,13.44-4.8,4.52-3.98,6.78-9.86,6.78-17.65,0-6.81-1.92-12.22-5.77-16.22-3.85-4-8.73-6.01-14.67-6.01-6.37,0-11.52,2.37-15.45,7.1-1.35,1.64-2.39,3.51-3.17,5.58v-30.23h12.33c6.23,0,10.47.77,12.74,2.31,1.61,1.07,2.42,2.59,2.42,4.54,0,1.03-.37,2.42-1.1,4.18l10.62,4.61c1.37-2.61,2.05-5.02,2.05-7.21s-.52-3.86-1.56-5.29c-1.04-1.43-2.94-2.81-5.69-4.16h6.37v-13.95h-38.18v-34.45h17.28c-1.54,1.49-2.7,3.18-3.48,5.07-.78,1.89-1.17,3.99-1.17,6.28Zm13.37-9.52c1.49-1.29,3.77-1.94,6.85-1.94,3.34,0,5.76.63,7.25,1.9,1.49,1.27,2.23,2.86,2.23,4.76,0,1.76-.74,3.25-2.22,4.47-1.48,1.22-3.79,1.83-6.94,1.83-3.42,0-5.84-.59-7.27-1.76-1.43-1.17-2.14-2.62-2.14-4.36,0-1.98.75-3.61,2.23-4.91Zm-15.03,82.19c1.66-1.4,4.22-2.11,7.69-2.11s5.96.71,7.64,2.12,2.51,3.21,2.51,5.38c0,2.05-.82,3.77-2.47,5.16-1.65,1.39-4.16,2.09-7.53,2.09-3.61,0-6.24-.69-7.87-2.07-1.64-1.38-2.45-3.14-2.45-5.29s.83-3.89,2.49-5.29Zm-10.91,55.59c1.1,2.11,2.94,4.21,5.53,6.28h-5.59v-6.41s.04.09.06.13Z"/>
  </g>
</svg>