<?xml version="1.0" encoding="UTF-8"?>
<svg id="Layer_2" data-name="Layer 2" xmlns="http://www.w3.org/2000/svg" viewBox="0 0 91.01 761.2">
  <defs>
    <style>
      .cls-1 {
        fill: none;
        stroke: #000;
        stroke-miterlimit: 10;
      }
    </style>
  </defs>
  <g id="Layer_1-2" data-name="Layer 1">
    <path class="cls-1" d="m74.8,84.2v-8.2h14.79l-7.65-14.94h-7.14v-5.49h-10.91v5.49h-13.68c-4.34,0-7.48.42-9.42,1.26-1.88.82-3.29,2.07-4.24,3.75v-27.95c.21.64.44,1.25.7,1.84,1.5,3.42,3.7,6.08,6.61,7.98,2.91,1.9,6.08,2.86,9.52,2.86,2.93,0,5.58-.71,7.95-2.14,2.37-1.43,4.35-3.71,5.95-6.85,1.6-3.14,3.18-8.33,4.74-15.58.61-2.93,1.27-4.79,1.98-5.57.68-.81,1.45-1.21,2.31-1.21,1.17,0,2.17.49,2.98,1.46.82.98,1.23,2.43,1.23,4.36,0,2.34-.55,4.18-1.65,5.51-1.1,1.33-2.86,2.2-5.27,2.62l.92,15.64c5.57-.68,9.62-2.83,12.18-6.43,2.55-3.6,3.83-8.83,3.83-15.69,0-5.59-.7-9.99-2.11-13.2-1.4-3.21-3.33-5.62-5.79-7.21-2.45-1.6-5.06-2.4-7.82-2.4-4.2,0-7.65,1.56-10.36,4.69-2.71,3.1-4.88,8.29-6.52,15.56-.98,4.44-2.01,7.28-3.11,8.5s-2.34,1.83-3.74,1.83c-1.46,0-2.75-.64-3.86-1.92-1.11-1.28-1.67-3.11-1.67-5.48,0-3.17,1.09-5.62,3.26-7.32,1.34-1.05,3.3-1.75,5.86-2.09l-.99-15.78c-5.42.46-9.89,2.45-13.4,5.97-1.61,1.61-2.84,3.81-3.72,6.59V.5H.5v720l17.63,39.5,18.42-39.5v-278.95c.39.67.82,1.28,1.32,1.83,1.66,1.83,4.86,3.62,9.6,5.38l41.56,15.43v-14.69l-25.89-7.45,25.89-8.02v-15.73l-38.88,16.32c-2.08-.76-3.52-1.68-4.33-2.76-.81-1.08-1.21-2.51-1.21-4.26,0-2.63.34-5.03,1.03-7.17l-9.08,1.02v-24.2h12.4c6.23,0,10.47.77,12.74,2.31,1.61,1.07,2.42,2.59,2.42,4.54,0,1.03-.37,2.42-1.1,4.18l10.62,4.61c1.37-2.61,2.05-5.02,2.05-7.21s-.52-3.86-1.56-5.29c-1.04-1.43-2.94-2.81-5.69-4.16h6.37v-13.95h-38.25v-21.31h12.4c6.23,0,10.47.77,12.74,2.31,1.61,1.07,2.42,2.59,2.42,4.54,0,1.03-.37,2.42-1.1,4.18l10.62,4.61c1.37-2.61,2.05-5.02,2.05-7.21s-.52-3.86-1.56-5.29c-1.04-1.43-2.94-2.81-5.69-4.16h6.37v-13.95h-38.25v-18.22c.3.87.64,1.68,1.02,2.4,1.7,3.17,4.5,5.88,8.4,8.13l1.35-14.68c-1.17-.93-1.99-1.79-2.45-2.6-.73-1.32-1.1-2.71-1.1-4.17,0-2.32.84-4.2,2.53-5.64,1.17-1.03,2.95-1.67,5.35-1.94v29.88h1.68c5.13,0,9.29-.84,12.49-2.53,3.2-1.69,5.64-4.14,7.32-7.36s2.53-7.62,2.53-13.18c0-6.86-1.88-12.24-5.64-16.13-3.76-3.89-8.68-5.84-14.76-5.84-4.27,0-7.99.97-11.15,2.91-3.16,1.94-5.47,4.39-6.92,7.34-.24.49-.46,1.03-.66,1.58v-26.54c.26.54.55,1.07.88,1.58,1.6,2.5,4.02,4.46,7.25,5.88s6.98,2.12,11.22,2.12c6.37,0,11.26-1.55,14.67-4.65,3.41-3.1,5.11-7.02,5.11-11.75,0-2.29-.39-4.39-1.17-6.28-.78-1.89-1.95-3.58-3.52-5.07h18.6v-15.05h-53.04v-18.33l38.25,14.09v-14.32l-24.55-6.27,24.55-8.23v-13.47l-24.49-7.89,24.49-6.23v-14.41l-38.25,14.18v-17.04c1.32-.61,2.44-1.02,3.33-1.22,1.04-.23,2.47-.35,4.3-.35h17.18c1.83,0,3.75-.37,5.77-1.1,2.01-.73,3.57-1.73,4.67-3,1.59-1.81,2.63-4.07,3.13-6.78s.75-6.3.75-10.77c0-2.78-.21-5.37-.62-7.76-.42-2.39-1-4.27-1.76-5.64-1.05-1.9-2.29-3.36-3.72-4.38-1.43-1.01-3.39-1.79-5.88-2.33l-1.5,14.25c1.68.59,2.83,1.35,3.44,2.31.78,1.22,1.17,3.05,1.17,5.49,0,1.9-.37,3.24-1.1,3.99s-2.01,1.13-3.85,1.13c-.73-1.86-1.32-3.61-1.78-5.27-.45-1.66-1.24-5.29-2.36-10.88-.93-4.66-2.34-7.86-4.25-9.59s-4.33-2.6-7.29-2.6c-3.15,0-5.8,1.2-7.95,3.61-.68.76-1.24,1.64-1.7,2.63v-23.7h12.4c6.23,0,10.47.77,12.74,2.31,1.61,1.07,2.42,2.59,2.42,4.54,0,1.03-.37,2.42-1.1,4.18l10.62,4.61c1.37-2.61,2.05-5.02,2.05-7.21s-.52-3.86-1.56-5.29c-1.04-1.43-2.94-2.81-5.69-4.16h6.37v-13.95h-38.25v-6.59l9.98-1.07c-.63-1.98-.95-3.52-.95-4.61,0-1.22.41-2.08,1.24-2.56.54-.32,1.63-.48,3.29-.48h13.78v8.2h10.91Zm-16,225.09c2.32.24,4.06.82,5.24,1.72,1.88,1.42,2.82,3.31,2.82,5.68,0,2.05-.62,3.7-1.87,4.96-1.25,1.26-3.31,2.03-6.19,2.33v-14.69Zm-10.6-46.3c1.5-1.26,3.92-1.89,7.27-1.89,3.05,0,5.33.64,6.83,1.92,1.5,1.28,2.25,2.94,2.25,4.96,0,1.68-.72,3.12-2.16,4.3-1.44,1.18-3.7,1.78-6.77,1.78-3.49,0-5.98-.6-7.45-1.81-1.48-1.21-2.22-2.7-2.22-4.49,0-1.93.75-3.52,2.25-4.78Zm-6.54-2.88c-2.42,1.93-4.06,3.71-4.94,5.35-.06.12-.1.25-.16.37v-5.72h5.11Zm17.65-53.66l-22.76,7.66v-15.07l22.76,7.4Zm-14.89-66.54c.74-.82,1.7-1.23,2.87-1.23,1.03,0,1.94.41,2.75,1.24.78.81,1.57,2.72,2.38,5.75.56,2.22,1.21,4.36,1.94,6.41h-2.38c-1.86,0-3.36-.3-4.52-.9-1.16-.6-2.14-1.61-2.95-3.04-.81-1.43-1.21-2.97-1.21-4.63s.37-2.79,1.12-3.61Zm-7.78,7.2c.81,1.93,2.15,3.87,4.03,5.82-1.12.17-1.95.34-2.47.51-.41.13-.96.38-1.65.75v-7.35c.03.09.06.18.09.26Z"/>
  </g>
</svg>