<?xml version="1.0" encoding="UTF-8"?>
<svg id="Layer_2" data-name="Layer 2" xmlns="http://www.w3.org/2000/svg" viewBox="0 0 89.42 760.18">
  <defs>
    <style>
      .cls-1 {
        fill: none;
        stroke: #000;
        stroke-miterlimit: 10;
      }
    </style>
  </defs>
  <g id="Layer_1-2" data-name="Layer 1">
    <g>
      <path class="cls-1" d="m88.6,50.47V.71h-13.08v16.69h-39.02V.5H.5v720l18,38.5,18-38.5v-434.12c.93,2.36,2.22,4.44,3.92,6.2,3.77,3.92,8.61,5.87,14.51,5.87,5.25,0,9.67-1.58,13.26-4.73,4.46-3.93,6.68-9.73,6.68-17.42,0-6.72-1.9-12.06-5.69-16.01-3.79-3.95-8.62-5.93-14.47-5.93-6.29,0-11.37,2.34-15.25,7.01-1.23,1.5-2.21,3.18-2.96,5.05v-16.77l9.61-1.03c-.63-1.95-.94-3.47-.94-4.55,0-1.21.41-2.05,1.23-2.53.53-.31,1.61-.47,3.25-.47h13.59v8.09h10.77v-8.09h14.6l-7.55-14.74h-7.05v-5.42h-10.77v5.42h-13.5c-4.28,0-7.38.42-9.29,1.25-1.71.75-3.01,1.87-3.95,3.34v-13.7c1.2-.54,2.22-.91,3.05-1.1,1.02-.23,2.44-.34,4.25-.34h16.95c1.81,0,3.7-.36,5.69-1.08s3.52-1.71,4.61-2.96c1.57-1.78,2.6-4.01,3.09-6.69.49-2.67.74-6.21.74-10.62,0-2.75-.21-5.3-.61-7.66-.41-2.36-.99-4.22-1.73-5.56-1.04-1.88-2.26-3.32-3.67-4.32-1.41-1-3.34-1.76-5.8-2.29l-1.48,14.06c1.66.58,2.79,1.34,3.4,2.28.77,1.2,1.16,3.01,1.16,5.42,0,1.88-.36,3.19-1.08,3.94s-1.99,1.12-3.79,1.12c-.72-1.83-1.31-3.57-1.75-5.2-.45-1.64-1.22-5.22-2.33-10.73-.92-4.6-2.31-7.76-4.19-9.47-1.88-1.71-4.28-2.57-7.19-2.57-3.11,0-5.72,1.19-7.84,3.56-.55.62-1.03,1.32-1.44,2.09v-12.62h23.23c5.2,0,9.03-1.16,11.47-3.46,2.44-2.31,3.67-5.52,3.67-9.63,0-2.79-.45-5.14-1.35-7.04s-2.61-4.01-5.11-6.31c2.14-1.13,3.76-2.59,4.84-4.38s1.63-4.21,1.63-7.27c0-2.85-.49-5.28-1.48-7.29-.99-2.01-2.65-4.01-4.99-5.99h5.6v-13.73h-37.5v-19.26c.93,2.36,2.22,4.44,3.92,6.2,3.77,3.91,8.61,5.87,14.51,5.87,5.25,0,9.67-1.58,13.26-4.73,4.46-3.93,6.68-9.73,6.68-17.42,0-6.72-1.9-12.06-5.69-16.01-3.79-3.95-8.62-5.93-14.47-5.93-6.29,0-11.37,2.34-15.25,7.01-1.23,1.5-2.21,3.18-2.96,5.05v-28.35h39.02v16.69h13.08Z"/>
      <path class="cls-1" d="m47.16,271.18c1.64-1.38,4.17-2.08,7.59-2.08s5.88.7,7.53,2.1c1.65,1.4,2.48,3.17,2.48,5.31,0,2.02-.81,3.72-2.44,5.09s-4.1,2.06-7.43,2.06c-3.57,0-6.15-.68-7.77-2.04-1.61-1.36-2.42-3.1-2.42-5.22s.82-3.84,2.46-5.22Z"/>
      <path class="cls-1" d="m47.16,66.89c1.64-1.39,4.17-2.08,7.59-2.08s5.88.7,7.53,2.1c1.65,1.4,2.48,3.17,2.48,5.31,0,2.02-.81,3.72-2.44,5.09s-4.1,2.06-7.43,2.06c-3.57,0-6.15-.68-7.77-2.04-1.61-1.36-2.42-3.1-2.42-5.22s.82-3.84,2.46-5.22Z"/>
      <path class="cls-1" d="m44.03,189.38c.73-.81,1.68-1.21,2.84-1.21,1.01,0,1.92.41,2.71,1.23.77.79,1.55,2.69,2.35,5.67.55,2.19,1.19,4.3,1.92,6.32h-2.35c-1.83,0-3.32-.29-4.46-.89-1.14-.59-2.11-1.59-2.91-3-.79-1.41-1.19-2.93-1.19-4.57s.37-2.75,1.1-3.56Z"/>
      <path class="cls-1" d="m40.33,202.22c-1.11.17-1.92.34-2.44.51-.35.11-.82.32-1.39.62v-6.56c.81,1.8,2.07,3.61,3.83,5.44Z"/>
      <path class="cls-1" d="m61.36,150.7c-.84.67-2.13,1.01-3.87,1.01h-20.99v-10.44h18.93c2.77,0,4.78.53,6.03,1.58,1.25,1.06,1.88,2.45,1.88,4.18,0,1.46-.66,2.69-1.99,3.67Z"/>
      <path class="cls-1" d="m55.21,116.08c2.91,0,5.01.54,6.29,1.63,1.28,1.09,1.92,2.48,1.92,4.17,0,1.04-.3,1.95-.89,2.72-.59.77-1.37,1.32-2.33,1.63-.6.19-1.75.29-3.43.29h-20.27v-10.44h18.71Z"/>
    </g>
  </g>
</svg>